<svg id="Layer_1" data-name="Layer 1" xmlns="http://www.w3.org/2000/svg" viewBox="0 0 1238 304"><defs><style>.cls-1{fill:#ededed;}.cls-2{fill:#dd6f47;}.cls-3{fill:#e4e4e4;}.cls-4{fill:#d25037;}.cls-5{fill:#b32d32;}.cls-6{fill:#b0b9bd;}.cls-7{fill:#cc4940;}.cls-8{fill:#e8e8e8;}.cls-9{fill:#b7bfc3;}.cls-10{fill:#c23d3a;}.cls-11{fill:#d9dbdc;}.cls-12{fill:#dfe0e1;}.cls-13{fill:#c6413c;}.cls-14{fill:#be3837;}.cls-15{fill:#b73034;}.cls-16{fill:#ba3435;}.cls-17{fill:#b4bcc1;}.cls-18{fill:#c9443e;}.cls-19{fill:#c4c9cc;}.cls-20{fill:#82929b;}.cls-21{fill:#d0dee4;}.cls-22{fill:#83939c;}.cls-23{fill:#83939b;}.cls-24{fill:#ab2e32;}.cls-25{fill:#98da5a;}.cls-26{fill:#dce5ea;}.cls-27{fill:#d95f48;}.cls-28{fill:#e1aa02;}.cls-29{fill:#f0c826;}.cls-30{fill:#b4402e;}.cls-31{fill:#6f9a38;}.cls-32{fill:#e1aa04;}.cls-33{fill:#f0cd60;}.cls-34{fill:#f1d062;}.cls-35{fill:#e3ae18;}.cls-36{fill:#eac03d;}.cls-37{fill:#e4b217;}.cls-38{fill:#e7b82c;}.cls-39{fill:#dd7063;}.cls-40{fill:#efcc51;}.cls-41{fill:#e8ba2a;}.cls-42{fill:#ebc33c;}.cls-43{fill:#e7b823;}.cls-44{fill:#e7b627;}.cls-45{fill:#dbe5eb;}.cls-46{fill:#8bbb53;}.cls-47{fill:#eec950;}.cls-48{fill:#497cd5;}.cls-49{fill:#87d0f6;}.cls-50{fill:#80c7f2;}.cls-51{fill:#83cbf4;}.cls-52{fill:#75baee;}.cls-53{fill:#538cdc;}.cls-54{fill:#6aabe9;}.cls-55{fill:#4f86d9;}.cls-56{fill:#568edc;}.cls-57{fill:#6dafea;}.cls-58{fill:#4d82d8;}.cls-59{fill:#79beef;}.cls-60{fill:#7dc3f1;}.cls-61{fill:#75b7eb;}.cls-62{fill:#5d96df;}.cls-63{fill:#64a2e5;}.cls-64{fill:#619ee3;}.cls-65{fill:#5f99e0;}.cls-66{fill:#f1c91c;}.cls-67{fill:#77c6fc;}.cls-68{fill:#7dcafc;}.cls-69{fill:#8cd1fd;}.cls-70{fill:#84cefc;}.cls-71{fill:#f0f0f3;}.cls-72{fill:#cdcadc;}.cls-73{fill:#585465;}.cls-74{fill:#e1def1;}.cls-75{fill:#42404b;}.cls-76{fill:#fdfdfd;}.cls-77{fill:#fcfcfc;}.cls-78{fill:#d9d6e8;}.cls-79{fill:#fbfbfc;}.cls-80{fill:#524e5d;}.cls-81{fill:#d8d5e7;}.cls-82{fill:#dbd8eb;}.cls-83{fill:#d8d6e8;}.cls-84{fill:#fbfbfb;}.cls-85{fill:#504d5c;}.cls-86{fill:#f6f6f7;}.cls-87{fill:#f4f4f4;}.cls-88{fill:#f9f8fa;}.cls-89{fill:#d6d4e5;}.cls-90{fill:#524f5e;}.cls-91{fill:#534f5f;}.cls-92{fill:#fafafa;}.cls-93{fill:#fafafb;}.cls-94{fill:#dcd9eb;}.cls-95{fill:#d9d7e9;}.cls-96{fill:#d7d5e6;}.cls-97{fill:#dad7e9;}.cls-98{fill:#595663;}.cls-99{fill:#ca3c55;}.cls-100{fill:#dddaed;}.cls-101{fill:#dcd9ec;}.cls-102{fill:#545060;}.cls-103{fill:#ebebed;}.cls-104{fill:#eaeaeb;}.cls-105{fill:#c03951;}.cls-106{fill:#5d5a67;}.cls-107{fill:#d7d4e6;}.cls-108{fill:#64616f;}.cls-109{fill:#4f4c5a;}.cls-110{fill:#dfdcef;}.cls-111{fill:#d9d6e9;}.cls-112{fill:#bb384f;}.cls-113{fill:#d6d3e4;}.cls-114{fill:#5a5764;}.cls-115{fill:#64616e;}.cls-116{fill:#f2f2f2;}.cls-117{fill:#d23f59;}.cls-118{fill:#ececee;}.cls-119{fill:#dedbee;}.cls-120{fill:#f2f0f8;}.cls-121{fill:#545161;}.cls-122{fill:#eeeeef;}.cls-123{fill:#686573;}.cls-124{fill:#555161;}.cls-125{fill:#bc384f;}.cls-126{fill:#bd3850;}.cls-127{fill:#b9374e;}.cls-128{fill:#bf3951;}.cls-129{fill:#625f6c;}.cls-130{fill:#5b5865;}.cls-131{fill:#f4f3fa;}.cls-132{fill:#fefefe;}.cls-133{fill:#f9f9f9;}.cls-134{fill:#646170;}.cls-135{fill:#f5f4f8;}.cls-136{fill:#b5364c;}.cls-137{fill:#f1d7e0;}.cls-138{fill:#ebe2e5;}.cls-139{fill:#eae2e5;}.cls-140{fill:#e9e1e4;}.cls-141{fill:#030203;}.cls-142{fill:#666370;}.cls-143{fill:#413f49;}.cls-144{fill:#53505f;}.cls-145{fill:#514e5d;}.cls-146{fill:#534f5e;}.cls-147{fill:#524e5e;}.cls-148{fill:#e6e5e5;}.cls-149{fill:#e5e5e7;}.cls-150{fill:#f4f4f5;}.cls-151{fill:#e7e6e8;}.cls-152{fill:#e7e7e9;}.cls-153{fill:#040304;}.cls-154{fill:#070608;}.cls-155{fill:#f2f2f3;}.cls-156{fill:#f1f0f8;}.cls-157{fill:#f8f8fb;}.cls-158{fill:#090606;}.cls-159{fill:#0e0a0a;}.cls-160{fill:#080607;}.cls-161{fill:#330d00;}.cls-162{fill:#2b0c00;}.cls-163{fill:#070605;}.cls-164{fill:#090607;}.cls-165{fill:#8d0000;}.cls-166{fill:#151111;}.cls-167{fill:#0a0708;}.cls-168{fill:#080400;}.cls-169{fill:#0b0807;}.cls-170{fill:#cacaca;}.cls-171{fill:#0d0908;}.cls-172{fill:#111;}.cls-173{fill:#12120e;}.cls-174{fill:#030303;}.cls-175{fill:#0a0807;}.cls-176{fill:#010101;}.cls-177{fill:#141216;}.cls-178{fill:#0a0a0a;}.cls-179{fill:#1b1b1b;}.cls-180{fill:#0f0f0f;}.cls-181{fill:#0b060a;}.cls-182{fill:#0b060c;}.cls-183{fill:#12130f;}.cls-184{fill:#0c0808;}.cls-185{fill:#890000;}.cls-186{fill:#0f090b;}.cls-187{fill:#130908;}.cls-188{fill:#020700;}.cls-189{fill:#1b3010;}.cls-190{fill:#0c0c0c;}.cls-191{fill:#0d0d0d;}.cls-192{fill:#0c0c0b;}.cls-193{fill:#0e0e0e;}.cls-194{fill:#758273;}.cls-195{fill:#121212;}.cls-196{fill:#030202;}.cls-197{fill:#141011;}.cls-198{fill:#0b0709;}.cls-199{fill:#0b0a0a;}.cls-200{fill:#070707;}.cls-201{fill:#090605;}.cls-202{fill:#0e0308;}.cls-203{fill:#90000a;}.cls-204{fill:#090604;}.cls-205{fill:#4c0106;}.cls-206{fill:#366218;}.cls-207{fill:#090909;}.cls-208{fill:#310208;}</style></defs><title>Barra</title><path class="cls-1" d="M1212.09,158a88.1,88.1,0,0,0-79.46,50.6,118,118,0,0,1-213.26,0A88.1,88.1,0,0,0,839.91,158H827.09a88.1,88.1,0,0,0-79.46,50.6,118,118,0,0,1-213.26,0A88.1,88.1,0,0,0,454.91,158h-2.82a88.1,88.1,0,0,0-79.46,50.6,118,118,0,0,1-213.26,0A88.1,88.1,0,0,0,79.91,158H22V364H1260V158Z" transform="translate(-22 -60)"/><circle class="cls-1" cx="244" cy="98" r="89"/><circle class="cls-1" cx="620" cy="98" r="89"/><circle class="cls-1" cx="1007" cy="89" r="89"/><path class="cls-2" d="M266.24,109.05q2.22,8.21,4.44,16.41c.07.24.18.48.27.71a2.14,2.14,0,0,1,.57,1.07c.56,2.32,1.24,4.62,1.84,6.93,2.68,10.1,5.41,20.18,8.06,30.28.63,2.32,1.28,4.65,1.85,7,.53,1.91,1.06,3.82,1.52,5.75s1,3.71,1.53,5.58c0,.45.24.94-.3,1.24a4.71,4.71,0,0,1-1.79.19H227c-2.6,0-4.77-.72-6-3.23a3.89,3.89,0,0,1-.49-1.86c-.06-3.2-.05-6.41,0-9.61,0-3.72-.11-7.44,0-11.15q-.1-5.71,0-11.42c-.08-4.84-.05-9.68,0-14.52s.06-9.83,0-14.74a42.84,42.84,0,0,1,0-4.51,5.46,5.46,0,0,1,4.64-4.43,12,12,0,0,1,2.07-.11H264A3,3,0,0,1,266.24,109.05Z" transform="translate(-22 -60)"/><path class="cls-3" d="M316.1,132.15q0,4.8,0,9.6a2.73,2.73,0,0,0-.6,2c0,4.43,0,8.85,0,13.28,0,3.32,0,6.64,0,10a3.22,3.22,0,0,1-.24,1.52c-.5.59-.95.22-1.31-.14-1.63-1.58-3.24-3.18-4.95-4.67a1.76,1.76,0,0,1-.67-1.6,13.79,13.79,0,0,0,.39-3.72c0-6.34,0-12.68,0-19,0-2.83-.84-4-3.49-4.87a4.6,4.6,0,0,0-1.92-.22c-7.65,0-15.29,0-22.94,0a4.76,4.76,0,0,1-3.78-1.58c-1.42-1.51-2.93-2.94-4.38-4.42-.32-.33-.91-.59-.66-1.24a2.89,2.89,0,0,1,1.76-.31q18,0,35.91,0c3,0,5.15,1.22,6.23,4.1A7.66,7.66,0,0,0,316.1,132.15Z" transform="translate(-22 -60)"/><path class="cls-4" d="M265.16,202.93c-.12-.11-.32-.2-.36-.33q-2.27-8.62-4.52-17.25c-.22-.53.14-.69.53-.82a4,4,0,0,1,1.28-.13h22.49a5.17,5.17,0,0,1,1.15.09c1.17.48.38,1,0,1.4-1,.92-2.07,1.82-3.13,2.69-5,4.1-9.88,8.3-14.82,12.46-.33.28-.66.55-1,.8C266.24,202.23,265.85,202.8,265.16,202.93Z" transform="translate(-22 -60)"/><path class="cls-5" d="M286.3,184.84H261.56c-.47,0-1.09-.24-1.27.52-.3-.68-.9-.51-1.44-.51-11,0-22.09-.09-33.14.05-3.63,0-6.41-2.56-5.84-6.29.52-.19.75.17,1,.51a5.07,5.07,0,0,0,5,4.67c.35,0,.69,0,1,0h59.29C286.55,184.1,286.84,184.42,286.3,184.84Z" transform="translate(-22 -60)"/><path class="cls-6" d="M265.16,202.93a5.08,5.08,0,0,1,1.39-1.21,11.79,11.79,0,0,1,2.32-.19h40.29c3.16,0,4.63-1.15,5.57-4.18a6.52,6.52,0,0,0,.27-1.65c.08-.59.24-1.17,1.07-.75,0,1.08.06,2.16,0,3.23a5,5,0,0,1-4.85,4.79q-22.85,0-45.7,0A3.24,3.24,0,0,1,265.16,202.93Z" transform="translate(-22 -60)"/><path class="cls-7" d="M266.24,109.05h-39.9a5.21,5.21,0,0,0-5.48,4.15.7.7,0,0,1-1,0,4.94,4.94,0,0,1,5-5.18c13.4,0,26.81,0,40.21,0C265.84,108,266.3,108.18,266.24,109.05Z" transform="translate(-22 -60)"/><path class="cls-8" d="M316.1,132.15A1.84,1.84,0,0,1,315,131c-.93-2.65-2.62-3.79-5.45-3.8h-38c-.09.12-.17.13-.25,0a1.54,1.54,0,0,1-.28-1c13.09,0,26.18.08,39.26-.05C313.77,126.09,316.51,128.57,316.1,132.15Z" transform="translate(-22 -60)"/><path class="cls-9" d="M316.09,170l0,13.23c-.44.4-.35.93-.36,1.44,0,2.53,0,5.05,0,7.58,0,.51.2,1.24-.71,1.31a2.22,2.22,0,0,1-.34-1.48q0-10.67,0-21.34a3.66,3.66,0,0,1,.14-1.15C315.6,168.53,315.72,169.69,316.09,170Z" transform="translate(-22 -60)"/><path class="cls-10" d="M220.86,132.41v14.53a.7.7,0,0,1-1,0q0-7,0-14C220.15,132.66,220.34,132.21,220.86,132.41Z" transform="translate(-22 -60)"/><path class="cls-11" d="M316.09,170l-1-.79c-.23-.1-.38-.23-.26-.51.43-.38.26-.89.26-1.34,0-3.45,0-6.89,0-10.34.25-.35.09-.74.13-1.11.06-.54.18-1,.89-1Q316.09,162.52,316.09,170Z" transform="translate(-22 -60)"/><path class="cls-12" d="M316.09,155c-1.06.33-.5,1.47-1,2.07q0-6.84,0-13.67c0-.78.06-1.49,1-1.63Q316.09,148.37,316.09,155Z" transform="translate(-22 -60)"/><path class="cls-13" d="M220.86,132.41c-.35.14-.56.54-1,.52V122.54c.64-1.11.22-2.32.37-3.48.07-.53-.22-1.24.63-1.44Z" transform="translate(-22 -60)"/><path class="cls-14" d="M219.87,146.94h1q0,5.71,0,11.42c-.44.33-.72,0-1-.26Z" transform="translate(-22 -60)"/><path class="cls-15" d="M220.86,179.12l-1-.51V167.44c.69-.26.79.19.86.7s-.13.94.13,1.38Z" transform="translate(-22 -60)"/><path class="cls-16" d="M220.86,169.51c-.37-.29-.25-.7-.25-1.07,0-.53-.12-.94-.74-1q0-4.67,0-9.34l1,.26Q220.86,163.94,220.86,169.51Z" transform="translate(-22 -60)"/><path class="cls-17" d="M315.07,193.65c.42-.38.25-.89.25-1.34,0-2.67,0-5.33,0-8,0-.53-.05-1.09.75-1q0,5.84,0,11.68c-.66-.05-.74.35-.76.88s.19,1-.24,1.45A3.7,3.7,0,0,1,315.07,193.65Z" transform="translate(-22 -60)"/><path class="cls-18" d="M220.86,117.61c-.55,1.17-.18,2.41-.24,3.62,0,.62-.14,1.08-.76,1.3q0-4.67,0-9.33h1Q220.86,115.41,220.86,117.61Z" transform="translate(-22 -60)"/><path class="cls-19" d="M315.07,193.65q0,1.82,0,3.63a5.08,5.08,0,0,1-5.38,4.66H267.91c-.46,0-1,.16-1.36-.22l15.79-13.31a4.21,4.21,0,0,1,2-.36H295a6,6,0,0,0,2.17-.27,2.31,2.31,0,0,0,1.62-2.13,2.41,2.41,0,0,0-1.61-2.28,4.83,4.83,0,0,0-1.78-.23h-7.63a2.45,2.45,0,0,1-1.73-.38l-1.5-5.47a2.23,2.23,0,0,1,1.71-.39c2.29,0,4.57,0,6.86,0a5.33,5.33,0,0,0,2.16-.33,2.18,2.18,0,0,0,1.5-2.19,2.3,2.3,0,0,0-1.59-2.15,5,5,0,0,0-1.91-.24h-8.41a2.58,2.58,0,0,1-1.85-.4l-1.84-7c.6-.58,1.37-.43,2.09-.43,6.6,0,13.21,0,19.81,0,1.87,0,3.62-.17,5-1.56a.66.66,0,0,1,.48-.15,1.35,1.35,0,0,0,.5.88l5.76,5.39.26.51Z" transform="translate(-22 -60)"/><path class="cls-20" d="M308.54,162.47a4.64,4.64,0,0,1-4.16,2.12l-23.25,0q-2.89-10.78-5.77-21.55c-.79-2.95-1.54-5.9-2.3-8.86,1.57-.76,3.21-.41,4.82-.27.64.06,1.28.17,1.93.17h24a3.81,3.81,0,0,1,1.41.09,4.32,4.32,0,0,1,3.89,4.67c0,7,0,14,0,21A7.33,7.33,0,0,1,308.54,162.47Z" transform="translate(-22 -60)"/><path class="cls-21" d="M240.08,117.33a9.5,9.5,0,0,1-13.57,13.24,9.61,9.61,0,0,1-1-13,9.21,9.21,0,0,0,1.69-1.51,9.45,9.45,0,0,1,11.28,0C239.07,116.42,239.43,117.05,240.08,117.33Z" transform="translate(-22 -60)"/><path class="cls-22" d="M286,182.77c3.41,0,6.82,0,10.23,0a2.83,2.83,0,0,1,2.65,1.54,2.6,2.6,0,0,1-.21,2.92,3,3,0,0,1-2.73,1.2c-4.53,0-9.07,0-13.6,0,1.23-1.3,2.82-2.19,4-3.58.22-.38-.1-.7-.12-1Z" transform="translate(-22 -60)"/><path class="cls-23" d="M283,171.58c3.71,0,7.41,0,11.12,0a2.82,2.82,0,0,1,3.07,3.28c-.17,1.43-1.47,2.37-3.35,2.39-3.1,0-6.21,0-9.31,0Z" transform="translate(-22 -60)"/><path class="cls-24" d="M252.27,178.6c-3.19,0-6.39,0-9.58,0-1.07,0-1.76-.48-1.76-1.44s.68-1.45,1.75-1.45q9.58,0,19.16,0c1.07,0,1.76.48,1.76,1.44s-.68,1.46-1.75,1.45C258.66,178.57,255.46,178.6,252.27,178.6Z" transform="translate(-22 -60)"/><path class="cls-19" d="M305.21,134.19H273.06a64.61,64.61,0,0,1-1.83-7h.25c1.94,1.9,3.9,3.77,5.8,5.7a3.38,3.38,0,0,0,2.64,1.07c7.93,0,15.87,0,23.8,0C304.21,134,304.76,133.81,305.21,134.19Z" transform="translate(-22 -60)"/><path class="cls-25" d="M254.36,115.53a1.6,1.6,0,0,1,1.49-1.52,1.66,1.66,0,0,1,1.89,1c-.18.42,0,.88-.11,1.3a1.45,1.45,0,0,1-1.67,1.08,1.42,1.42,0,0,1-1.38-1.41A.91.91,0,0,0,254.36,115.53Z" transform="translate(-22 -60)"/><path class="cls-26" d="M240.08,117.33c-.14.2-.28.13-.42,0-3.67-3.39-7.68-3.75-12-1.3-.19.11-.39.19-.58.29a.18.18,0,0,1-.32,0A9.22,9.22,0,0,1,240.08,117.33Z" transform="translate(-22 -60)"/><path class="cls-27" d="M246.83,114.76l.5.78a1.52,1.52,0,0,0-.31.7,1.57,1.57,0,0,1-1.55,1.14,1.41,1.41,0,0,1-1.51-1.14,1.13,1.13,0,0,0-.25-.44c0-.5-.07-1,.51-1.3A2.89,2.89,0,0,1,246.83,114.76Z" transform="translate(-22 -60)"/><path class="cls-28" d="M230.45,153.13,228.21,155c-.53.46-1.07.93-1.82.59a1.63,1.63,0,0,1-.86-1.83c0-.3,0-.6,0-.9a.6.6,0,0,1,.7-.12s.08,0,.09.08c.65,1.62.65,1.62,2.17.5a2.92,2.92,0,0,1,1.21-.69C230.07,152.69,230.44,152.64,230.45,153.13Z" transform="translate(-22 -60)"/><path class="cls-29" d="M252.29,114.73l.28.54c-.18.39-.27.82-.44,1.22-.91,1.13-1.34,1.19-2.52.3-.29-.38-.29-.93-.71-1.25a.5.5,0,0,1,.21-.53C250.12,114.15,251.21,114.45,252.29,114.73Z" transform="translate(-22 -60)"/><path class="cls-30" d="M243.7,115.79c.75.28.76,1.52,2,1.33,1-.16.87-1.34,1.67-1.58a1.91,1.91,0,0,1-1.57,2.29C244.58,118.15,243.73,117.28,243.7,115.79Z" transform="translate(-22 -60)"/><path class="cls-31" d="M254.36,115.53c.22,0,.42.12.46.37a1.24,1.24,0,0,0,1.24,1.22c.82.07,1.14-.44,1.4-1.06a.33.33,0,0,1,.49,0,1.89,1.89,0,0,1-2,1.81C254.79,117.76,254.3,117,254.36,115.53Z" transform="translate(-22 -60)"/><path class="cls-32" d="M249.67,116.57c.87.73,1.66.77,2.33-.26a.49.49,0,0,1,.71,0,2,2,0,0,1-3.77.25A.51.51,0,0,1,249.67,116.57Z" transform="translate(-22 -60)"/><path class="cls-33" d="M225.57,147.45a1.11,1.11,0,0,1,.87-1.35c.88-.32,1.43.24,2,.83.06.5-.33.46-.63.52a2,2,0,0,0-1.52.16A.63.63,0,0,1,225.57,147.45Z" transform="translate(-22 -60)"/><path class="cls-34" d="M252.29,114.73c-1,.29-2.14-.14-3.17.27C249.85,113.66,251.14,113.55,252.29,114.73Z" transform="translate(-22 -60)"/><path class="cls-35" d="M230.45,153.13c-.2-.27-.49-.21-.76-.23.1-1.16,1.23-1.36,1.88-2a5.62,5.62,0,0,1,.75-.38c.48.65,0,1-.42,1.39S230.94,152.72,230.45,153.13Z" transform="translate(-22 -60)"/><path class="cls-36" d="M229.66,148a6.32,6.32,0,0,1,1.56,1.27c0,.51-.38.44-.7.47a2.47,2.47,0,0,1-1.68-1.45C229,147.93,229.37,148.09,229.66,148Z" transform="translate(-22 -60)"/><path class="cls-37" d="M226.31,152.91h-.74q0-1,0-2.08a.59.59,0,0,1,.86,0A1.77,1.77,0,0,1,226.31,152.91Z" transform="translate(-22 -60)"/><path class="cls-38" d="M230.47,149.53c.27,0,.57.05.76-.23a1.85,1.85,0,0,1,1.09,1.21c0,.33-.18.57-.55.57C231.33,150.57,230.46,150.42,230.47,149.53Z" transform="translate(-22 -60)"/><path class="cls-39" d="M246.83,114.76l-2.62-.26C245.17,113.75,246.06,113.64,246.83,114.76Z" transform="translate(-22 -60)"/><path class="cls-40" d="M229.66,148c-.2.25-.49.19-.75.2a1.14,1.14,0,0,1-1.29-1c.29,0,.59,0,.78-.26Z" transform="translate(-22 -60)"/><path class="cls-41" d="M226.31,150.83h-.74q0-.65,0-1.3a.59.59,0,0,1,.84,0A1,1,0,0,1,226.31,150.83Z" transform="translate(-22 -60)"/><path class="cls-42" d="M226.31,149.53h-.73q0-.65,0-1.3a.6.6,0,0,1,.84,0A1,1,0,0,1,226.31,149.53Z" transform="translate(-22 -60)"/><path class="cls-43" d="M249.67,116.57h-.73l0-1C249.73,115.47,249.68,116,249.67,116.57Z" transform="translate(-22 -60)"/><path class="cls-44" d="M252.72,116.32H252c0-.43-.14-1,.57-1C252.88,115.58,252.78,116,252.72,116.32Z" transform="translate(-22 -60)"/><path class="cls-45" d="M226.78,116.3l.32,0c-.47.49-.72,1.25-1.57,1.27A3.71,3.71,0,0,1,226.78,116.3Z" transform="translate(-22 -60)"/><path class="cls-46" d="M258,116h-.49c.1-.35-.63-.91.28-1C258.09,115.3,258,115.68,258,116Z" transform="translate(-22 -60)"/><path class="cls-47" d="M226.31,148.23h-.73q0-.39,0-.78h.73A.53.53,0,0,1,226.31,148.23Z" transform="translate(-22 -60)"/><path class="cls-23" d="M309.09,174.59c0,1.08,0,2.16,0,3.24a1.14,1.14,0,0,1-.64,1.17c-.47.22-.85-.06-1.18-.33-1.26-1-2.49-2.13-3.76-3.16-.81-.66-.76-1.24,0-1.88,1.26-1,2.49-2.12,3.76-3.16.32-.27.71-.54,1.18-.3a1.17,1.17,0,0,1,.61,1.19C309.08,172.43,309.09,173.51,309.09,174.59Z" transform="translate(-22 -60)"/><path class="cls-48" d="M237.2,128.75c-1.63,2.08-6.49,2.14-8.31.32.3-1,1.14-.51,1.76-.62a9.8,9.8,0,0,0,5-.27C236.22,128.24,236.92,127.93,237.2,128.75Z" transform="translate(-22 -60)"/><path class="cls-49" d="M228.66,117.88c2.23-1.87,6-2,8.05-.27-.93.72-2,.22-3,.38-.93,0-1.83.23-2.76.26C230.17,118.14,229.33,118.49,228.66,117.88Z" transform="translate(-22 -60)"/><path class="cls-50" d="M228.66,117.88H231c-.35,1.06-1.39,1.15-2.19,1.58a1.53,1.53,0,0,1-1.42-.28A3.55,3.55,0,0,1,228.66,117.88Z" transform="translate(-22 -60)"/><path class="cls-51" d="M233.58,117.62h3.13a2.43,2.43,0,0,1,1.28,1c-.5.49-1.11.34-1.7.31C235.39,118.51,234.23,118.58,233.58,117.62Z" transform="translate(-22 -60)"/><path class="cls-52" d="M238.77,119.69a2.75,2.75,0,0,1,.75,1.56,1.87,1.87,0,0,1-1.2.82,2.67,2.67,0,0,1-.79-2C237.79,119.34,238.25,119.39,238.77,119.69Z" transform="translate(-22 -60)"/><path class="cls-53" d="M227.77,128c-.38-.39-.9-.68-.94-1.32-.24-.88.38-.74.88-.75.67.32,1.25.72,1.28,1.57C228.71,128,228.37,128.32,227.77,128Z" transform="translate(-22 -60)"/><path class="cls-54" d="M226.06,123.58l0-1.56a.83.83,0,0,1,1.37-.25,3.1,3.1,0,0,1,.09,2.41C226.76,124.7,226.56,123.78,226.06,123.58Z" transform="translate(-22 -60)"/><path class="cls-55" d="M237.2,128.75c-.46-.44-1-.15-1.56-.24a2.4,2.4,0,0,1,1.68-1.57c.46,0,1-.21,1.17.5C238.12,127.94,237.9,128.58,237.2,128.75Z" transform="translate(-22 -60)"/><path class="cls-56" d="M238.49,127.44c-.37-.39-.85-.17-1.27-.23a1.76,1.76,0,0,1,1.17-1.81c.42,0,.93-.12.94.57C238.9,126.37,239.13,127.16,238.49,127.44Z" transform="translate(-22 -60)"/><path class="cls-57" d="M238.51,122c.08-.6.55-.69,1-.78a2.32,2.32,0,0,1,.26,1.56,4.08,4.08,0,0,0-.87,1.09c-.16.25-.37.35-.59,0A1.79,1.79,0,0,1,238.51,122Z" transform="translate(-22 -60)"/><path class="cls-58" d="M227.77,128c.46,0,.75-.33,1.1-.54.74.25,1.59.36,1.87,1.29-.61.11-1.31-.25-1.85.3A2.81,2.81,0,0,1,227.77,128Z" transform="translate(-22 -60)"/><path class="cls-59" d="M227.38,119.18h1.53c.09.85-.43,1.26-1.11,1.56a1.23,1.23,0,0,1-1.2-.26Z" transform="translate(-22 -60)"/><path class="cls-60" d="M238.77,119.69c-.41.05-1-.17-1,.52a2.18,2.18,0,0,1-1.56-1.56H238C238.43,118.86,238.58,119.29,238.77,119.69Z" transform="translate(-22 -60)"/><path class="cls-61" d="M226.6,120.47h1.27c.25.6.22,1.09-.52,1.3a2,2,0,0,0-1.27.26A3.85,3.85,0,0,1,226.6,120.47Z" transform="translate(-22 -60)"/><path class="cls-62" d="M227.85,126.18c-.42,0-.94-.16-1,.53a1.75,1.75,0,0,1-.52-1.29c-.2-.91.38-.8.94-.72C227.73,125.08,228.21,125.46,227.85,126.18Z" transform="translate(-22 -60)"/><path class="cls-63" d="M238.52,124.11c.4-.46.09-1.61,1.27-1.3v1.56c-.4.24-.77.61-1.3.3A.44.44,0,0,1,238.52,124.11Z" transform="translate(-22 -60)"/><path class="cls-64" d="M227.35,124.88c-.42,0-1-.15-1,.54-.43-.57-.21-1.22-.24-1.84.7-.19,1,.29,1.28.78A.37.37,0,0,1,227.35,124.88Z" transform="translate(-22 -60)"/><path class="cls-65" d="M238.52,124.62l1.26-.26c-.39.47,0,1.15-.45,1.61-.27-.42-.71-.28-1.1-.32C238,125.21,238.16,124.89,238.52,124.62Z" transform="translate(-22 -60)"/><path class="cls-66" d="M226.31,148.23q0-.39,0-.78c.28-.91.83-.43,1.32-.26l1.29,1a7.66,7.66,0,0,0,1.56,1.29c.28.64,1.3.67,1.3,1.56a12.76,12.76,0,0,0-2.08,1.82l-1.81,1.42c-.36.29-.71.73-1.22.51s-.33-.74-.35-1.15c0-.26,0-.51,0-.77q0-1,0-2.08,0-.65,0-1.3T226.31,148.23Z" transform="translate(-22 -60)"/><path class="cls-67" d="M238.52,124.62l-.28,1-1,1.57-1.58,1.29a7.35,7.35,0,0,1-4.91.26c-.52-.58-1.44-.58-1.87-1.29l-1-1.3-.5-1.3v-.52q0-1.3,0-2.6a2.61,2.61,0,0,0,.52-1.3c.53-.28.68-.87,1-1.3l2.08-1.3c.88,0,1.71-.41,2.59-.26a14.23,14.23,0,0,1,2.6,1,7.55,7.55,0,0,1,1.56,1.56c.35.57.31,1.3.78,1.82q0,1,0,2.08Q238.52,124.36,238.52,124.62Z" transform="translate(-22 -60)"/><path class="cls-68" d="M228.91,122c.06-.7.54-.78,1.11-.78h5.83c.57,0,1.05.08,1.11.78a1.38,1.38,0,0,1-.94.35q-3.08,0-6.16,0A1.38,1.38,0,0,1,228.91,122Z" transform="translate(-22 -60)"/><path class="cls-69" d="M237,122.55c-.27,1.28-1.33.82-2,.72a13.12,13.12,0,0,0-4.32,0c-.61.11-1.54.41-1.73-.74a1.75,1.75,0,0,1,1.24-.26h5.57A1.75,1.75,0,0,1,237,122.55Z" transform="translate(-22 -60)"/><path class="cls-70" d="M237,122.55h-8V122h8Z" transform="translate(-22 -60)"/><path class="cls-71" d="M592.14,158.42l0,.63a1.4,1.4,0,0,1,0-1Z" transform="translate(-22 -60)"/><path class="cls-2" d="M686.16,172a52.86,52.86,0,0,1-6.33,3.82,63,63,0,0,1-9.49,4.1,59.78,59.78,0,0,1-10,2.46,56.49,56.49,0,0,1-10,.66c-.54,0-1.08-.09-1.62-.08s-.61-.21-.65-.6a13.81,13.81,0,0,0-2.58-6.9,14.47,14.47,0,0,0-10.22-6.26,14.86,14.86,0,0,0-14.64,6.22,13.28,13.28,0,0,0-2,3.94c-.11.34-.21.41-.58.34a39.17,39.17,0,0,1-13.73-5.45,49.58,49.58,0,0,1-11.35-9.8,2,2,0,0,1-.52-1.42A50.62,50.62,0,0,1,596,145a49.25,49.25,0,0,1,7.51-12.83,48.73,48.73,0,0,1,12.4-10.89,49.88,49.88,0,0,1,14.57-6.08,51.13,51.13,0,0,1,8.71-1.29,48.53,48.53,0,0,1,16.49,1.82,49.75,49.75,0,0,1,25.76,17.46,46.44,46.44,0,0,1,3.59,5.42.68.68,0,0,0,.11.47A40.73,40.73,0,0,1,689,152.66a39.93,39.93,0,0,1-1.69,16.25A26.94,26.94,0,0,1,686.16,172Z" transform="translate(-22 -60)"/><path class="cls-72" d="M599.33,188.15l-.54-.91a1.56,1.56,0,0,0-.47-.89,16.36,16.36,0,0,1-1.1-2.15,1.19,1.19,0,0,0-.38-.86l-.18-.38a.31.31,0,0,0-.16-.41,16.1,16.1,0,0,1-1-2.41,3.83,3.83,0,0,0-.39-1.3,8,8,0,0,0-.55-1.58,18.18,18.18,0,0,1-.74-2.75,24.86,24.86,0,0,0-.47-2.55,14.19,14.19,0,0,0-.27-1.53.33.33,0,0,1,.15-.43l.57.68a45,45,0,0,0,8.52,14,47,47,0,0,0,12.06,9.62,51.41,51.41,0,0,0,14.72,5.52A53.17,53.17,0,0,0,640.76,201a54.3,54.3,0,0,0,10.5-1.18,51.3,51.3,0,0,0,12.67-4.45,48.8,48.8,0,0,0,8.77-5.71,46.55,46.55,0,0,0,8-8.32c.37-.5.69-1,1.09-1.5,1.12-.69,2.26-1.35,3.37-2.07.8-.52,1.56-1.12,2.35-1.65s1.71-1.29,2.58-1.93c.08-.06.15-.15.24-.08s.07.24,0,.37a23.89,23.89,0,0,1-.78,2.79,20.25,20.25,0,0,0-.95,2.89,8.5,8.5,0,0,1-.64,1.61.77.77,0,0,0-.26.65,3.12,3.12,0,0,1-.42.93,2,2,0,0,0-.49,1.1,10.64,10.64,0,0,1-.87,1.7,2.36,2.36,0,0,0-.59,1.12l-.54.91a.44.44,0,0,0-.25.44,33.8,33.8,0,0,1-3,4.38,9.52,9.52,0,0,0-.59.8c-.16.12-.35.22-.35.46l-.21.23c-.14.07-.26.15-.26.33a.75.75,0,0,1-.31.35c-.18.1-.35.2-.37.44a.77.77,0,0,1-.31.35,1.57,1.57,0,0,0-.57.57,6.42,6.42,0,0,1-1,1.12,2.78,2.78,0,0,0-.79.79l-.91.89c-.38.1-.56.41-.78.69a.77.77,0,0,1-.35.31.28.28,0,0,0-.3.27,15.52,15.52,0,0,1-1.61,1.32c-.19,0-.26.11-.33.24a.37.37,0,0,1-.23.21c-.19,0-.26.11-.33.24l-.91.66c-.19,0-.26.11-.33.24l-1.81,1.22c-.19,0-.36,0-.42.26a5,5,0,0,1-1,.64.45.45,0,0,0-.44.25.49.49,0,0,1-.35.2.45.45,0,0,0-.44.25.49.49,0,0,1-.35.2,17.5,17.5,0,0,0-2.79,1.39l-.37.19a1.27,1.27,0,0,0-.87.37,7,7,0,0,1-1.61.66,4.82,4.82,0,0,0-1.54.59,8.74,8.74,0,0,1-1.62.53c-1.28.31-2.55.65-3.8,1a1.89,1.89,0,0,1-.82.2,14.38,14.38,0,0,0-2,.32c-.44.06-.88.14-1.32.19-.07,0-.12,0,0,0v.05a.59.59,0,0,1-.47.09c-.59-.15-1.15.21-1.64.08-.18,0-.11.14-.12.07s0,0,0,0a.42.42,0,0,1,.41,0,1.37,1.37,0,0,1-.71.08,2.67,2.67,0,0,0-.8,0,.28.28,0,0,1,.27.06,30.76,30.76,0,0,1-6.38.11,2,2,0,0,1,.89-.06,13.21,13.21,0,0,0-1.76,0,1.65,1.65,0,0,1-.71-.08.29.29,0,0,1,.26-.07c-.58.09-1.24-.19-1.92-.08a1.21,1.21,0,0,1-.59-.08.33.33,0,0,1,.31-.06c-.4.09-.89-.19-1.4-.08a8.26,8.26,0,0,1-1.73-.3,3.42,3.42,0,0,0-1.31-.25,1.89,1.89,0,0,1-.82-.2,11.83,11.83,0,0,0-2.34-.59.27.27,0,0,1-.26-.08,2.77,2.77,0,0,0-1.2-.37,15.91,15.91,0,0,1-2.59-.9.74.74,0,0,0-.57-.23,6.79,6.79,0,0,1-1.6-.66,1.33,1.33,0,0,0-.87-.38l-.38-.18a13.47,13.47,0,0,0-2.56-1.28,1.18,1.18,0,0,1-.57-.32.44.44,0,0,0-.44-.25.49.49,0,0,1-.35-.2.44.44,0,0,0-.44-.25,47.35,47.35,0,0,1-4.52-3c-.07-.14-.14-.28-.33-.24l-.68-.54c-.07-.14-.15-.26-.33-.26l-1.16-1c0-.17-.11-.28-.3-.26l-.59-.53a.49.49,0,0,0-.42-.38,25.34,25.34,0,0,1-2.69-2.68.72.72,0,0,0-.49-.53l-1.2-1.39c0-.18-.12-.26-.26-.33-.31-.19-.38-.57-.65-.8,0-.18-.12-.26-.26-.33a1.68,1.68,0,0,1-.43-.57c0-.19-.11-.26-.24-.33a27.33,27.33,0,0,1-1.67-2.38.45.45,0,0,0-.25-.44,4,4,0,0,1-.65-1A.44.44,0,0,0,599.33,188.15Z" transform="translate(-22 -60)"/><path class="cls-73" d="M651.21,188.82a2.86,2.86,0,0,1-1.26.1c-.73,0-1.46,0-2.18,0s-1.21.5-1.52,1.14a.33.33,0,0,0-.14.32,13.79,13.79,0,0,1-5.44,6,15.31,15.31,0,0,1-5.42,2,1.53,1.53,0,0,1-.28,0c-.21-.06-.21-.06-.32,0a2.34,2.34,0,0,1-1.14.09,2.68,2.68,0,0,0-1,0,13.25,13.25,0,0,1-5.31-1.19,13.84,13.84,0,0,1-4.56-3.11,14.45,14.45,0,0,1-3.75-6.77,1.15,1.15,0,0,0-1-1,29.79,29.79,0,0,1-6.63-2.35,42.35,42.35,0,0,1-6.15-3.67,56.48,56.48,0,0,1-7.63-6.55,43,43,0,0,1-4.66-5.37.76.76,0,0,0,0-.38c0-.07,0-.15,0-.2s-.06,0,0,0,0,0,0,0a.23.23,0,0,1-.06.2c-.17-.21-.09-.46-.1-.69s0-.4,0-.59,0-.1,0,0,0,.05-.05.08a2.13,2.13,0,0,1-.09-1c.15-.32-.09-.69.1-1a52.09,52.09,0,0,0,3.73,3.89,49.57,49.57,0,0,0,9,6.72,39.88,39.88,0,0,0,7.54,3.41c1.43.47,2.9.83,4.35,1.23a.46.46,0,0,0,.16,0c.47-.05,1,.35,1.41,0s.39-.87.57-1.31a14.38,14.38,0,0,1,7.79-8,12,12,0,0,1,3-.85,14.26,14.26,0,0,1,3.22-.37,17.53,17.53,0,0,1,3.72.64,14.41,14.41,0,0,1,4.3,2,14.25,14.25,0,0,1,5.93,9.12,6.88,6.88,0,0,1,.18,1.1,1.18,1.18,0,0,0,.84,1.06.93.93,0,0,0,.66,0,11.2,11.2,0,0,1,2.38.09,1.49,1.49,0,0,0,.79,0,13.12,13.12,0,0,1,2.49-.09,1.36,1.36,0,0,0,.77,0,2,2,0,0,1,1-.09.51.51,0,0,0,.44,0c.21-.17.46-.09.69-.09a.51.51,0,0,0,.44,0c.36-.23.8-.12,1.18-.17,1-.13,2.07-.37,3.1-.54,1.54-.26,3-.67,4.55-1.07a60.11,60.11,0,0,0,9.42-3.39,67.74,67.74,0,0,0,9.43-5.16.54.54,0,0,1,.16,0,.1.1,0,0,1,.14,0,.35.35,0,0,1,.06.15.39.39,0,0,1-.12.29c-.56.2-.68.73-.91,1.18l-.32.64-.24.48c-.14.33-.36.61-.47,1a.51.51,0,0,1-.07.14c-.24.31-.39.68-.6,1,.15.11.42-.28.49.12-1.32.88-2.69,1.67-4.08,2.44a73.71,73.71,0,0,1-8.45,4,65.83,65.83,0,0,1-11.28,3.4c-1.73.35-3.48.61-5.22.86a3.59,3.59,0,0,1-.5,0c-.11,0-.22-.1-.32,0a1.6,1.6,0,0,1-.92.09.35.35,0,0,0-.22,0s-.06,0-.09,0a.14.14,0,0,1,.1.05,3.5,3.5,0,0,1-1.37.09C651.42,188.8,651.31,188.71,651.21,188.82Z" transform="translate(-22 -60)"/><path class="cls-74" d="M681.75,179.81a4.44,4.44,0,0,1-.92,1.51,43.65,43.65,0,0,1-4.75,5.51,47.15,47.15,0,0,1-5.85,4.88,50.24,50.24,0,0,1-6.19,3.75,54.68,54.68,0,0,1-5.82,2.51A50.7,50.7,0,0,1,652,199.8a47.35,47.35,0,0,1-4.89.87,51.31,51.31,0,0,1-5.61.45,54.21,54.21,0,0,1-6.14-.2c-1.58-.16-3.15-.34-4.71-.63a53.81,53.81,0,0,1-10.63-3.1,51.2,51.2,0,0,1-9.28-5,46,46,0,0,1-10-9.18A44.79,44.79,0,0,1,596,175.8a45.35,45.35,0,0,1-2.17-4.8c0-.11-.17-.23,0-.34.1.08.21.14.23.28a.5.5,0,0,0,.33.39c.82.89,1.63,1.78,2.46,2.66.41.44.85.85,1.28,1.28a.38.38,0,0,0,.32.32c1.7,1.56,3.44,3.08,5.29,4.47a44.45,44.45,0,0,0,8.28,5,30.19,30.19,0,0,0,5.51,1.87.93.93,0,0,1,.82.79,14.53,14.53,0,0,0,2.67,5.56,15,15,0,0,0,3.66,3.43,16.06,16.06,0,0,0,5.35,2.17c0,.07-.1.1-.15,0,0,.08.08.06.13.06a.63.63,0,0,0,.33,0,.4.4,0,0,1,.38.08c0,.07-.1.1-.16,0,0,.08.08.07.13.06s.23,0,.33,0a1.32,1.32,0,0,1,.72.08,16.37,16.37,0,0,0,2.62.07l0,0,0,0c.38-.21.8-.08,1.21-.16a20.11,20.11,0,0,0,2.94-.81,14.52,14.52,0,0,0,4.33-2.52,18.54,18.54,0,0,0,1.92-2,13.55,13.55,0,0,0,2.26-3.73c.09-.2.19-.4.47-.37.92.1,1.85,0,2.78,0,0,0-.07,0-.07,0s0,0,0,0a4.22,4.22,0,0,1,1.28-.08,4.78,4.78,0,0,0,1.12,0c.07,0,0-.11,0,0s0,0,0,0-.25.05-.35-.06a1.89,1.89,0,0,1,.84-.08,2.24,2.24,0,0,0,.66,0c.07,0,.13,0,.05,0s-.07,0-.08-.06a1.37,1.37,0,0,1,.72-.08c.14,0,.29.14.41,0a.6.6,0,0,1,.49-.07c.14,0,.29.14.41,0l2-.31c.1.07.22,0,.33,0s.08,0,.1,0-.1,0-.13,0a2.5,2.5,0,0,1,.94-.19.66.66,0,0,0,.32,0s.08,0,.1,0-.1,0-.13,0c.69-.1,1.38-.26,2.06-.38,1.07-.19,2.09-.61,3.15-.86,1.39-.34,2.72-.83,4.07-1.28a64.59,64.59,0,0,0,7-2.83C677.59,182.1,679.68,181,681.75,179.81Z" transform="translate(-22 -60)"/><path class="cls-4" d="M686.16,172a2.65,2.65,0,0,1,.33-1.18,42.9,42.9,0,0,0,2.22-9,38.87,38.87,0,0,0,.23-8.06,40.76,40.76,0,0,0-2.7-11.75c-.39-1-.87-2-1.3-3-.06-.14-.26-.33.08-.4l.2.34a.51.51,0,0,0,.25.44l.65,1.25a3.18,3.18,0,0,0,.48,1l.2.35a.33.33,0,0,0,.14.33,8.09,8.09,0,0,1,.77,1.7.29.29,0,0,0,.13.33,17.67,17.67,0,0,1,1.11,2.94.49.49,0,0,0,.13.44,35,35,0,0,1,1.68,6.32c-.09.14,0,.28,0,.37a.17.17,0,0,1,.06-.16,2.91,2.91,0,0,1,.2,1.15c-.08.1,0,.23-.08.33.09-.06,0-.18.09-.23a.83.83,0,0,1,.09.57.47.47,0,0,0,0,.32c0,.2.1.11,0,.12s0,0,0-.08a.2.2,0,0,1,.05-.14.86.86,0,0,1,.1.57c-.1.19,0,.41-.06.61,0-.09,0-.2.08-.28a5.93,5.93,0,0,1,.2,1.71,2.29,2.29,0,0,0,0,.67c0,.12.13,0,.06.05s0,0,0,0a.65.65,0,0,1,0-.48,3.28,3.28,0,0,1,.09,1.25,14.44,14.44,0,0,0,0,1.72,4.32,4.32,0,0,1,.05-1.17,16,16,0,0,1,.09,3.13,3.6,3.6,0,0,1-.09,1.38,5.26,5.26,0,0,1,0-1.16,12.6,12.6,0,0,0,0,1.72,3.27,3.27,0,0,1-.09,1.25.81.81,0,0,1-.05-.48,2.71,2.71,0,0,0,0,.7c0,.22.08.46-.1.65-.26,0-.33.21-.45.37a2.29,2.29,0,0,1-.68.55c-.15,0-.28.08-.32.25a5.11,5.11,0,0,1-1,.8.29.29,0,0,0-.25.21l-.2.13a.58.58,0,0,0-.46.33l-.91.66a.37.37,0,0,0-.33.24A1.51,1.51,0,0,1,686.16,172Z" transform="translate(-22 -60)"/><path class="cls-75" d="M684.69,175.18c.23-.52.5-1,.69-1.56.11-.3.41-.17.55-.35.2,0,.2,0,.12-.23v-.11c.13-.22.42-.25.55-.46a.37.37,0,0,1,.25-.2c.25,0,.41-.22.61-.34s.23-.14.31.05a.44.44,0,0,0-.08.19s0-.05,0-.08,0,0,0,0a1.15,1.15,0,0,1,.34-.6.37.37,0,0,1,.33-.22c.28-.14.52-.39.88-.35.15.1.09.25.08.39h0c0-.13.06-.26-.05-.37s-.18-.19,0-.27.27-.1.24-.29l.69-.54c.12,0,.21,0,.2-.14l.23-.22c.35-.12.47,0,.45.37,0,.18-.12.35,0,.53a3.31,3.31,0,0,1-.21,1.14l-.07.09s-.09.1-.08.14.08-.06.12,0a2.35,2.35,0,0,1-.2,1c-.15.07-.1.21-.12.33l-.23.23c-.2-.05-.27.09-.34.23l-.22.22c-.12,0-.26-.13-.36.13a.71.71,0,0,1-.58.36c-.1,0-.16-.16-.29-.11a.29.29,0,0,0-.2.23,1,1,0,0,0,0,.52l-.68.45c-.08-.07,0-.17-.06-.25a.35.35,0,0,1-.05.25.18.18,0,0,1-.15.05c-.21-.1-.19-.34-.3-.5a.56.56,0,0,1,0-.42.07.07,0,0,1,0-.05s0,0,0,0a.48.48,0,0,0,0,.44,1.52,1.52,0,0,1,0,.59,1.79,1.79,0,0,1-1,.84.73.73,0,0,0-.46.47,2.07,2.07,0,0,1-.69.43c-.2,0-.39,0-.43.25a.36.36,0,0,1-.25.2s-.07-.07-.12-.06l0,.08a.35.35,0,0,1-.25.2c-.26-.26-.33.1-.49.15s-.35.05-.25-.1c.3-.42.36-1,.86-1.28h0c-.06-.43.27-.69.45-1l.06,0a.19.19,0,0,1,.08.12h0a.23.23,0,0,1,0,0c0-.08.07-.15.09-.23l0-.12a.17.17,0,0,0,0-.15Z" transform="translate(-22 -60)"/><path class="cls-76" d="M601,134.47a.89.89,0,0,1-.11-.55,2,2,0,0,1,0-1.69,2.21,2.21,0,0,1,1.69-.06.14.14,0,0,1,0,.19Z" transform="translate(-22 -60)"/><path class="cls-76" d="M687.17,188c-.49-.07-1,.15-1.47-.12l1.12-2.06V186c-.09.32.24.22.34.35h0A1.87,1.87,0,0,1,687.17,188Z" transform="translate(-22 -60)"/><path class="cls-77" d="M604.2,130.48a6.78,6.78,0,0,0,.1-1.64l.06-.06c.48-.14,1,0,1.47-.34a.23.23,0,0,1,.16.06Z" transform="translate(-22 -60)"/><path class="cls-76" d="M607.71,126.82l0-1.37a4.76,4.76,0,0,1,1.46.09Z" transform="translate(-22 -60)"/><path class="cls-78" d="M593.25,170a4.21,4.21,0,0,0,.18,1.79c.1.81.32,1.6.48,2.4a.31.31,0,0,1-.08.31,46.44,46.44,0,0,1-.93-4.82C593.13,169.69,593.18,169.85,593.25,170Z" transform="translate(-22 -60)"/><path class="cls-79" d="M685.48,189.72c-.26,0-.56.11-.8-.12l.81-1.34Z" transform="translate(-22 -60)"/><path class="cls-78" d="M653.26,211.27s-.18-.08-.12-.09c1.27-.31,2.54-.65,3.79-1,0,0,.09.05.13.08A22.56,22.56,0,0,1,653.26,211.27Z" transform="translate(-22 -60)"/><path class="cls-77" d="M617.83,119.48v-.79a4.57,4.57,0,0,1,1.35.09Z" transform="translate(-22 -60)"/><path class="cls-78" d="M649.08,212.05l-.35,0,3.52-.63c.06,0,.13.06.19.09A20.22,20.22,0,0,1,649.08,212.05Z" transform="translate(-22 -60)"/><path class="cls-80" d="M685.6,176.76c-.27-.26.18-.39.11-.62,0,0,0-.12.09,0s0,.1.08.14a.14.14,0,0,0,.2,0c.3-.3.76-.42,1-.82.09,0,.18-.07.27,0a.1.1,0,0,1,0,.12A14.1,14.1,0,0,1,685.6,176.76Z" transform="translate(-22 -60)"/><path class="cls-81" d="M688.61,180.13s-.08-.11-.07-.14c.3-.93.62-1.87.93-2.8h.05l0,0A19.46,19.46,0,0,1,688.61,180.13Z" transform="translate(-22 -60)"/><path class="cls-81" d="M594.58,177.24s.09-.09.12,0q.46,1.35.9,2.7c0,.05,0,.13-.07.2A19.39,19.39,0,0,1,594.58,177.24Z" transform="translate(-22 -60)"/><path class="cls-80" d="M688.3,174.84a.32.32,0,0,1,0-.57h.07a1.34,1.34,0,0,0,.32-.1h.07c.29-.11.6-.19.68-.57,0-.07.17,0,.34.13Z" transform="translate(-22 -60)"/><path class="cls-82" d="M663.06,207.89a7.72,7.72,0,0,1,2.79-1.39A22.59,22.59,0,0,1,663.06,207.89Z" transform="translate(-22 -60)"/><path class="cls-82" d="M618.51,206.61a.15.15,0,0,1,.2,0l2.34,1.17c.08,0,.11.09,0,.16A21.11,21.11,0,0,1,618.51,206.61Z" transform="translate(-22 -60)"/><path class="cls-83" d="M628.54,210.68c.36-.19.67.07,1,.13a10,10,0,0,1,1.41.35c.19.06,0,.07-.07.11A13.29,13.29,0,0,1,628.54,210.68Z" transform="translate(-22 -60)"/><path class="cls-84" d="M616.14,206.63c0-.19-.08-.41.12-.57l1,.59Z" transform="translate(-22 -60)"/><path class="cls-85" d="M689.53,170.32c.35.25.14.37-.12.37s-.12.11-.1.19h0a2.35,2.35,0,0,1-.92.33A7.72,7.72,0,0,1,689.53,170.32Z" transform="translate(-22 -60)"/><path class="cls-86" d="M634.36,199.06l.25.05v.08c-1,0-2,0-3,0-.14,0,0-.07.08-.11Z" transform="translate(-22 -60)"/><path class="cls-87" d="M650.15,189.47l.49.06a13.66,13.66,0,0,1-3.15,0Z" transform="translate(-22 -60)"/><path class="cls-88" d="M688.38,144c.18-.13.3.17.47.07-.07.41.13.82,0,1.24Z" transform="translate(-22 -60)"/><path class="cls-89" d="M636.43,212.25c.72-.3,1.42.15,2.24,0-.25.21-.43.11-.59.16A8.31,8.31,0,0,1,636.43,212.25Z" transform="translate(-22 -60)"/><path class="cls-90" d="M691.1,170.32c-.16-.14-.11-.34-.09-.51s-.12-.36-.35-.39l.47-.35C691.35,169.52,691.14,169.92,691.1,170.32Z" transform="translate(-22 -60)"/><path class="cls-91" d="M687.73,172c-.18-.21-.27.06-.4.08s-.25.36-.5.16l1.22-.81a.84.84,0,0,1-.33.57Z" transform="translate(-22 -60)"/><path class="cls-81" d="M658.68,209.7l0,0a2.68,2.68,0,0,1,1.58-.55A6.73,6.73,0,0,1,658.68,209.7Z" transform="translate(-22 -60)"/><path class="cls-78" d="M647.28,212.29l-.48,0v0l1.61-.18c.12,0,.17,0,.18.13A6.25,6.25,0,0,1,647.28,212.29Z" transform="translate(-22 -60)"/><path class="cls-92" d="M685,137.41c.12-.17.3-.1.45-.12-.08.3.14.6,0,.9A3.1,3.1,0,0,1,685,137.41Z" transform="translate(-22 -60)"/><path class="cls-93" d="M690.2,149.15c.09-.39.24.13.35,0,0,.34.1.69-.09,1Z" transform="translate(-22 -60)"/><path class="cls-78" d="M631.7,211.47c.51-.21,1,.15,1.45.16,0,0-.08.07-.14.1A5.08,5.08,0,0,1,631.7,211.47Z" transform="translate(-22 -60)"/><path class="cls-4" d="M692.14,167.53a12.3,12.3,0,0,1,0-2.7v2.7Z" transform="translate(-22 -60)"/><path class="cls-89" d="M638.8,212.48a3.86,3.86,0,0,1,1.8,0h-.93Z" transform="translate(-22 -60)"/><path class="cls-94" d="M634.74,212c.5-.3,1,.16,1.47.09l-.37.06A4.76,4.76,0,0,1,634.74,212Z" transform="translate(-22 -60)"/><path class="cls-95" d="M685.34,187.24a1.2,1.2,0,0,1,.59-1.12A5.82,5.82,0,0,1,685.34,187.24Z" transform="translate(-22 -60)"/><path class="cls-96" d="M627.07,210.23c.48-.19.84.18,1.25.28a.12.12,0,0,1,0,0l0,0A4.32,4.32,0,0,1,627.07,210.23Z" transform="translate(-22 -60)"/><path class="cls-97" d="M686.8,184.42c-.15-.48.25-.77.4-1.14h.05l0,0Z" transform="translate(-22 -60)"/><path class="cls-81" d="M676.8,198.4a1.07,1.07,0,0,1,.79-.79A4,4,0,0,1,676.8,198.4Z" transform="translate(-22 -60)"/><path class="cls-98" d="M592.68,164.92c0,.33.1.69-.1,1,0-.32-.09-.64-.1-1S592.59,164.8,592.68,164.92Z" transform="translate(-22 -60)"/><path class="cls-99" d="M686.61,141.69a1.21,1.21,0,0,1-.48-1A3.53,3.53,0,0,1,686.61,141.69Z" transform="translate(-22 -60)"/><path class="cls-100" d="M675.11,200c.13-.37.31-.7.78-.69Z" transform="translate(-22 -60)"/><path class="cls-82" d="M598.32,186.34a.81.81,0,0,1,.47.89Z" transform="translate(-22 -60)"/><path class="cls-81" d="M661.83,208.45a.69.69,0,0,1,.87-.37Z" transform="translate(-22 -60)"/><path class="cls-81" d="M621.44,208.07c.4-.19.62.17.92.29a.09.09,0,0,1,0,.05l0,0Z" transform="translate(-22 -60)"/><path class="cls-101" d="M596.84,183.33a.76.76,0,0,1,.38.86Z" transform="translate(-22 -60)"/><path class="cls-102" d="M684.47,177.44c-.2-.13,0-.25,0-.38.11.13.35-.16.42.13C684.76,177.28,684.66,177.43,684.47,177.44Z" transform="translate(-22 -60)"/><path class="cls-93" d="M668.57,120.38c0,.13,0,.26-.12.34l-.44-.25C668.17,120.32,668.38,120.41,668.57,120.38Z" transform="translate(-22 -60)"/><path class="cls-103" d="M652.17,189.36l.38.05a1.69,1.69,0,0,1-1.12,0Z" transform="translate(-22 -60)"/><path class="cls-104" d="M645.74,213l.25,0a1.39,1.39,0,0,1-1,0Z" transform="translate(-22 -60)"/><path class="cls-105" d="M688,170.78c0-.27.1-.5.46-.33A1.23,1.23,0,0,1,688,170.78Z" transform="translate(-22 -60)"/><path class="cls-106" d="M652.22,183.63a.62.62,0,0,1-.79,0A1.62,1.62,0,0,1,652.22,183.63Z" transform="translate(-22 -60)"/><path class="cls-107" d="M687.71,182.39a.42.42,0,0,1,.26-.65A1.82,1.82,0,0,1,687.71,182.39Z" transform="translate(-22 -60)"/><path class="cls-108" d="M632.49,198.5a1.15,1.15,0,0,1,1,0A3.33,3.33,0,0,1,632.49,198.5Z" transform="translate(-22 -60)"/><path class="cls-109" d="M686.59,172.46c-.07.29-.34.34-.55.46h-.12A1.49,1.49,0,0,1,686.59,172.46Z" transform="translate(-22 -60)"/><path class="cls-107" d="M623.92,209.11c.27-.13.48,0,.7.15l-.13.08A1.08,1.08,0,0,1,623.92,209.11Z" transform="translate(-22 -60)"/><path class="cls-110" d="M605.19,196.17a.44.44,0,0,1,.49.53Z" transform="translate(-22 -60)"/><path class="cls-111" d="M678.6,196.49c.08-.29.21-.54.57-.57A1.4,1.4,0,0,1,678.6,196.49Z" transform="translate(-22 -60)"/><path class="cls-112" d="M690.89,168.52c-.07-.31.28-.36.38-.57,0,0,0,.13.07.2Z" transform="translate(-22 -60)"/><path class="cls-113" d="M646,212.4l-.37-.05c.31-.05.61-.17.9,0Z" transform="translate(-22 -60)"/><path class="cls-114" d="M592.68,167l0-.22c.08.26.18.51,0,.76C592.7,167.32,592.59,167.14,592.68,167Z" transform="translate(-22 -60)"/><path class="cls-81" d="M680.61,194.23c0-.31.06-.46.35-.46Z" transform="translate(-22 -60)"/><path class="cls-115" d="M655.48,183.51a.64.64,0,0,1-.77,0Z" transform="translate(-22 -60)"/><path class="cls-116" d="M628.58,115.1a.41.41,0,0,1,.63-.15A1.56,1.56,0,0,1,628.58,115.1Z" transform="translate(-22 -60)"/><path class="cls-117" d="M691.45,159.17v.54c-.08-.25-.19-.51,0-.75Z" transform="translate(-22 -60)"/><path class="cls-90" d="M687.29,175.53v-.13a.08.08,0,0,1,0-.08s0,0,0,0a.72.72,0,0,0,.18-.08.62.62,0,0,0,.11-.16l0,.25A.43.43,0,0,1,687.29,175.53Z" transform="translate(-22 -60)"/><path class="cls-101" d="M679.47,195.58c-.07-.31.09-.43.37-.44A1.17,1.17,0,0,1,679.47,195.58Z" transform="translate(-22 -60)"/><path class="cls-90" d="M690,173.49c0-.15,0-.32.14-.39s.16.07.2.16Z" transform="translate(-22 -60)"/><path class="cls-110" d="M608.36,199.39c.3,0,.46.06.42.38Z" transform="translate(-22 -60)"/><path class="cls-84" d="M661.8,117a.24.24,0,0,1-.13.24l-.43-.15C661.41,116.94,661.61,117,661.8,117Z" transform="translate(-22 -60)"/><path class="cls-118" d="M653.64,189.25s.23.07.1.11a.78.78,0,0,1-.73-.07Z" transform="translate(-22 -60)"/><path class="cls-105" d="M689.09,147.77c-.22-.09-.3-.23-.13-.44A.85.85,0,0,1,689.09,147.77Z" transform="translate(-22 -60)"/><path class="cls-99" d="M685.47,139.44c-.28,0-.34-.2-.25-.44Z" transform="translate(-22 -60)"/><path class="cls-119" d="M668.48,205c0-.34.18-.34.42-.26Z" transform="translate(-22 -60)"/><path class="cls-120" d="M598.45,175.6c-.27.05-.37-.06-.32-.32Z" transform="translate(-22 -60)"/><path class="cls-121" d="M684.14,177.67c-.11-.09-.23-.19-.14-.36a.1.1,0,0,1,.09,0c.19.07,0,.27.15.37Z" transform="translate(-22 -60)"/><path class="cls-122" d="M623.83,116.67c.07-.27.22-.29.42-.14A.7.7,0,0,1,623.83,116.67Z" transform="translate(-22 -60)"/><path class="cls-123" d="M649,183.54c-.21.17-.44.09-.67.07,0,0,0,0,0,0a.14.14,0,0,1,0,0Z" transform="translate(-22 -60)"/><path class="cls-94" d="M666.2,206.3c0-.29.19-.36.44-.25Z" transform="translate(-22 -60)"/><path class="cls-94" d="M617.49,206c.26-.11.41,0,.44.25Z" transform="translate(-22 -60)"/><path class="cls-73" d="M690.87,171.68c-.13.06,0,.26-.25.3,0-.23,0-.43.27-.53Z" transform="translate(-22 -60)"/><path class="cls-124" d="M690.55,173c-.2-.16,0-.33,0-.44s.06.07.09.11S690.68,173,690.55,173Z" transform="translate(-22 -60)"/><path class="cls-82" d="M684.55,188.59c-.11-.26,0-.41.25-.44Z" transform="translate(-22 -60)"/><path class="cls-125" d="M689.89,169.32c0-.23,0-.4.32-.25Z" transform="translate(-22 -60)"/><path class="cls-82" d="M667,205.85c0-.29.19-.36.44-.25Z" transform="translate(-22 -60)"/><path class="cls-119" d="M599.33,188.15c.31,0,.34.19.25.44Z" transform="translate(-22 -60)"/><path class="cls-125" d="M686.72,171.68c0-.26.08-.36.33-.24Z" transform="translate(-22 -60)"/><path class="cls-121" d="M690.42,169.64c.09.05.25.12.15.23s-.25,0-.36-.09Z" transform="translate(-22 -60)"/><path class="cls-126" d="M686.94,142.37c-.32,0-.26-.15-.14-.33Z" transform="translate(-22 -60)"/><path class="cls-119" d="M602.83,193.33c.26,0,.35.08.26.33A.61.61,0,0,1,602.83,193.33Z" transform="translate(-22 -60)"/><path class="cls-127" d="M691.23,157.24l0,.22c-.09-.18-.16-.36,0-.54Z" transform="translate(-22 -60)"/><path class="cls-128" d="M688.62,170.32c-.06-.23,0-.27.25-.21Z" transform="translate(-22 -60)"/><path class="cls-119" d="M596.5,182.54c.29,0,.28.21.16.41Z" transform="translate(-22 -60)"/><path class="cls-119" d="M603.73,194.46c.26,0,.34.08.26.33C603.89,194.69,603.76,194.61,603.73,194.46Z" transform="translate(-22 -60)"/><path class="cls-129" d="M658.07,183.29c-.14.19-.28.15-.44,0C657.78,183.29,657.92,183.21,658.07,183.29Z" transform="translate(-22 -60)"/><path class="cls-130" d="M592.79,168.2l.05-.41c.07.36.12.55,0,.73Z" transform="translate(-22 -60)"/><path class="cls-129" d="M656.94,183.4c-.14.19-.28.15-.44,0C656.65,183.4,656.79,183.32,656.94,183.4Z" transform="translate(-22 -60)"/><path class="cls-119" d="M680.15,194.79c-.09-.25,0-.36.26-.33A.61.61,0,0,1,680.15,194.79Z" transform="translate(-22 -60)"/><path class="cls-126" d="M687.84,144.4c-.29,0-.26-.16-.13-.33Z" transform="translate(-22 -60)"/><path class="cls-92" d="M595.26,145.29c-.11-.29-.09-.35.14-.43Z" transform="translate(-22 -60)"/><path class="cls-119" d="M672.51,202.12c0-.26.07-.36.33-.24Z" transform="translate(-22 -60)"/><path class="cls-119" d="M670.71,203.48c0-.26.07-.36.33-.24Z" transform="translate(-22 -60)"/><path class="cls-119" d="M610.84,201.53c.24-.09.36,0,.33.26C611,201.75,610.94,201.63,610.84,201.53Z" transform="translate(-22 -60)"/><path class="cls-119" d="M671.95,202.58c0-.26.08-.36.33-.24Z" transform="translate(-22 -60)"/><path class="cls-131" d="M594.38,171.33c-.34.07-.31-.18-.33-.39A1,1,0,0,1,594.38,171.33Z" transform="translate(-22 -60)"/><path class="cls-129" d="M651.21,188.82s-.08,0-.1,0,0-.09,0-.09.28,0,.38.09A.29.29,0,0,1,651.21,188.82Z" transform="translate(-22 -60)"/><path class="cls-119" d="M611.86,202.33c.26-.11.35,0,.33.24Z" transform="translate(-22 -60)"/><path class="cls-74" d="M674.46,200.56c-.05-.26,0-.31.3-.27Z" transform="translate(-22 -60)"/><path class="cls-74" d="M609.38,200.3c.29-.14.34,0,.3.26Z" transform="translate(-22 -60)"/><path class="cls-119" d="M602.15,192.43c.26,0,.36.07.24.33Z" transform="translate(-22 -60)"/><path class="cls-132" d="M631,199c-.09.12-.22.1-.34.1s-.12,0-.09-.06.09,0,.14-.07Z" transform="translate(-22 -60)"/><path class="cls-132" d="M630.34,198.87c-.09.12-.22.09-.35.09s-.12,0-.09-.06.09,0,.14-.06Z" transform="translate(-22 -60)"/><path class="cls-133" d="M662.7,117.67c.1-.15.21-.06.31,0s.06.1,0,.14Z" transform="translate(-22 -60)"/><path class="cls-132" d="M655.68,189c-.12.23-.26.14-.41,0Z" transform="translate(-22 -60)"/><path class="cls-132" d="M657.93,188.69s.12,0,.14.07-.05.06-.09.06-.26,0-.34-.1Z" transform="translate(-22 -60)"/><path class="cls-132" d="M654.78,189.14c-.12.23-.27.15-.41,0Z" transform="translate(-22 -60)"/><path class="cls-123" d="M652.9,188.71l-.34,0c.26-.08.42-.11.55,0Z" transform="translate(-22 -60)"/><path class="cls-132" d="M659.17,188.46s.12,0,.14.06,0,.06-.09.06-.25,0-.35-.09Z" transform="translate(-22 -60)"/><path class="cls-132" d="M652.29,212.14s.12,0,.14.06-.05.06-.09.06-.25,0-.35-.09Z" transform="translate(-22 -60)"/><path class="cls-123" d="M654,188.6s-.19,0-.08-.09a.32.32,0,0,1,.41.07Z" transform="translate(-22 -60)"/><path class="cls-132" d="M635.41,212.73c-.09.12-.22.1-.34.1s-.12,0-.09-.06.09,0,.14-.07Z" transform="translate(-22 -60)"/><path class="cls-134" d="M646.1,190.39c-.13-.18-.06-.28.14-.32Z" transform="translate(-22 -60)"/><path class="cls-132" d="M649,212.7s.12,0,.14.07-.05.06-.09.06-.25,0-.34-.1Z" transform="translate(-22 -60)"/><path class="cls-135" d="M683.79,191.41a.23.23,0,0,1-.23-.11.49.49,0,0,1,.21-.29Z" transform="translate(-22 -60)"/><path class="cls-136" d="M690.78,154.31l0,.34c-.09-.26-.11-.42,0-.56Z" transform="translate(-22 -60)"/><path class="cls-117" d="M691,155.56l0,.43c-.09-.25-.11-.4,0-.54A.23.23,0,0,1,691,155.56Z" transform="translate(-22 -60)"/><path class="cls-117" d="M691.11,156.35l0,.28c-.11-.22-.12-.36,0-.5Z" transform="translate(-22 -60)"/><path class="cls-133" d="M663,208.64c.07,0,.1.09,0,.14s-.21.15-.31,0Z" transform="translate(-22 -60)"/><path class="cls-123" d="M634.63,198.41s-.19,0-.08-.09a.32.32,0,0,1,.41.07Z" transform="translate(-22 -60)"/><path class="cls-137" d="M609.58,130.14a6.85,6.85,0,0,1,1.56-2.1,28.62,28.62,0,0,1,6.1-4.56,36.38,36.38,0,0,1,4.62-2.53,8,8,0,0,1,6-.44,4.12,4.12,0,0,1,2.89,3,2.88,2.88,0,0,1-.24,1.8,9.19,9.19,0,0,1-1.77,2.68,39.63,39.63,0,0,1-6.21,5.6,16.61,16.61,0,0,1-2.77,1.69,4.17,4.17,0,0,0-1.34.62,13.56,13.56,0,0,1-7.16,1.39,2.8,2.8,0,0,1-2.76-2.46c.06-.56,0-1.12,0-1.68a5.17,5.17,0,0,1,.55-1.93A5,5,0,0,0,609.58,130.14Z" transform="translate(-22 -60)"/><path class="cls-137" d="M609,138.71a5.76,5.76,0,0,1-2.11,3.88,4.36,4.36,0,0,1-1.89,1.05,1.73,1.73,0,0,1-2.3-2.05,5.68,5.68,0,0,1,3.91-4.64A1.68,1.68,0,0,1,609,138.71Z" transform="translate(-22 -60)"/><path class="cls-138" d="M608.48,133.12a2.91,2.91,0,0,1,0,1.68A3.06,3.06,0,0,1,608.48,133.12Z" transform="translate(-22 -60)"/><path class="cls-139" d="M618.4,135.88a1.91,1.91,0,0,1,1.34-.62A5.84,5.84,0,0,1,618.4,135.88Z" transform="translate(-22 -60)"/><path class="cls-140" d="M609.58,130.14a2.92,2.92,0,0,1-.47,1.09h-.05l0,0A2.57,2.57,0,0,1,609.58,130.14Z" transform="translate(-22 -60)"/><path class="cls-141" d="M631.13,194.68c-.62-.12-1.24-.22-1.86-.37a9.56,9.56,0,0,1-3.32-1.58,10.32,10.32,0,0,1-4.14-6.38c-.06-.27.06-.57-.15-.81a.47.47,0,0,1,0-.44,11.49,11.49,0,0,1,.65-4.45,10.37,10.37,0,0,1,5.88-5.95,16.72,16.72,0,0,1,2.29-.66.27.27,0,0,1,.32,0,15,15,0,0,1,4.07.32,10.31,10.31,0,0,1,6.88,6.15,18.44,18.44,0,0,1,.67,2.35.29.29,0,0,1,0,.32v2.39a.15.15,0,0,1,0,.21,12.46,12.46,0,0,1-1,3.12,10.41,10.41,0,0,1-7.19,5.58,10.33,10.33,0,0,0-1.52.21A4.8,4.8,0,0,1,631.13,194.68Z" transform="translate(-22 -60)"/><path class="cls-142" d="M631.13,194.68h1.58A2.32,2.32,0,0,1,631.13,194.68Z" transform="translate(-22 -60)"/><path class="cls-123" d="M642.6,183.75v1.1A2,2,0,0,1,642.6,183.75Z" transform="translate(-22 -60)"/><path class="cls-123" d="M632.62,169.71a.76.76,0,0,1,.56,0A.76.76,0,0,1,632.62,169.71Z" transform="translate(-22 -60)"/><path class="cls-143" d="M684.46,175.63a.6.6,0,0,1,.23-.45h0c.09.05.17.1.11.23h0c-.07.14-.13.3-.34.23Z" transform="translate(-22 -60)"/><path class="cls-102" d="M686,173c.1.1.25.22.12.36s-.18,0-.23-.13A.24.24,0,0,0,686,173Z" transform="translate(-22 -60)"/><path class="cls-123" d="M642.4,185.77l0-.21a.41.41,0,0,1,.06.46C642.38,186,642.42,185.85,642.4,185.77Z" transform="translate(-22 -60)"/><path class="cls-106" d="M630.79,174l-.32,0s-.08,0-.1,0,0-.09,0-.09S630.68,173.9,630.79,174Z" transform="translate(-22 -60)"/><path class="cls-123" d="M621.64,185.11l0,.44C621.46,185.41,621.52,185.26,621.64,185.11Z" transform="translate(-22 -60)"/><path class="cls-123" d="M642.42,183.17l0-.32s0-.19.09-.08A.32.32,0,0,1,642.42,183.17Z" transform="translate(-22 -60)"/><path class="cls-144" d="M685.25,176.08c-.28-.31-.15-.66-.09-1,.36.31.13.67.09,1Z" transform="translate(-22 -60)"/><path class="cls-145" d="M687.28,175.28v.12c-.08,0-.15.12-.23,0a.66.66,0,0,1,0-.56h0C687.22,174.94,687.42,175,687.28,175.28Z" transform="translate(-22 -60)"/><path class="cls-144" d="M686.67,175.31a.74.74,0,0,1,0-.74A.64.64,0,0,1,686.67,175.31Z" transform="translate(-22 -60)"/><path class="cls-145" d="M690.21,171.44c.11.13.4.16.21.42,0,.05-.15.11-.18.09C690.07,171.8,690.17,171.63,690.21,171.44Z" transform="translate(-22 -60)"/><path class="cls-146" d="M688.46,172.65c.18.17.12.3,0,.4s-.13,0-.14,0C688.19,172.85,688.4,172.79,688.46,172.65Z" transform="translate(-22 -60)"/><path class="cls-146" d="M687.73,172a.65.65,0,0,1,0,.11c0,.14.27.21.09.38,0,0-.11,0-.14,0-.21-.17-.12-.32,0-.45Z" transform="translate(-22 -60)"/><path class="cls-146" d="M687.22,173.07a.84.84,0,0,1,.11.21c0,.13-.08.2-.18.24s-.17,0-.14-.1A1.91,1.91,0,0,1,687.22,173.07Z" transform="translate(-22 -60)"/><path class="cls-124" d="M685.76,175.06c0,.15.16.3.07.46a.15.15,0,0,1-.13,0C685.6,175.37,685.73,175.22,685.76,175.06Z" transform="translate(-22 -60)"/><path class="cls-147" d="M684.46,175.63l.34-.23c.14.26-.05.35-.23.45h0Z" transform="translate(-22 -60)"/><path class="cls-147" d="M685.2,176.48s-.08.1-.11.1a.26.26,0,0,1-.23-.21s.06-.11.1-.11S685.15,176.36,685.2,176.48Z" transform="translate(-22 -60)"/><path class="cls-147" d="M690.21,171.46c-.12-.08-.27-.13-.26-.31s.09-.09.12-.08S690.33,171.26,690.21,171.46Z" transform="translate(-22 -60)"/><path class="cls-121" d="M686.72,173.49c.13.16.24.32.07.53-.24-.17,0-.37-.07-.53Z" transform="translate(-22 -60)"/><path class="cls-102" d="M690.27,170.34c0,.1-.06.17-.14.14a.15.15,0,0,1-.08-.12.71.71,0,0,1,.11-.18Z" transform="translate(-22 -60)"/><path class="cls-102" d="M688.86,172.47c-.07-.14-.09-.27.06-.38.15.16.15.29-.07.38Z" transform="translate(-22 -60)"/><path class="cls-102" d="M687.33,172.27a1.29,1.29,0,0,1,.11.22.11.11,0,0,1-.11.14.15.15,0,0,1-.1-.11A1,1,0,0,1,687.33,172.27Z" transform="translate(-22 -60)"/><path class="cls-102" d="M686.72,173.48c-.22-.09-.19-.22-.08-.38a.26.26,0,0,1,.07.38Z" transform="translate(-22 -60)"/><path class="cls-102" d="M687.06,174.39c-.07-.14-.09-.27.06-.38.14.16.15.29-.07.38Z" transform="translate(-22 -60)"/><path class="cls-102" d="M689.31,171.34c-.11-.15,0-.3,0-.45h0c.16.15.29.3,0,.45Z" transform="translate(-22 -60)"/><path class="cls-102" d="M687.06,174.84c-.29-.15-.16-.3,0-.45h0c0,.15.11.3,0,.45Z" transform="translate(-22 -60)"/><path class="cls-91" d="M689.68,172c0-.06-.08-.1-.09-.15a.1.1,0,0,1,.13-.12.14.14,0,0,1,.09.11S689.75,171.94,689.68,172Z" transform="translate(-22 -60)"/><path class="cls-91" d="M688.82,171.48c0,.05-.06.11-.09.13a.1.1,0,0,1-.14-.1s.06-.1.1-.1S688.76,171.45,688.82,171.48Z" transform="translate(-22 -60)"/><path class="cls-91" d="M684,176.64c.1,0,.21-.13.28,0a.1.1,0,0,1,0,.09c-.15.09-.19,0-.24-.13Z" transform="translate(-22 -60)"/><path class="cls-91" d="M688.44,171.72c.05,0,.11.06.13.09a.1.1,0,0,1-.1.14s-.1-.06-.1-.1S688.4,171.78,688.44,171.72Z" transform="translate(-22 -60)"/><path class="cls-91" d="M689.31,171.34c0,.1.13.21,0,.28a.1.1,0,0,1-.09,0c-.09-.15,0-.19.13-.24Z" transform="translate(-22 -60)"/><path class="cls-91" d="M688.52,174c.05-.09.1-.23.24-.13s0,.16,0,.25h0c-.08,0-.14,0-.2,0Z" transform="translate(-22 -60)"/><path class="cls-91" d="M688.3,174.27c0-.08-.11-.16,0-.25s.16,0,.24,0h0c0,.18,0,.26-.23.23Z" transform="translate(-22 -60)"/><path class="cls-91" d="M688.86,172.47c0,.1.13.21,0,.28a.1.1,0,0,1-.09,0c-.09-.15,0-.19.13-.24Z" transform="translate(-22 -60)"/><path class="cls-91" d="M689.95,172.5c0,.05-.06.11-.09.13a.1.1,0,0,1-.14-.1s.06-.1.1-.1S689.89,172.47,689.95,172.5Z" transform="translate(-22 -60)"/><path class="cls-91" d="M684.8,175.4l-.11-.23c.08,0,.18-.12.25,0S684.89,175.35,684.8,175.4Z" transform="translate(-22 -60)"/><path class="cls-91" d="M684.57,175.85c0,.1.13.21,0,.28a.1.1,0,0,1-.09,0c-.09-.15,0-.19.13-.24Z" transform="translate(-22 -60)"/><path class="cls-91" d="M685.25,176.08c.1,0,.21-.13.28,0a.1.1,0,0,1,0,.09c-.15.09-.19,0-.24-.13Z" transform="translate(-22 -60)"/><path class="cls-148" d="M687.17,186.34c-.27,0-.45,0-.34-.35l.34-.41Z" transform="translate(-22 -60)"/><path class="cls-143" d="M688.3,174.27a.38.38,0,0,0,.23-.23l.23.11C688.64,174.37,688.51,174.51,688.3,174.27Z" transform="translate(-22 -60)"/><path class="cls-74" d="M622.24,183.41a9.59,9.59,0,0,1,1.89-4.87,9,9,0,0,1,2.11-2.1,9.67,9.67,0,0,1,2.35-1.23c.73-.25,1.47-.38,2.2-.59a1.8,1.8,0,0,0,.74,0c0,.06-.14,0-.23-.06a7.55,7.55,0,0,1,3.13.25,8.44,8.44,0,0,1,2.46,1,9.5,9.5,0,0,1,4.81,6.68.62.62,0,0,0,0,.32s0,.08,0,.1,0-.1,0-.13a.41.41,0,0,1,.08.38c-.1.23,0,.47,0,.7,0,0,0-.08.09-.07a7,7,0,0,1-.31,3.08,9.17,9.17,0,0,1-2.19,4,9.79,9.79,0,0,1-6.88,3.21,2.69,2.69,0,0,0-1,0A.58.58,0,0,1,631,194c0-.07.11-.09.17-.06a1.08,1.08,0,0,0-.58,0,9.36,9.36,0,0,1-4.12-1.62,9.47,9.47,0,0,1-2.86-3.09,9.64,9.64,0,0,1-1.35-4.07A8.84,8.84,0,0,0,622.24,183.41Z" transform="translate(-22 -60)"/><path class="cls-132" d="M622.24,183.41a3.63,3.63,0,0,1,0,1.8A6,6,0,0,1,622.24,183.41Z" transform="translate(-22 -60)"/><path class="cls-132" d="M631.47,194.1a1.2,1.2,0,0,1,1,0Z" transform="translate(-22 -60)"/><path class="cls-149" d="M641.87,183.81s-.07.24-.1.1a.79.79,0,0,1,.06-.73Z" transform="translate(-22 -60)"/><path class="cls-149" d="M631.31,174.59l.26,0c-.26.07-.52.18-.77,0Z" transform="translate(-22 -60)"/><path class="cls-132" d="M630.57,194c.14-.16.33-.09.51-.09s.06.06,0,.09l-.1,0Z" transform="translate(-22 -60)"/><path class="cls-132" d="M641.75,182.81s0,.12-.06.14-.06-.05-.06-.09,0-.25.09-.35Z" transform="translate(-22 -60)"/><path class="cls-141" d="M638.45,186.76a7.08,7.08,0,0,1-2.09,3.75,7.66,7.66,0,0,1-2.92,1.59c-.37.12-.76,0-1.1.19a1.92,1.92,0,0,1-1.16,0,7.92,7.92,0,0,1-3.33-1.2,6.54,6.54,0,0,1-2.2-8.26,6.39,6.39,0,0,1,6-3.72h1c.14,0,.29-.09.41,0a7.22,7.22,0,0,1,4.1,2.51,6.34,6.34,0,0,1,1.22,2.6c0,.11,0,.23.1.31s.07.28,0,.42v1.36C638.52,186.49,638.56,186.63,638.45,186.76Z" transform="translate(-22 -60)"/><path class="cls-150" d="M631.17,192.29h1.16c-.41.31-.87.06-1.3.11A.5.5,0,0,1,631.17,192.29Z" transform="translate(-22 -60)"/><path class="cls-132" d="M624.84,186.1v-1h0v1Z" transform="translate(-22 -60)"/><path class="cls-132" d="M638.64,185.27a1.32,1.32,0,0,1,0,.78A1.37,1.37,0,0,1,638.64,185.27Z" transform="translate(-22 -60)"/><path class="cls-132" d="M638.48,185l0-.42a.38.38,0,0,1,0-.1c0-.05.09-.06.09,0S638.63,184.84,638.48,185Z" transform="translate(-22 -60)"/><path class="cls-132" d="M638.45,186.76l0-.42c.15.15.08.33.09.5s-.05.07-.09,0A.38.38,0,0,1,638.45,186.76Z" transform="translate(-22 -60)"/><path class="cls-132" d="M633,179.14l-.41,0C632.75,179,632.9,178.9,633,179.14Z" transform="translate(-22 -60)"/><path class="cls-74" d="M632.42,191.66a5.66,5.66,0,0,1-4.1-1,5.93,5.93,0,0,1-2.76-4.43,6.15,6.15,0,0,1,3.61-6.06,6,6,0,0,1,3.39-.53,6.54,6.54,0,0,1,3.46,1.63,5.71,5.71,0,0,1,1.86,3.68,4.68,4.68,0,0,0,0,1.35,6,6,0,0,1-5.17,5.29.83.83,0,0,0-.45,0A.14.14,0,0,1,632.42,191.66Z" transform="translate(-22 -60)"/><path class="cls-151" d="M637.88,186.34a2,2,0,0,1,0-1.35A3.19,3.19,0,0,1,637.88,186.34Z" transform="translate(-22 -60)"/><path class="cls-152" d="M632.42,191.66l-.26,0c.19-.08.38-.16.55,0Z" transform="translate(-22 -60)"/><path class="cls-153" d="M634.75,182a4.57,4.57,0,0,0-2.61-1.22,7,7,0,0,1-1.35,0,4.26,4.26,0,0,0-2,.75c-.24.17-.5.26-.66,0s.1-.38.29-.5l.6-.39c.07-.11.15-.19.3-.14a7.94,7.94,0,0,1,2.94-.35c.11,0,.21-.08.3,0a5.57,5.57,0,0,1,2.35,1.07,5.43,5.43,0,0,1,1.83,2.63c.12.41.2.83.29,1.25a.13.13,0,0,1,0,.12,11.23,11.23,0,0,1-.16,1.95c-.07.2-.05.52-.35.45s-.24-.37-.19-.62a3.17,3.17,0,0,0,.09-1.7c-.13-.13-.07-.27,0-.41a4.69,4.69,0,0,0-1.21-2.49A1,1,0,0,1,634.75,182Z" transform="translate(-22 -60)"/><path class="cls-154" d="M635.3,190c-.13.05-.09-.08-.13-.11a.26.26,0,0,1,0-.4,10.3,10.3,0,0,0,.85-1.24.24.24,0,0,1,.28-.11.25.25,0,0,1,.22.22A3,3,0,0,1,635.3,190Z" transform="translate(-22 -60)"/><path class="cls-132" d="M637.05,185.33l0-.12c.16-.07.19,0,.18.15,0,.39,0,.78,0,1.18C637,186.15,637.22,185.72,637.05,185.33Z" transform="translate(-22 -60)"/><path class="cls-155" d="M630.8,180.83a2.87,2.87,0,0,1,1.35,0A2,2,0,0,1,630.8,180.83Z" transform="translate(-22 -60)"/><path class="cls-156" d="M634.75,182a1,1,0,0,1,.45.45A.39.39,0,0,1,634.75,182Z" transform="translate(-22 -60)"/><path class="cls-132" d="M636.41,185l0,.41-.1.41C636.32,185.43,636.25,185.2,636.41,185Z" transform="translate(-22 -60)"/><path class="cls-157" d="M629.33,180.58l-.3.14c-.07,0-.1-.09,0-.14S629.22,180.43,629.33,180.58Z" transform="translate(-22 -60)"/><path class="cls-132" d="M632.56,180.27l-.3,0c.09-.12.22-.09.35-.09s.12,0,.09.06S632.61,180.25,632.56,180.27Z" transform="translate(-22 -60)"/><path class="cls-158" d="M1030.06,196l-1.06,0-3.61,0,0,0-.05,0c-1-.19-1.93.08-2.88-.15l-.15,0a1.11,1.11,0,0,0-.62-.15,9.67,9.67,0,0,1-2.58-.39c-.61-.3-1.36-.24-1.89-.75,0-.18.22-.39-.09-.55-.11-.06,0-.21.14-.26a21.33,21.33,0,0,1,3.43.75,13.72,13.72,0,0,0,3.86.55c.81,0,1.6.17,2.42.16a42.9,42.9,0,0,0,6.86-.53,30.49,30.49,0,0,0,5-1.38l2.84-1a92,92,0,0,0,13-8.34q2.46-1.89,4.88-3.82a1.68,1.68,0,0,1,.83-.42c.26,0,.48.06.53.37-.11.55-.65.73-.95,1.12-.87.65-1.66,1.39-2.54,2a3.84,3.84,0,0,0-.66.53q-1.87,1.4-3.73,2.81c-.84.57-1.69,1.13-2.51,1.74-.63.42-1.27.82-1.91,1.23-.34.2-.66.43-1,.66-1.19.67-2.34,1.41-3.56,2a9,9,0,0,0-1,.55c-.77.36-1.58.59-2.37.9s-1.79.64-2.67,1a9.27,9.27,0,0,1-3.31.76.64.64,0,0,0-.63.15c-.31.19-.68,0-1,.14A19.3,19.3,0,0,0,1030.06,196Z" transform="translate(-22 -60)"/><path class="cls-159" d="M1030.38,96.15l1.14-.63c.08,0,.15,0,.18-.08a5,5,0,0,1,1.37-.24c0,.36.33.37.53.52a.24.24,0,0,1-.17.24,16.47,16.47,0,0,1-2.46.64A.93.93,0,0,1,1030.38,96.15Z" transform="translate(-22 -60)"/><path class="cls-159" d="M1038.24,95.39c.4.28.95.26,1.33.6-.22.31-.48.21-.76.1a12.46,12.46,0,0,0-3.15-.64c-.27,0-.65.07-.68-.4a16,16,0,0,1,3.14.33A.11.11,0,0,0,1038.24,95.39Z" transform="translate(-22 -60)"/><path class="cls-160" d="M1035,95c.4.5,1.08.32,1.51.35a8.26,8.26,0,0,1,2.64.63c.12.05.3,0,.45,0,.58.14,1,.61,1.53.81.32.4.8.68,1,1.21a.65.65,0,0,0,.34.41c.17.08.56,0,.45.27s-.2.63-.62.68a49.59,49.59,0,0,1-6.26.14c-.2,0-.48,0-.49-.27s.26-.32.45-.35a11.13,11.13,0,0,1,3,0c.33,0,.69.26,1,0s.82-.26,1.32-.4a5.24,5.24,0,0,0-2.54-1.85,5.71,5.71,0,0,1-.93-.39,1,1,0,0,0-.56-.22l-.19-.07c-.3-.12-.62,0-.92-.05l-.22,0a7.63,7.63,0,0,0-2,0,.43.43,0,0,1-.34-.1c-.38,0-.64,0-.52-.51h0c.57-.18,1.19.14,1.76-.15Z" transform="translate(-22 -60)"/><path class="cls-159" d="M1034.82,95c-.18.43-.56.16-.83.21a3.66,3.66,0,0,1-.92-.06l.19-.12C1033.77,95.15,1034.29,94.9,1034.82,95Z" transform="translate(-22 -60)"/><path class="cls-4" d="M1060.25,179.86c-1.54,1-2.91,2.27-4.38,3.39a94.92,94.92,0,0,1-12.43,8.25l-1.72.93a74.39,74.39,0,0,1-9.36,1.34,32.78,32.78,0,0,1-11.92-1.37q-5.84-1.53-11.76-2.74c-1.41-.29-2.81-.62-4.23-.81a.64.64,0,0,1-.42-.2c-.05-.33.22-.31.4-.33a25.13,25.13,0,0,0,6.59-2.19,54.91,54.91,0,0,0,8.93-4.86,25.65,25.65,0,0,0,6.11-5.09,3.1,3.1,0,0,0,.69-1.87,14.58,14.58,0,0,0,.11-2.81,6.79,6.79,0,0,0-1.72-3.45c-.19-.22-.52-.4-.36-.79.41-.17.77.05,1.13.19,5.71,2.15,11.28,4.61,16.9,7,3.47,1.47,7,2.85,10.58,4a25.22,25.22,0,0,0,4.73.69,9.34,9.34,0,0,0,1.9.08h.38c.25,0,.52,0,.66.28C1060.95,179.91,1060.5,179.68,1060.25,179.86Z" transform="translate(-22 -60)"/><path class="cls-161" d="M1004,188.5c1,.2,2,.4,3,.59,3.48.65,6.92,1.5,10.37,2.29,2.69.62,5.32,1.47,8.06,1.91a28,28,0,0,0,8.25.12c2.29-.31,4.6-.56,6.9-.84l1.16-.15a21.41,21.41,0,0,1-2.82.94,22.8,22.8,0,0,1-4.58.93,33.19,33.19,0,0,1-10.08-.3,37.61,37.61,0,0,1-4.39-1.1,35.15,35.15,0,0,0-3.74-.84c-1.91-.42-3.82-.85-5.71-1.37-.91-.25-1.86-.31-2.78-.49a7.61,7.61,0,0,1-1.67-.41,1.66,1.66,0,0,0-.77-.12c-.53,0-.58.13-.55.74,0,.39-.37.36-.61.46a4.09,4.09,0,0,1-1.47-.16c-2.73-.54-5.47-1-8.23-1.4-1.53-.17-3-.38-4.57-.55-.78-.09-1.56-.14-2.33-.16-1.33,0-2.65-.24-4-.19-3.73-.07-7.45.06-11.17.34l-.26.07a13.39,13.39,0,0,0-1.53.13,1.92,1.92,0,0,1-.37.06,4.57,4.57,0,0,0-1.23.11,2,2,0,0,1-.38.06,6.62,6.62,0,0,1-2.72,0c-1.32-.5-1.73-1.36-1.13-2.36.14-.23.28-.46.61-.37,1.47.53,3,.2,4.43.06,3.36-.31,6.73-.41,10.1-.45a128.61,128.61,0,0,1,23.26,2.07A1.53,1.53,0,0,1,1004,188.5Z" transform="translate(-22 -60)"/><path class="cls-162" d="M1004,190.7c.26-.12.11-.21.19-.35.18-.29-.09-.87.49-.9a2.88,2.88,0,0,1,1.24.08c1.73.69,3.62.58,5.38,1.15.73.24,1.5.37,2.25.55,1.25.29,2.5.56,3.74.88a14.84,14.84,0,0,1,3.24.85,12.09,12.09,0,0,0,2.12.42,26.36,26.36,0,0,0,8.2.9,36.21,36.21,0,0,0,6.87-.77,11.46,11.46,0,0,1,1.15-.16,13.72,13.72,0,0,1-3.16,1.06,29.83,29.83,0,0,1-8.87,1,20.31,20.31,0,0,1-6.48-.73,34.13,34.13,0,0,0-3.32-.81c-.26.22-.54.1-.82,0-3.83-.93-7.64-1.91-11.49-2.75C1004.5,191.07,1004.1,191.15,1004,190.7Z" transform="translate(-22 -60)"/><path class="cls-158" d="M1060.25,179.86a1.84,1.84,0,0,1,.77-.33l.09,0s.09.05.12,0,0-.06,0-.09c-.22-.27-.49-.22-.77-.14h-.34c-.67-.16-1.37.06-2-.12a22.07,22.07,0,0,1-6.87-1.33c-7.07-2.54-13.89-5.71-20.84-8.53-1.83-.74-3.66-1.52-5.56-2.08a3.39,3.39,0,0,1-1.65-.38,69,69,0,0,0-12.43-3,2.48,2.48,0,0,1-.68-.19,11.37,11.37,0,0,0-3.49-.28,2.45,2.45,0,0,1-.52-.06c-1.58-.17-3.16,0-4.74-.1a1.62,1.62,0,0,1-.7-.07.32.32,0,0,1-.2-.34c.54-.56,1.21-.25,1.83-.27a1.65,1.65,0,0,0,1.14,0,28.47,28.47,0,0,1,3.36,0c.27.57.66,0,1,.1h.35c1.69,0,1.69,0,1.63-1.68,0-.49,0-1,0-1.48,0-.34,0-.7.5-.75a.65.65,0,0,1,.29.41c-.09,1-.07,1.94-.07,2.92,0,.31,0,.64.4.72a48.78,48.78,0,0,1,9.42,2,161.12,161.12,0,0,1,18.57,7.13l.94.38c5.12,2.14,10.18,4.43,15.58,5.83a22.51,22.51,0,0,0,5.51.4,11.16,11.16,0,0,1,1.95.05.57.57,0,0,1,.21.12.28.28,0,0,1-.23.4c-.54.08-.53.42-.48.82-.49.15-.94.49-1.49.26C1060.73,179.89,1060.51,179.85,1060.25,179.86Z" transform="translate(-22 -60)"/><path class="cls-163" d="M1004,190.7l4.35,1.06,6.95,1.68,1.74.4c.06.22.56.33.14.65l-1.24-.2a13.6,13.6,0,0,0-2.35-.62,28.25,28.25,0,0,0-3.93-.95h0a14.87,14.87,0,0,1-2.89-.6,11.2,11.2,0,0,0-3.62-.74c-1-.07-2-.37-3.07-.48-.68-.13-1.35-.28-2-.37-1.07-.27-2.19-.26-3.25-.61a2.09,2.09,0,0,1-.59-.46.29.29,0,0,1,0-.34c1.91.15,3.79.56,5.68.86C1001.34,190.2,1002.66,190.61,1004,190.7Z" transform="translate(-22 -60)"/><path class="cls-160" d="M1025.87,97.26l3-.28c.22,0,.48.08.63-.19.35-.16.52-.56.92-.64a.55.55,0,0,1,.53.38c0,.25-.18.35-.32.49-.54.52-.5.63.23.89.46.16,1,.13,1.37.48a.41.41,0,0,1,0,.22.35.35,0,0,1-.13.18,1.34,1.34,0,0,1-1,.13c-.24-.06-.5-.14-.71.09-1.68,1.19-3.49,2.17-5.12,3.44-1,.78-2,1.59-3,2.39a2.35,2.35,0,0,1-1,.59c-.27,0-.48-.07-.53-.38a.56.56,0,0,1,.29-.48,1.26,1.26,0,0,0,.65-.53,23.49,23.49,0,0,1,3.55-2.92c1.07-.79,2.19-1.5,3.31-2.21.69-.44.7-.43.15-1.06-.7-.32-1.39,0-2.08,0a5.88,5.88,0,0,1-.69.06c-.24,0-.5-.1-.51-.38S1025.76,97.45,1025.87,97.26Z" transform="translate(-22 -60)"/><path class="cls-2" d="M1032.16,98.49l-1.84-.57c-.58-.18-.64-.45-.14-.82l.73-.57a20.19,20.19,0,0,1,2.68-.82l.29,0a6.37,6.37,0,0,1,2.2,0,.17.17,0,0,0,.14,0c.29.21.67-.1,1,.16h0c.15.12.36.05.5.18a1.81,1.81,0,0,1,.52.46,1.92,1.92,0,0,1,.16,1.86c-.24.59-.8.48-1.29.47-.75,0-1.5.09-2.26.07A5.68,5.68,0,0,1,1032.16,98.49Z" transform="translate(-22 -60)"/><path class="cls-164" d="M1050.52,99.16l2.81.62,3.64,1.09a15.1,15.1,0,0,0,2.29.81,5.64,5.64,0,0,0,.77.16c1,.38,1.94.88,2.93,1.26s1.88,1,2.83,1.42c1.23.62,2.39,1.35,3.58,2l.55.34c.49.36,1,.62,1.53,1s.76.53,1.15.77c1,.65,1.95,1.35,2.92,2a5.33,5.33,0,0,0,.69.51,7.16,7.16,0,0,1,2.52,2.82c.07.13.14.25.22.37.56,1,1.15,2,1.7,3s.94,2,1.4,2.94a2,2,0,0,1,.1.21c.41,1.05.81,2.11,1.22,3.17s.63,2.11,1,3.16q.82,3.27,1.38,6.59c.15.79.21,1.58.35,2.37a13.58,13.58,0,0,1,.17,2.51c.09,2,.3,4,.44,6.07.1,1.38.11,2.76.18,4.14.09,1.8,0,3.6,0,5.4a1.83,1.83,0,0,1-.12.92c-.34-.06-.37-.13-.31-.69,0,0,0,0,.06,0h0c-.25.28.28.81-.32,1a1.47,1.47,0,0,1-.19-1c0-1.23,0-2.46,0-3.69a106.38,106.38,0,0,0-1.79-19.57,60.94,60.94,0,0,0-2.29-8.23,36.91,36.91,0,0,0-4.82-9.31,4.92,4.92,0,0,0-1.15-1.06,80.11,80.11,0,0,0-11.75-7.37,50.84,50.84,0,0,0-17.78-5.37c-1-.1-2-.09-3.1-.2,1.65,1.14,3.19,2.21,4.73,3.27a47,47,0,0,1,8.08,6.82,29.61,29.61,0,0,1,5.67,9,30.75,30.75,0,0,1,2.17,8.59c0,.2,0,.47-.28.47s-.24-.24-.28-.42a4.63,4.63,0,0,1,0-.9c-.08.19.13.51-.23.62-.42-.1-.36-.47-.42-.75a41.48,41.48,0,0,0-1.61-6.12,28.66,28.66,0,0,0-7.62-11.54,65.6,65.6,0,0,0-8.16-6.24c-.93-.63-1.88-1.23-2.78-1.91a2.17,2.17,0,0,0-1.46-.46c-.91,0-1.83.08-2.74.08a23.09,23.09,0,0,1-8-.89c.08-.26.25-.27.48-.19a2.51,2.51,0,0,0,1.4,0,7.78,7.78,0,0,0,2.34.39,8.38,8.38,0,0,1-2.34-.39v-.19l2.63.2a14.9,14.9,0,0,0,3.48-.05,2.18,2.18,0,0,1,1.73.19l.42.31c-1.67,0-3.26-.45-4.8.12,2.13-.14,4.28.36,6.4-.2.18,0,.65.36.32-.29-.06-.11.33.18.44-.13-.24-.2-.78-.09-.71-.63.44.64,1.09.37,1.67.38Q1047.14,98.63,1050.52,99.16Z" transform="translate(-22 -60)"/><path class="cls-165" d="M1040,98.83h-4.3a1.42,1.42,0,0,1-.91-.14h2.26c1.13,0,1.6-.67,1.17-1.71a1.91,1.91,0,0,0-.74-1,.21.21,0,0,1,.32,0,10.79,10.79,0,0,1,2.66,1.25,3,3,0,0,1,1.16,1.37Z" transform="translate(-22 -60)"/><path class="cls-159" d="M1036.08,95.7h-2.2A3.24,3.24,0,0,1,1036.08,95.7Z" transform="translate(-22 -60)"/><path class="cls-159" d="M1037.17,95.86a1.69,1.69,0,0,1-1-.16C1036.51,95.89,1036.94,95.26,1037.17,95.86Z" transform="translate(-22 -60)"/><path class="cls-159" d="M1037.8,96h-.32l-.32-.16C1037.39,95.85,1037.66,95.62,1037.8,96Z" transform="translate(-22 -60)"/><path class="cls-2" d="M1010,163.54a71.14,71.14,0,0,1,9,1.89,59.8,59.8,0,0,1,5.73,1.87,11.83,11.83,0,0,1,1.82,2.52,6,6,0,0,1,.43,3.66c-.11.52,0,1-.14,1.55a6.52,6.52,0,0,1-2.39,3.11,50.71,50.71,0,0,1-9.16,6.14,58.9,58.9,0,0,1-5.92,2.79c-1.25.5-2.55.87-3.82,1.32a5.85,5.85,0,0,1-1.55.12c-2.52-.38-5-.8-7.57-1.13-2.22-.29-4.45-.53-6.67-.74a121.66,121.66,0,0,0-14.08-.3q-3.79.09-7.56.56a11.53,11.53,0,0,1-2,0,1.25,1.25,0,0,1-1.1-.47c-.07-.29.17-.42.34-.57.86-.77,1.66-1.6,2.46-2.42,4.36-4.44,8.93-8.68,13.3-13.11,1-1,2-1.84,2.92-2.84a.7.7,0,0,0,.2-.41,19,19,0,0,0-.1-3.86c-.06-2.3-.09-4.6,0-6.9a7.14,7.14,0,0,0,.11-2.09c0-1.37,0-2.75,0-4.12,0-.38,0-.76,0-1.15a1.49,1.49,0,0,1,0-.28,23.93,23.93,0,0,0,.09-3.19,3.31,3.31,0,0,1,.06-.7,24.15,24.15,0,0,0,.1-3.19,2,2,0,0,1,.06-.42c.27-.49-.17-1.16.4-1.57.36.22.28.58.29.9,0,1.06,0,2.11,0,3.17,0,5.46,0,10.92,0,16.38,0,1.93.26,3.85.18,5.78,0,.63.3.62.74.45,1.34-.51,2.7-1,4.09-1.36a53.2,53.2,0,0,1,7.7-1.62c1.16-.1,2.33-.11,3.5-.22,1.23.05,2.46,0,3.69,0a1.56,1.56,0,0,1,.77.07h.46c1,.07,1.93.1,2.88.22C1009.62,163.47,1009.83,163.41,1010,163.54Z" transform="translate(-22 -60)"/><path class="cls-166" d="M1058,179.25a6.13,6.13,0,0,1,2,.12A5.43,5.43,0,0,1,1058,179.25Z" transform="translate(-22 -60)"/><path class="cls-166" d="M1060.43,179.37c.36-.22.69-.22.93.18a.22.22,0,0,1-.31,0l0,0C1060.87,179.32,1060.62,179.43,1060.43,179.37Z" transform="translate(-22 -60)"/><path class="cls-167" d="M984.09,167.76c-2.06,2-4.11,4.09-6.18,6.12l-12.82,12.58c-.85,1-.76,2,.63,2.51.58.38,1.32.1,1.91.44a.18.18,0,0,1,0,.21,3.37,3.37,0,0,1-1.53.11l-.84-.27c-1.32-.7-1.55-1.2-1.25-2.68a16.57,16.57,0,0,1,1.92-2.19c.16-.63.77-.91,1.13-1.38a19.24,19.24,0,0,0,1.87-1.71c.43-.41.85-.84,1.27-1.27.63-.62,1.25-1.25,1.87-1.87.43-.42.85-.84,1.27-1.27a17.4,17.4,0,0,1,1.87-1.72c.49-.45,1-.94,1.42-1.41s1.15-1.14,1.72-1.72,1-.94,1.42-1.42a19.68,19.68,0,0,1,2-1.88c.44-.4.85-.84,1.27-1.26.35-.26.54-.69.95-.88C984.51,167.08,984.37,167.41,984.09,167.76Z" transform="translate(-22 -60)"/><path class="cls-168" d="M994.3,189.13v.32c-.35.32-.74,0-1.1.08a2,2,0,0,0-1-.09c-1.38,0-2.71-.39-4.08-.47a17,17,0,0,0-3.49-.13,1.64,1.64,0,0,1-.92-.15.51.51,0,0,1-.26-.26.25.25,0,0,1,.06-.23c2.75.11,5.51.23,8.24.6Z" transform="translate(-22 -60)"/><path class="cls-169" d="M983.47,188.19v.15c-.3.29-.68.2-1,.22a38,38,0,0,0-3.86.09c-.59.29-1.26.15-1.87.33a5.89,5.89,0,0,1-1.2,0c-.89-.08-1.78.1-2.66,0-.26-.15-.64,0-.83-.32a7.69,7.69,0,0,1,2.43-.28C977.44,188.13,980.45,188.16,983.47,188.19Z" transform="translate(-22 -60)"/><path class="cls-169" d="M968.55,189a.54.54,0,0,1-.31.31.65.65,0,0,1-.63.16,3.52,3.52,0,0,1-1.88-.47A8.68,8.68,0,0,0,968.55,189Z" transform="translate(-22 -60)"/><path class="cls-169" d="M972,188.66c-.5.33-1,.09-1.57.16C970.93,188.5,971.48,188.73,972,188.66Z" transform="translate(-22 -60)"/><path class="cls-169" d="M970.12,188.82c-.39.31-.84.09-1.26.16C969.25,188.67,969.7,188.88,970.12,188.82Z" transform="translate(-22 -60)"/><path class="cls-132" d="M1030.27,98.85a24.22,24.22,0,0,1,2.84.46,49.58,49.58,0,0,0,8,.13,1.43,1.43,0,0,1,1,.14c4,2.77,8.08,5.32,11.61,8.65a29.15,29.15,0,0,1,7.34,10.88c.07.19.12.4.18.6a8.88,8.88,0,0,1-.27,3.09c-.72,5.47-1.37,10.95-2.34,16.38A73.37,73.37,0,0,1,1053.8,156a36.52,36.52,0,0,1-12.94,16,1.89,1.89,0,0,1-1.19.52l-7.29-3a94.75,94.75,0,0,0-18.59-6,17.15,17.15,0,0,0-2.94-.42c-.5,0-.64-.26-.62-.74,0-.91,0-1.81.12-2.72s-.14-1.54-.12-2.32a8.63,8.63,0,0,1,.06-1.32,4,4,0,0,0,.13-1.08c0-.78.21-1,1-1s1.77.11,2.66.18c3.1.25,6.18.63,9.27,1,.25,0,.56.18.73-.08s0-.5-.16-.72a4.13,4.13,0,0,0-1.77-1.73,11.66,11.66,0,0,0-5.28-1.31c-1.83-.07-3.64-.28-5.47-.34-.59,0-.83-.34-.82-.91s0-1.31,0-2a9,9,0,0,1,.06-1.47,2.5,2.5,0,0,0,.12-1.08,2.33,2.33,0,0,1,.93-2.19c.55-.48,1.1-1,1.7-1.38,1.43-1,3.72-1.22,4.88,1.13.1.21.23.41.32.62a1.62,1.62,0,0,0-.08-.93,21.88,21.88,0,0,0-1.36-4.64,5.84,5.84,0,0,0-2.13-2.64,4,4,0,0,0-2.74-.72c-1.16.1-1.18.06-1.21-1.09,0-.13,0-.26,0-.39.2-2.83.25-5.67.33-8.5a15,15,0,0,0,.19-1.68,4.82,4.82,0,0,0,.17-.91,1.43,1.43,0,0,1,.05-.21,3.55,3.55,0,0,0,.14-.72,1.64,1.64,0,0,1,.05-.21,8.06,8.06,0,0,0,.2-1.31,13,13,0,0,1,1.22-3.45,6.92,6.92,0,0,0,.32-.88,9.06,9.06,0,0,1,1.63-3.19,52.27,52.27,0,0,1,5-6.2,2.87,2.87,0,0,1,.94-.67A76.66,76.66,0,0,1,1030.27,98.85Z" transform="translate(-22 -60)"/><path class="cls-170" d="M1039.67,172.49a32.42,32.42,0,0,0,7.4-6.23A39.66,39.66,0,0,0,1054,155a80.2,80.2,0,0,0,4.73-17.87c.67-4.06,1.19-8.13,1.72-12.21.22-1.73.51-3.45.77-5.17a31.6,31.6,0,0,1,1.72,6.41c0,.18.09.35.14.52a6.72,6.72,0,0,1,.56,2.8q.32,3.35.32,6.72,0,13.21,0,26.41a3.8,3.8,0,0,0,.11,1.24,23.75,23.75,0,0,1,.05,2.72c0,2.19,0,4.38,0,6.57,0,1.57,0,3.14,0,4.71,0,.9-.22,1-1.1.93-1.48-.15-3,0-4.46-.05a23.58,23.58,0,0,1-3.45-.42C1049.71,176.95,1044.71,174.67,1039.67,172.49Z" transform="translate(-22 -60)"/><path class="cls-171" d="M998.06,163.55c-2.09.39-4.19.71-6.24,1.26l-1.28.32c-.83-.41.07-.52.13-.78a4,4,0,0,1,1.75-.54,6.31,6.31,0,0,0,2.15-.49,4.59,4.59,0,0,1,1.84-.31,18.35,18.35,0,0,0,2.3-.24,2.38,2.38,0,0,1,1.72.15l.16.16c0,.36-.29.22-.46.23A17.61,17.61,0,0,0,998.06,163.55Z" transform="translate(-22 -60)"/><path class="cls-172" d="M1010.5,155.89c-.05,2.13-.09,4.26-.18,6.39,0,.45.12.66.53.76-.49.1-.72-.06-.7-.6a27,27,0,0,1,.13-3.33,6.92,6.92,0,0,1,0-1.4c-.11.33.09.74-.1,1.12-.33.15-.31.44-.31.73,0,1,0,1.91,0,2.86,0,.47-.19.55-.52.55s-.93,0-1.39-.06c0-.18.1-.24.23-.3,1.18-.2,1.23-.27,1.26-1.51a24.23,24.23,0,0,1,.23-4.84,5.09,5.09,0,0,0,.1-1.39,2.09,2.09,0,0,1,.08-.69.37.37,0,0,1,.41-.28c.23,0,.29.19.27.39A10.3,10.3,0,0,1,1010.5,155.89Z" transform="translate(-22 -60)"/><path class="cls-166" d="M1055.07,178.27a55.29,55.29,0,0,0,8,.38c.66,0,.76-.2.75-.78,0-1.59,0-3.18,0-4.76a.18.18,0,0,1,.25.07,14.59,14.59,0,0,1,.13,2.89c0,.75,0,1.51,0,2.26a.9.9,0,0,1-.11.39.85.85,0,0,1-1.2.06c-1.61,0-3.23,0-4.84,0A8.7,8.7,0,0,1,1055.07,178.27Z" transform="translate(-22 -60)"/><path class="cls-173" d="M1008.17,162.73l-.2.17h-.33c-.24-.18-.54,0-.78-.14h-3.6a1.33,1.33,0,0,1-.94,0c-.63.07-1.28-.16-1.89.15-1.39-.13-2.75.37-4.14.29.14-.37.49-.36.78-.41a36.3,36.3,0,0,1,4.28-.44c1.93-.08,3.86-.07,5.79,0C1007.52,162.37,1008,162.26,1008.17,162.73Z" transform="translate(-22 -60)"/><path class="cls-174" d="M1062.89,179.85l-.59,0c-.24-.15-.6-.2-.55-.68.45.21.78-.17,1.19-.21.09.09.15.22.27.29a.73.73,0,0,1,.24.18.28.28,0,0,1,0,.2A3,3,0,0,1,1062.89,179.85Z" transform="translate(-22 -60)"/><path class="cls-171" d="M1006.08,163.22h-4.54c-.18.08-.34.14-.33-.16A29.21,29.21,0,0,1,1006.08,163.22Z" transform="translate(-22 -60)"/><path class="cls-173" d="M1001.21,163.06a.37.37,0,0,0,.33.16,26.26,26.26,0,0,1-3.48.32,4.79,4.79,0,0,1,1.71-.33c.27,0,.58.1.81-.15Z" transform="translate(-22 -60)"/><path class="cls-171" d="M1010,163.54a25.3,25.3,0,0,1-3.47-.32c1.07-.23,2.11.2,3.17.11C1009.8,163.33,1009.91,163.47,1010,163.54Z" transform="translate(-22 -60)"/><path class="cls-175" d="M1063.08,179.39c-.25-.09-.28-.26-.16-.47q0-.07,0-.14l1.1,0c-.12.34.35.16.35.4a.22.22,0,0,1-.11.17C1063.89,179.63,1063.46,179,1063.08,179.39Z" transform="translate(-22 -60)"/><path class="cls-176" d="M1010.16,158.82v-1.06h.12q0,.68,0,1.35Z" transform="translate(-22 -60)"/><path class="cls-171" d="M1006.86,162.76c.26,0,.55-.11.78.14a1.72,1.72,0,0,0-.75.13c-.06,0-.22.09-.18-.1S1006.81,162.82,1006.86,162.76Z" transform="translate(-22 -60)"/><path class="cls-171" d="M1002.31,162.75h.94A.72.72,0,0,1,1002.31,162.75Z" transform="translate(-22 -60)"/><path class="cls-158" d="M1061,179.56h.31s.13,0,.14,0c.09.18-.09.11-.15.14S1061,179.81,1061,179.56Z" transform="translate(-22 -60)"/><path class="cls-177" d="M1006.87,192h-.47a14.49,14.49,0,0,0-2.33-.48l-.84-.29A10.35,10.35,0,0,1,1006.87,192Z" transform="translate(-22 -60)"/><path class="cls-175" d="M1065.75,179.41h-.31c-.28.16-.59,0-.88.07a.6.6,0,0,1-.22,0,.13.13,0,0,1,0-.13s0-.07,0-.07h0a.58.58,0,0,1,.46-.23c.4,0,.55-.24.7-.52a25.51,25.51,0,0,1,3.83-1.16c.42.08.95.1.5.76a1.69,1.69,0,0,1-.63.35c-.95.34-1.93.57-2.88.92A.74.74,0,0,1,1065.75,179.41Z" transform="translate(-22 -60)"/><path class="cls-175" d="M1064.37,179.42l-.08.11-.05,0-.05,0-.78,0q0-.08,0-.16a1.4,1.4,0,0,1,.92,0Z" transform="translate(-22 -60)"/><path class="cls-132" d="M1008.17,162.73a40.82,40.82,0,0,0-8.34,0,20,20,0,0,0-3.54.5,5.46,5.46,0,0,0-1.69.3q-1.1.28-2.22.5a4.86,4.86,0,0,0-1.69.49,23.09,23.09,0,0,1-4.49,1.46,2.57,2.57,0,0,1-.42-1.77c-.22-5.76-.24-11.51-.16-17.27a3.74,3.74,0,0,0,.13-1.08c0-.84,0-1.67,0-2.51-.06-3.16.15-6.31.21-9.47,0-1.93,0-3.86.13-5.78s.1-3.7.13-5.55c0-.37.13-.72.16-1.08a2.72,2.72,0,0,1,.72-1.37,12.72,12.72,0,0,1,2.36-2.79c.33,0,.42-.27.58-.46a53.73,53.73,0,0,1,35-18.79,13,13,0,0,1,3.73-.23c.15.3.49.37.75.67a50.73,50.73,0,0,0-7.81,5.67,2.59,2.59,0,0,1-.62.51.46.46,0,0,0-.32.28,2.58,2.58,0,0,1-.8,1,30.06,30.06,0,0,0-5,6.23c-.33.56-.59,1.16-1,1.7-.13.22-.24.45-.34.68l-.19.41a29.85,29.85,0,0,0-1.81,5.42,3.88,3.88,0,0,0-.16.75,1.78,1.78,0,0,1-.05.21,2.72,2.72,0,0,0-.08.74,1.86,1.86,0,0,1-.06.33,8.45,8.45,0,0,0-.13,1.06,2,2,0,0,1-.06.26c-.09,1.64-.12,3.29-.22,4.92s-.05,3.44-.15,5.16a3.4,3.4,0,0,1-1.27,2.3c-2.12,2.2-4.15,4.49-6.16,6.78-2.36,2.69-4.71,5.39-7,8.16a3.61,3.61,0,0,0-.53,2.3c0,.35.33.34.59.36.63,0,1.24-.15,1.87-.15,2.59,0,5.17,0,7.76,0,1.07,0,2.13.18,3.2.16.45,0,.67.21.62.68a11.29,11.29,0,0,1-.08,1.86c-.07,1.85-.19,3.69-.2,5.54,0,.79-.23,1.09-1,.88A1.86,1.86,0,0,0,1008.17,162.73Z" transform="translate(-22 -60)"/><path class="cls-178" d="M1013.45,114.83c0-.12,0-.25.12-.31s.26-.42.34-.65a21.26,21.26,0,0,1,2-3.44,33.07,33.07,0,0,1,4.86-5.5c0,.33.25.36.5.36a49.37,49.37,0,0,0-5.71,6.82,15.23,15.23,0,0,0-1.7,3.23c-.09.15-.21.24-.37.12S1013.35,115.06,1013.45,114.83Z" transform="translate(-22 -60)"/><path class="cls-179" d="M1021.14,104.64a1.7,1.7,0,0,1,.62-.51A.63.63,0,0,1,1021.14,104.64Z" transform="translate(-22 -60)"/><path class="cls-180" d="M988.49,117.51l.25-.17c.21,0,.24-.41.54-.29l.19.22-2.84,3.86a10.1,10.1,0,0,0-.3,1.44.4.4,0,0,1-.47,0,3.06,3.06,0,0,1,.09-1.69,1,1,0,0,1,.08-.22,18.91,18.91,0,0,1,1.38-1.85,1.07,1.07,0,0,0,.5-.61C988,117.93,988.13,117.61,988.49,117.51Z" transform="translate(-22 -60)"/><path class="cls-180" d="M989.28,117.05l-.54.29a2.5,2.5,0,0,1,.68-.81Z" transform="translate(-22 -60)"/><path class="cls-4" d="M1069.34,177.5l-3.89,1.15c-.68.46-.93.37-1.17-.39,0-1,0-2.1,0-3.15q0-16.38,0-32.76a3.37,3.37,0,0,0-.11-1.09c-.12-2.73,0-5.46,0-8.19a6,6,0,0,0-.13-1.78c0-1.46-.36-2.9-.27-4.36a38.06,38.06,0,0,0-.72-4c-.4-1.59-1-3.12-1.47-4.67a8.86,8.86,0,0,1,4.09-5.48,4,4,0,0,1,3-.44,8.29,8.29,0,0,1,2.73,1.15,18.47,18.47,0,0,1,4.67,4.58,21.83,21.83,0,0,0,2.58,3,5.05,5.05,0,0,0,2.43,1.35,1.14,1.14,0,0,0,1-.16,46.9,46.9,0,0,1,2.4,8.32,86,86,0,0,1,1.5,11.14c.3,4.11.35,8.24.32,12.36,0,.29,0,.57,0,.86a1,1,0,0,1,.22.81c0,4.77,0,9.54,0,14.31a1.21,1.21,0,0,1-.9,1.43c-4.67,1.84-9.31,3.74-14.06,5.35A8,8,0,0,1,1069.34,177.5Z" transform="translate(-22 -60)"/><path class="cls-2" d="M1081.95,122.36c0,.41-.17.51-.59.45a6.59,6.59,0,0,1-4.08-2.69,48.91,48.91,0,0,0-4.08-4.83,11.22,11.22,0,0,0-4.22-2.6,4.87,4.87,0,0,0-4.87,1.47,18.24,18.24,0,0,0-2.58,4.14,34.85,34.85,0,0,0-3.12-5.7,35.72,35.72,0,0,0-8.48-8.41c-2.11-1.54-4.28-3-6.42-4.5-.22-.16-.52-.24-.68-.61a29,29,0,0,1,4.36.26,51.28,51.28,0,0,1,16.48,5.05,73.83,73.83,0,0,1,13,8.19A11.43,11.43,0,0,1,1079,116,32,32,0,0,1,1081.95,122.36Z" transform="translate(-22 -60)"/><path class="cls-181" d="M1086.25,170.44c0-1.3-.06-2.6-.06-3.9q0-5.75,0-11.49c.31-.31,0-.75.22-1.1.21.3-.08.7.23,1a27.58,27.58,0,0,1,.08,3.11c0,.27-.11.57.1.82l.11.51a1.46,1.46,0,0,0,0,.75,43.24,43.24,0,0,0,0,4.39c-.08,2.09-.07,4.19,0,6.28l-.11.37a.29.29,0,0,1-.16-.24C1086.67,170.59,1086.68,170.32,1086.25,170.44Z" transform="translate(-22 -60)"/><path class="cls-182" d="M1063.72,126.93a20,20,0,0,1,.46,4.25c-.14,4.4-.06,8.81-.08,13.21,0,.63,0,1.25,0,1.88,0,5.48,0,11,0,16.44,0,.4.11.85-.25,1.18,0-2.24-.08-4.49-.08-6.73q0-10.66-.06-21.31a78.07,78.07,0,0,0-.64-9.21c.3-.19.12-.52.29-.93a5.77,5.77,0,0,0,.27,1.55C1063.77,127.19,1063.69,127,1063.72,126.93Z" transform="translate(-22 -60)"/><path class="cls-183" d="M1086.82,158.82c-.33-.3-.16-.69-.17-1,0-1,0-1.93,0-2.9,0-2.25.09-4.51,0-6.75-.16-2.83-.22-5.67-.57-8.48a3.08,3.08,0,0,1,0-1.46c.26.52,0,1.13.27,1.66l.2,2.63.26,4.29,0,1.68q0,4.6.06,9.2C1086.86,158,1086.84,158.44,1086.82,158.82Z" transform="translate(-22 -60)"/><path class="cls-160" d="M1032.15,98.68c.94.22,2-.05,2.85.54a5.15,5.15,0,0,1-2.85-.54Z" transform="translate(-22 -60)"/><path class="cls-158" d="M986.43,165.84a19,19,0,0,1,4.26-1.36c.1.25-.58.31-.15.64-1.48.51-3,1-4.43,1.56-.63.24-.73,0-.75-.55-.3-7.11-.2-14.23-.16-21.34,0-.34,0-.68,0-1a23.63,23.63,0,0,0,.08-2.47.15.15,0,0,1,.23,0,6.78,6.78,0,0,1,.3,2.64,3.9,3.9,0,0,0,0,.62,3,3,0,0,0,0,1.51,3,3,0,0,1-.08.88c-.11,1.49-.06,3-.07,4.46,0,1.2,0,2.4,0,3.6s-.12,2.6,0,3.89a17.87,17.87,0,0,0,.15,2.47,13.54,13.54,0,0,1,0,2.57,14.9,14.9,0,0,0,.14,1.71C986.06,165.81,986.07,166.15,986.43,165.84Z" transform="translate(-22 -60)"/><path class="cls-167" d="M984.39,156.3l0,7a21,21,0,0,1,.05,2.8.51.51,0,0,1-.51.57,4.7,4.7,0,0,1-.27-2.53c0-1.88,0-3.76,0-5.64,0-1,0-1.95,0-2.92a22.64,22.64,0,0,0,.18-5,2.47,2.47,0,0,1,0-1c.23-1.1,0-2.21.13-3.32a.7.7,0,0,1,.12-.26.35.35,0,0,1,.26-.09.21.21,0,0,1,.18.19,20,20,0,0,1-.06,2.59.13.13,0,0,1,0,.12c-.2.39,0,.8-.09,1.2q0,2.66,0,5.33A1.93,1.93,0,0,1,984.39,156.3Z" transform="translate(-22 -60)"/><path class="cls-184" d="M984.56,146.1h-.15c-.34-.37-.09-.83-.17-1.24a17.3,17.3,0,0,1,0-2.15,1.5,1.5,0,0,1,0-.27,6.3,6.3,0,0,0,.09-1.6,1.47,1.47,0,0,1,.15-.82c.22-.17.33,0,.44.15a3.18,3.18,0,0,1,0,1.1v.28a13.51,13.51,0,0,0-.09,2.4,2.75,2.75,0,0,1-.06.93v.6C984.54,145.65,984.74,145.92,984.56,146.1Z" transform="translate(-22 -60)"/><path class="cls-185" d="M985.36,141.23a14,14,0,0,1-.15,2.53c0-1.12,0-2.23,0-3.35,0-.25.08-.52-.13-.74-.38-.42-.2-.92-.21-1.39a8.58,8.58,0,0,0,.15-1c0-.2,0-.56.4-.45.32.6.1,1.25.18,1.87C985.47,139.57,985.79,140.44,985.36,141.23Z" transform="translate(-22 -60)"/><path class="cls-184" d="M983.94,166.67a.85.85,0,0,0,.48-.9c0-.81,0-1.62,0-2.43a24.86,24.86,0,0,1,.12,3.84c0,.28-.21.45-.45.58.1-.33.22-.67-.15-.93A.13.13,0,0,1,983.94,166.67Z" transform="translate(-22 -60)"/><path class="cls-186" d="M984.39,156.3l0-6.27q.07-.11.15,0,0,2.92,0,5.85C984.53,156,984.54,156.19,984.39,156.3Z" transform="translate(-22 -60)"/><path class="cls-187" d="M984.74,144.88c0-.9,0-1.8,0-2.69,0-.22-.06-.47.16-.64A18.52,18.52,0,0,1,984.74,144.88Z" transform="translate(-22 -60)"/><path class="cls-187" d="M984.56,146.1c0-.22-.07-.46.16-.63a17.66,17.66,0,0,1-.14,3.33Z" transform="translate(-22 -60)"/><path class="cls-187" d="M985,138.25v1.42c-.09.53.08,1.08-.16,1.6v-1.13C984.52,139.27,984.57,138.63,985,138.25Z" transform="translate(-22 -60)"/><path class="cls-184" d="M984.56,150h-.15c.06-.37-.15-.78.17-1.1Z" transform="translate(-22 -60)"/><path class="cls-188" d="M983.62,188.5l-2,0-3.16,0c.23-.26.54-.15.81-.15h4.22Z" transform="translate(-22 -60)"/><path class="cls-163" d="M993,189.42a1.15,1.15,0,0,1-.78-.14C992.59,189,992.8,189.25,993,189.42Z" transform="translate(-22 -60)"/><path class="cls-189" d="M1009.85,156.3c0-.55,0-1.1,0-1.64s-.13-.67-.64-.69c-4.1-.19-8.2-.27-12.3-.06-1.31.07-1.27.08-1.28-1.27a2.66,2.66,0,0,1,.7-1.82c4.23-5.11,8.64-10.07,13.15-14.94.52-.56,1.23-1,1.12-1.87a.14.14,0,0,1,.18,0,.34.34,0,0,1,.07.18c0,.07,0,.15,0,.22s.05.17,0,.07.13,0,0,0c.12-.34-.09-.73.17-1a.15.15,0,0,1,.2,0c.14.4-.19,1,.13,1.18s.74-.1,1.12-.12a4.62,4.62,0,0,1,4.26,2.49,13.51,13.51,0,0,1,1.87,5.85c0,.39.28.8-.17,1.11-.2-.37-.38-.74-.59-1.1a2.76,2.76,0,0,0-4.09-1,18.75,18.75,0,0,0-2.59,2.12.9.9,0,0,0-.26.7,8.84,8.84,0,0,1-.12,1.78c-.41-.53-.22-1.11-.18-1.64-.19.31-.06.71-.1,1.08s.07.73-.26,1c-.55-.25-.21-.77-.37-1.21a1.08,1.08,0,0,0-.44.36,33.78,33.78,0,0,0-2.81,3.45c-.29.4-.34.66.29.64a12,12,0,0,1,1.94.13c.77.1.89,0,.9-.85a3.09,3.09,0,0,1,.06-.85c0-.16.09-.39.36-.24.29.5.07,1.06.2,1.63a13,13,0,0,1,0-1.38c0-.23,0-.55.34-.59,0,.65,0,1.31,0,2s.14.67.64.7c2,.1,3.91.25,5.87.35a13,13,0,0,1,4.48,1,4.9,4.9,0,0,1,2.9,3.4c-1.33-.15-2.6-.27-3.86-.43-3.09-.38-6.19-.61-9.28-.89-.74-.07-1,.14-.9.86a4.59,4.59,0,0,1-.09.93c0-.52,0-1,0-1.55,0-.16,0-.34-.22-.34s-.21.18-.23.33C1009.93,155,1010.18,155.67,1009.85,156.3Z" transform="translate(-22 -60)"/><path class="cls-190" d="M1011.11,133.38c-.07.47.15,1-.16,1.41-.24-.09-.24-.09-.17-.64q0-.07,0-.14a16.57,16.57,0,0,1-.05-3.44c.17-2.37.13-4.75.35-7.11h0c.25-.37,0-.81.16-1.18l0-.22c.19-.24,0-.55.15-.8h0c.21-.18,0-.48.19-.66.33.05.38.29.37.56a2.37,2.37,0,0,1-.06.76v0c-.23.31,0,.7-.17,1a6.13,6.13,0,0,1-.16,1.63.37.37,0,0,0-.09.29c.09,2-.25,4-.17,6A15.09,15.09,0,0,1,1011.11,133.38Z" transform="translate(-22 -60)"/><path class="cls-191" d="M1011.89,121.13l-.28-.47q-.15-.07,0-.2a18.84,18.84,0,0,1,1.89-5.64c.05.26-.08.71.47.49-.51,1.34-1,2.67-1.52,4a1.54,1.54,0,0,0,0,.38,6.15,6.15,0,0,0-.31,1.43h0C1012,121.2,1011.94,121.2,1011.89,121.13Z" transform="translate(-22 -60)"/><path class="cls-192" d="M1010.17,146.88c.29-.51.11-1.07.14-1.6a.73.73,0,0,1,.5-.79v2l0,1.53c-.31.67-.07,1.39-.16,2.08,0,.18.11.5-.2.49s-.25-.29-.25-.5q0-.9,0-1.8A1.15,1.15,0,0,1,1010.17,146.88Z" transform="translate(-22 -60)"/><path class="cls-193" d="M1011.11,133.38q.16-4.19.31-8.39a.46.46,0,0,1,.17-.41l-.32,8.8Z" transform="translate(-22 -60)"/><path class="cls-194" d="M1018.48,143.91c.34-.33,0-.76.17-1.11a3.13,3.13,0,0,1,.16,1.19c0,.11,0,.3-.13.28S1018.46,144.08,1018.48,143.91Z" transform="translate(-22 -60)"/><path class="cls-195" d="M1012.06,121.15a1.9,1.9,0,0,1,.31-1.43A4.14,4.14,0,0,1,1012.06,121.15Z" transform="translate(-22 -60)"/><path class="cls-195" d="M1011.75,123c0-.35-.17-.73.17-1A2.12,2.12,0,0,1,1011.75,123Z" transform="translate(-22 -60)"/><path class="cls-195" d="M1011.89,121.13h.17a1.35,1.35,0,0,1-.15.8Z" transform="translate(-22 -60)"/><path class="cls-196" d="M1063.84,163.89q0-5.17,0-10.34,0-3.64,0-7.28c.48.12.34.52.36.83.08,1.27-.28,2.52-.13,3.79,0,.1.15,0,.05,0s0,0,0,0a12.16,12.16,0,0,1,0-1.79c0-.16,0-.41.29-.25,0,7.88,0,15.76,0,23.64a.18.18,0,0,1-.15.21c-.49-.34-.27-.83-.28-1.28,0-1.62.07-3.25-.13-4.87A16.55,16.55,0,0,1,1063.84,163.89Z" transform="translate(-22 -60)"/><path class="cls-175" d="M1063.86,166.51a1,1,0,0,1,.3.84,9.15,9.15,0,0,0,0,3.23c.1.68-.34,1.37,0,2.05v.1a.44.44,0,0,1-.17.37h-.15C1063.81,170.91,1063.78,168.71,1063.86,166.51Z" transform="translate(-22 -60)"/><path class="cls-197" d="M992.38,164a7.8,7.8,0,0,1,2.22-.5A5.09,5.09,0,0,1,992.38,164Z" transform="translate(-22 -60)"/><path class="cls-175" d="M1064.18,172.64h.16c.22.83-.07,1.68.15,2.51v3.14c-.12.16-.23.34-.47.16v-2.36a17.15,17.15,0,0,0,.08-2.54A2.16,2.16,0,0,1,1064.18,172.64Z" transform="translate(-22 -60)"/><path class="cls-158" d="M1064,178.45l.47-.16c.07.79.59.37,1,.35.15.27.15.57-.22.51s-.59.13-.9.07c.1-.29-.8.08-.32-.47Z" transform="translate(-22 -60)"/><path class="cls-196" d="M1064.18,172.64c0,.91,0,1.82,0,2.72,0,.25.09.53-.15.73q0-1.49,0-3C1064,172.94,1064,172.75,1064.18,172.64Z" transform="translate(-22 -60)"/><path class="cls-158" d="M1064.32,179.37l-.92,0h-.31c0-.17-.07-.49.3-.31a2,2,0,0,0,1,.15A.64.64,0,0,1,1064.32,179.37Z" transform="translate(-22 -60)"/><path class="cls-198" d="M1086.25,170.44l.52-.15,0,.84c.14.34-.14.38-.34.47l-1.26.57a5.21,5.21,0,0,1-.59.42,3.74,3.74,0,0,1-.47.2,4.2,4.2,0,0,0-.76.29,1.74,1.74,0,0,1-.38.18,2.11,2.11,0,0,0-.78.34c-1.19.45-2.4.87-3.57,1.38-1,.34-1.94.79-2.93,1.14s-1.82.66-2.72,1l-.56.2-1.9.63c-.28.09-.58.25-.88,0,.41-.53,0-.48-.34-.5,2-.73,4-1.42,6-2.19,3.44-1.31,6.86-2.67,10.29-4A.81.81,0,0,0,1086.25,170.44Z" transform="translate(-22 -60)"/><path class="cls-195" d="M985.67,146.89v-.94c.12-.46-.11-1,.13-1.4l-.13-.49a13.88,13.88,0,0,0,0-2.76c0-.09,0-.19,0-.28,0-1-.06-2,0-3a2.46,2.46,0,0,0,.11-1c-.06-1.45.1-2.91-.08-4.35a1.18,1.18,0,0,1,.1-.53,2.38,2.38,0,0,0,.14-1.25,21.77,21.77,0,0,1,.07-4.52,1.82,1.82,0,0,0,.08-.89c0-.73,0-1.45,0-2.18a1.11,1.11,0,0,1,.22-.8,2.29,2.29,0,0,1,.33-1.42c-.25,2.26-.2,4.54-.26,6.8-.18,6.06-.3,12.12-.45,18.18,0,.26,0,.52-.07.77Q985.76,147,985.67,146.89Z" transform="translate(-22 -60)"/><path class="cls-199" d="M985.67,146.89h.18c0,3.58,0,7.16,0,10.74,0,2.53.15,5.07.24,7.6,0,.23-.17.63.33.62-.44.27-.43.27-.5-.12a21.18,21.18,0,0,1-.13-3.46c0-.38.2-.82-.26-1.13-.08-.05-.07-.31,0-.45a5,5,0,0,0,.05-1.91c-.17-1.26.26-2.49.09-3.73a26.09,26.09,0,0,1-.07-2.93c0-.28.08-.57-.08-.83,0-1.37,0-2.74,0-4.11A.85.85,0,0,1,985.67,146.89Z" transform="translate(-22 -60)"/><path class="cls-193" d="M1011.08,123.47c0,.75.07,1.5,0,2.24-.21,2.77-.3,5.54-.31,8.31h-.17c0-3.42.14-6.83.37-10.24A1.24,1.24,0,0,1,1011.08,123.47Z" transform="translate(-22 -60)"/><path class="cls-195" d="M1011.24,122.3c0,.4.18.83-.16,1.18A2.34,2.34,0,0,1,1011.24,122.3Z" transform="translate(-22 -60)"/><path class="cls-195" d="M1011.56,120.47l0,.2c-.07.21,0,.48-.21.62A1.36,1.36,0,0,1,1011.56,120.47Z" transform="translate(-22 -60)"/><path class="cls-191" d="M1013.92,113.87c0,.29,0,.56-.34.65Z" transform="translate(-22 -60)"/><path class="cls-195" d="M1011.41,121.27c0,.27.12.57-.15.8A1.32,1.32,0,0,1,1011.41,121.27Z" transform="translate(-22 -60)"/><path class="cls-200" d="M986.14,126.47a7.72,7.72,0,0,0-.05,2.65c.07.6-.29,1.18,0,1.75a.94.94,0,0,1-.24.36.52.52,0,0,1-.21.06.57.57,0,0,1-.22-.06.78.78,0,0,1-.23-.25,1.74,1.74,0,0,1-.2-.91,2.14,2.14,0,0,1,.06-.47,6.76,6.76,0,0,0,.13-1.62,1.82,1.82,0,0,1,0-.62c.07-.86.23-1.7.24-2.56a1.76,1.76,0,0,1,.16-.84c.13-.2.39-.39.06-.64,0-.28-.09-.55.18-.75h.43l0,3.15C986.13,125.94,986.31,126.24,986.14,126.47Z" transform="translate(-22 -60)"/><path class="cls-195" d="M985.65,123c.21-.72-.06-1.55.49-2.2l-.28,1.74,0,.92a.22.22,0,0,1,0,.32c-.24.92-.14,1.88-.31,2.81,0,.27.09.57-.16.8a2,2,0,0,1-.2-1.5A12.76,12.76,0,0,1,985.65,123Z" transform="translate(-22 -60)"/><path class="cls-180" d="M987.5,118.92l.38-.61.13,0A.62.62,0,0,1,987.5,118.92Z" transform="translate(-22 -60)"/><path class="cls-201" d="M1064.33,148.77c-.37.75,0,1.58-.3,2.35,0-1.35,0-2.69,0-4,0-.27.11-.58-.14-.81,0-4.19,0-8.39,0-12.58a7.41,7.41,0,0,1,.28-2.51,5.61,5.61,0,0,1,.13.85c0,3.06,0,6.12,0,9.18.15,1.8,0,3.59.06,5.39A8.11,8.11,0,0,1,1064.33,148.77Z" transform="translate(-22 -60)"/><path class="cls-202" d="M1064.33,148.77q0-3.78,0-7.56a1,1,0,0,1,.12.68q0,16.47,0,32.95c0,.1,0,.21,0,.31a8.69,8.69,0,0,1-.15-2.51Z" transform="translate(-22 -60)"/><path class="cls-203" d="M1064.83,142.28v-7.12h.08v7.15Z" transform="translate(-22 -60)"/><path class="cls-204" d="M985.35,131l.16.16c.16.23,0,.49.08.68,0-.19-.08-.45.07-.69h.16c.47.24.17.62.16.94-.26.66.05,1.32,0,2-.06,1,0,2,0,3-.15.24,0,.54-.14.78v3.14c-.49-.46-.1-1-.23-1.54,0,.53,0,1.07,0,1.6l-.07.1h-.15v-2.5a6.55,6.55,0,0,0,0-2.14,7.49,7.49,0,0,1,0-2,1.76,1.76,0,0,0,.09-1.09,1.14,1.14,0,0,1,0,.67l-.06.21c-.08.2,0,.45-.19.62-.49-.1-.34-.51-.34-.8a13.85,13.85,0,0,0,0-2.07.87.87,0,0,1,0-.44A2,2,0,0,1,985.35,131Z" transform="translate(-22 -60)"/><path class="cls-204" d="M985.82,141.23a10.39,10.39,0,0,1-.15,2.82c.1-.95-.22-1.87-.16-2.82h0A.21.21,0,0,1,985.82,141.23Z" transform="translate(-22 -60)"/><path d="M985.51,151.28a5.49,5.49,0,0,1,.15,2.13c0,.54,0,1.09,0,1.63a5.55,5.55,0,0,1-.14-2.13C985.48,152.37,985.51,151.83,985.51,151.28Z" transform="translate(-22 -60)"/><path class="cls-199" d="M985.79,144.54c0,.47.16,1-.13,1.4C985.54,145.46,985.35,145,985.79,144.54Z" transform="translate(-22 -60)"/><path class="cls-186" d="M984,151l.12-.34c.26.2.18.48.16.73a28.08,28.08,0,0,1-.29,4.14v-3.77a.54.54,0,0,1-.08-.68Z" transform="translate(-22 -60)"/><path class="cls-184" d="M983.93,164.41a39.45,39.45,0,0,1,0-6Q983.93,161.41,983.93,164.41Z" transform="translate(-22 -60)"/><path class="cls-186" d="M984.1,149.71a20.74,20.74,0,0,1,.14-3.53A15.23,15.23,0,0,1,984.1,149.71Z" transform="translate(-22 -60)"/><path class="cls-186" d="M984.23,146.1a2.89,2.89,0,0,1,0-1.1c0-.08.08-.08.13,0v1.11Z" transform="translate(-22 -60)"/><path class="cls-199" d="M985,132.12c.29.51,0,1,.05,1.55s-.17.88.12,1.28a.58.58,0,0,1,.16.48c-.05.47.1.93,0,1.4-.38.41,0,1-.3,1.41-.35.6-.08,1.26-.17,1.89l-.29-.15c-.16-.15-.11-.32,0-.5v0a3.42,3.42,0,0,0,0-1.81,4.18,4.18,0,0,1,0-.85,16.34,16.34,0,0,1,0-2.31,6.44,6.44,0,0,0,.12-1.63C984.69,132.6,984.59,132.23,985,132.12Z" transform="translate(-22 -60)"/><path class="cls-187" d="M984.55,139.48l0,.5c-.15.83.19,1.7-.2,2.51A15.83,15.83,0,0,1,984.55,139.48Z" transform="translate(-22 -60)"/><path class="cls-187" d="M984.28,142.69l.11-.1,0,2.41h-.13l0-1.57A.49.49,0,0,1,984.28,142.69Z" transform="translate(-22 -60)"/><path class="cls-205" d="M985.35,136.83a3.27,3.27,0,0,1-.15-1.41c.2-.35,0-.75.15-1.1h0q.08-.11.16,0c0,1.22,0,2.44,0,3.66,0,.25.07.52-.13.74Z" transform="translate(-22 -60)"/><path class="cls-206" d="M1017.76,141.41c-2.17-1.5-3.91-.69-5.52.67a37.64,37.64,0,0,0-7.17,8.13c-.12.18-.39.35-.25.6s.43.13.65.15c3,.19,6,.34,9,.61a33.25,33.25,0,0,1,5.12.5,6.13,6.13,0,0,1,3.65,2c.11.13.34.24.21.45s-.28.07-.43.06c-2.38-.23-4.74-.57-7.13-.77-3.77-.31-7.53-.51-11.31-.67-2.41-.1-4.79.08-7.19,0-.33,0-.81.24-1-.24a1.41,1.41,0,0,1,.23-1.34c.53-.64,1.05-1.29,1.6-1.92,3.23-3.72,6.41-7.48,9.78-11.08.66-.7,1.28-1.45,2-2.13,2.37-2.38,5-1.25,6.38,1.18A16.23,16.23,0,0,1,1017.76,141.41Z" transform="translate(-22 -60)"/><path class="cls-76" d="M1010.17,146.88l0,1.37A9.78,9.78,0,0,0,1010,150c0,.23,0,.49-.35.46l-3.77-.24a37.41,37.41,0,0,1,4.28-5.26Z" transform="translate(-22 -60)"/><path class="cls-193" d="M1010.79,134.16c.2.18-.1.48.17.64C1010.59,134.81,1010.56,134.71,1010.79,134.16Z" transform="translate(-22 -60)"/><path class="cls-207" d="M1064.1,153.61a1.5,1.5,0,0,1,0-.95A1.5,1.5,0,0,1,1064.1,153.61Z" transform="translate(-22 -60)"/><path class="cls-158" d="M985.82,141.23h-.31v-2c.32.73-.05,1.37.31,1.88Z" transform="translate(-22 -60)"/><path class="cls-199" d="M986,132.13c-.05-.31.13-.67-.16-.94l.29-.31C986.09,131.29,986.27,131.73,986,132.13Z" transform="translate(-22 -60)"/><path class="cls-199" d="M986.14,126.47c0-.26-.09-.55.13-.77C986.26,126,986.38,126.25,986.14,126.47Z" transform="translate(-22 -60)"/><path class="cls-199" d="M985.82,137.94c0-.26-.1-.55.14-.78C985.95,137.42,986.07,137.71,985.82,137.94Z" transform="translate(-22 -60)"/><path class="cls-199" d="M985.2,129.61V128.2s-.06-.05,0-.08,0,0,0,0l.11-.05A2.48,2.48,0,0,1,985.2,129.61Z" transform="translate(-22 -60)"/><path class="cls-199" d="M985.66,131.18v.61h-.13l0-.62Z" transform="translate(-22 -60)"/><path class="cls-199" d="M985.73,128.47a.72.72,0,0,1,0,.59A.53.53,0,0,1,985.73,128.47Z" transform="translate(-22 -60)"/><path class="cls-180" d="M985.82,123.8v-.32c.1,0,.26-.14.29.06S986,123.79,985.82,123.8Z" transform="translate(-22 -60)"/><path class="cls-208" d="M985.51,134.32h-.16v-1.18A1,1,0,0,1,985.51,134.32Z" transform="translate(-22 -60)"/><path class="cls-208" d="M985.35,134.32c-.05.37.14.77-.15,1.1V135C985.22,134.74,985.13,134.49,985.35,134.32Z" transform="translate(-22 -60)"/><path class="cls-187" d="M984.55,137.93l0-1.05a.1.1,0,0,1,.12-.09,7.43,7.43,0,0,1-.16,2.71Z" transform="translate(-22 -60)"/></svg>