<svg id="Layer_1" data-name="Layer 1" xmlns="http://www.w3.org/2000/svg" viewBox="0 0 178 178"><defs><style>.cls-1{fill:#ededed;}.cls-2{fill:#f0f0f3;}.cls-3{fill:#dd6f47;}.cls-4{fill:#cdcadc;}.cls-5{fill:#585465;}.cls-6{fill:#e1def1;}.cls-7{fill:#d25037;}.cls-8{fill:#42404b;}.cls-9{fill:#d9d6e8;}.cls-10{fill:#524e5d;}.cls-11{fill:#d8d5e7;}.cls-12{fill:#dbd8eb;}.cls-13{fill:#d8d6e8;}.cls-14{fill:#504d5c;}.cls-15{fill:#f6f6f7;}.cls-16{fill:#f4f4f4;}.cls-17{fill:#f9f8fa;}.cls-18{fill:#d6d4e5;}.cls-19{fill:#524f5e;}.cls-20{fill:#534f5f;}.cls-21{fill:#fafafa;}.cls-22{fill:#fafafb;}.cls-23{fill:#dcd9eb;}.cls-24{fill:#d9d7e9;}.cls-25{fill:#d7d5e6;}.cls-26{fill:#dad7e9;}.cls-27{fill:#595663;}.cls-28{fill:#ca3c55;}.cls-29{fill:#dddaed;}.cls-30{fill:#dcd9ec;}.cls-31{fill:#545060;}.cls-32{fill:#ebebed;}.cls-33{fill:#eaeaeb;}.cls-34{fill:#c03951;}.cls-35{fill:#5d5a67;}.cls-36{fill:#d7d4e6;}.cls-37{fill:#64616f;}.cls-38{fill:#4f4c5a;}.cls-39{fill:#dfdcef;}.cls-40{fill:#d9d6e9;}.cls-41{fill:#bb384f;}.cls-42{fill:#d6d3e4;}.cls-43{fill:#5a5764;}.cls-44{fill:#64616e;}.cls-45{fill:#f2f2f2;}.cls-46{fill:#d23f59;}.cls-47{fill:#fbfbfb;}.cls-48{fill:#ececee;}.cls-49{fill:#dedbee;}.cls-50{fill:#f2f0f8;}.cls-51{fill:#545161;}.cls-52{fill:#eeeeef;}.cls-53{fill:#686573;}.cls-54{fill:#555161;}.cls-55{fill:#bc384f;}.cls-56{fill:#bd3850;}.cls-57{fill:#b9374e;}.cls-58{fill:#bf3951;}.cls-59{fill:#625f6c;}.cls-60{fill:#5b5865;}.cls-61{fill:#f4f3fa;}.cls-62{fill:#fefefe;}.cls-63{fill:#f9f9f9;}.cls-64{fill:#646170;}.cls-65{fill:#f5f4f8;}.cls-66{fill:#b5364c;}.cls-67{fill:#f1d7e0;}.cls-68{fill:#ebe2e5;}.cls-69{fill:#eae2e5;}.cls-70{fill:#e9e1e4;}.cls-71{fill:#333;}.cls-72{fill:#666370;}.cls-73{fill:#413f49;}.cls-74{fill:#53505f;}.cls-75{fill:#514e5d;}.cls-76{fill:#534f5e;}.cls-77{fill:#524e5e;}.cls-78{fill:#e5e5e7;}.cls-79{fill:#f4f4f5;}.cls-80{fill:#e7e6e8;}.cls-81{fill:#e7e7e9;}.cls-82{fill:#f2f2f3;}.cls-83{fill:#f1f0f8;}.cls-84{fill:#f8f8fb;}</style></defs><title>icn_pokeball</title><circle class="cls-1" cx="89" cy="89" r="89"/><path class="cls-2" d="M51.83,94.42l0,.63a1.4,1.4,0,0,1,0-1Z" transform="translate(-11.69 -11)"/><path class="cls-3" d="M145.85,108a52.86,52.86,0,0,1-6.33,3.82,63,63,0,0,1-9.49,4.1,59.78,59.78,0,0,1-10,2.46,56.49,56.49,0,0,1-10,.66c-.54,0-1.08-.09-1.62-.08s-.61-.21-.65-.6a13.81,13.81,0,0,0-2.58-6.9,14.47,14.47,0,0,0-10.22-6.26,14.86,14.86,0,0,0-14.64,6.22,13.28,13.28,0,0,0-2,3.94c-.11.34-.21.41-.58.34A39.17,39.17,0,0,1,64,110.27a49.58,49.58,0,0,1-11.35-9.8A2,2,0,0,1,52.15,99a50.62,50.62,0,0,1,3.55-18A49.25,49.25,0,0,1,63.2,68.21,48.73,48.73,0,0,1,75.6,57.31a49.88,49.88,0,0,1,14.57-6.08,51.13,51.13,0,0,1,8.71-1.29,48.53,48.53,0,0,1,16.49,1.82,49.75,49.75,0,0,1,25.76,17.46,46.44,46.44,0,0,1,3.59,5.42.68.68,0,0,0,.11.47,40.73,40.73,0,0,1,3.84,13.54A39.93,39.93,0,0,1,147,104.91,26.94,26.94,0,0,1,145.85,108Z" transform="translate(-11.69 -11)"/><path class="cls-4" d="M59,124.15l-.54-.91a1.56,1.56,0,0,0-.47-.89,16.36,16.36,0,0,1-1.1-2.15,1.19,1.19,0,0,0-.38-.86l-.18-.38a.31.31,0,0,0-.16-.41,16.1,16.1,0,0,1-1-2.41,3.83,3.83,0,0,0-.39-1.3,8,8,0,0,0-.55-1.58,18.18,18.18,0,0,1-.74-2.75,24.86,24.86,0,0,0-.47-2.55,14.19,14.19,0,0,0-.27-1.53.33.33,0,0,1,.15-.43l.57.68a45,45,0,0,0,8.52,14,47,47,0,0,0,12.06,9.62,51.41,51.41,0,0,0,14.72,5.52A53.17,53.17,0,0,0,100.45,137,54.3,54.3,0,0,0,111,135.8a51.3,51.3,0,0,0,12.67-4.45,48.8,48.8,0,0,0,8.77-5.71,46.55,46.55,0,0,0,8-8.32c.37-.5.69-1,1.09-1.5,1.12-.69,2.26-1.35,3.37-2.07.8-.52,1.56-1.12,2.35-1.65s1.71-1.29,2.58-1.93c.08-.06.15-.15.24-.08s.07.24,0,.37a23.89,23.89,0,0,1-.78,2.79,20.25,20.25,0,0,0-.95,2.89,8.5,8.5,0,0,1-.64,1.61.77.77,0,0,0-.26.65,3.12,3.12,0,0,1-.42.93,2,2,0,0,0-.49,1.1,10.64,10.64,0,0,1-.87,1.7,2.36,2.36,0,0,0-.59,1.12l-.54.91a.44.44,0,0,0-.25.44,33.8,33.8,0,0,1-3,4.38,9.52,9.52,0,0,0-.59.8c-.16.12-.35.22-.35.46l-.21.23c-.14.07-.26.15-.26.33a.75.75,0,0,1-.31.35c-.18.1-.35.2-.37.44a.77.77,0,0,1-.31.35,1.57,1.57,0,0,0-.57.57,6.42,6.42,0,0,1-1,1.12,2.78,2.78,0,0,0-.79.79l-.91.89c-.38.1-.56.41-.78.69a.77.77,0,0,1-.35.31.28.28,0,0,0-.3.27,15.52,15.52,0,0,1-1.61,1.32c-.19,0-.26.11-.33.24a.37.37,0,0,1-.23.21c-.19,0-.26.11-.33.24l-.91.66c-.19,0-.26.11-.33.24l-1.81,1.22c-.19,0-.36,0-.42.26a5,5,0,0,1-1,.64.45.45,0,0,0-.44.25.49.49,0,0,1-.35.2.45.45,0,0,0-.44.25.49.49,0,0,1-.35.2,17.5,17.5,0,0,0-2.79,1.39l-.37.19a1.27,1.27,0,0,0-.87.37,7,7,0,0,1-1.61.66,4.82,4.82,0,0,0-1.54.59,8.74,8.74,0,0,1-1.62.53c-1.28.31-2.55.65-3.8,1a1.89,1.89,0,0,1-.82.2,14.38,14.38,0,0,0-2,.32c-.44.06-.88.14-1.32.19-.07,0-.12,0,0,0v.05a.59.59,0,0,1-.47.09c-.59-.15-1.15.21-1.64.08-.18,0-.11.14-.12.07s0,0,0,0a.42.42,0,0,1,.41,0,1.37,1.37,0,0,1-.71.08,2.67,2.67,0,0,0-.8,0,.28.28,0,0,1,.27.06,30.76,30.76,0,0,1-6.38.11,2,2,0,0,1,.89-.06,13.21,13.21,0,0,0-1.76,0,1.65,1.65,0,0,1-.71-.08.29.29,0,0,1,.26-.07c-.58.09-1.24-.19-1.92-.08a1.21,1.21,0,0,1-.59-.08.33.33,0,0,1,.31-.06c-.4.09-.89-.19-1.4-.08a8.26,8.26,0,0,1-1.73-.3,3.42,3.42,0,0,0-1.31-.25,1.89,1.89,0,0,1-.82-.2,11.83,11.83,0,0,0-2.34-.59.27.27,0,0,1-.26-.08,2.77,2.77,0,0,0-1.2-.37,15.91,15.91,0,0,1-2.59-.9.74.74,0,0,0-.57-.23,6.79,6.79,0,0,1-1.6-.66,1.33,1.33,0,0,0-.87-.38l-.38-.18a13.47,13.47,0,0,0-2.56-1.28,1.18,1.18,0,0,1-.57-.32.44.44,0,0,0-.44-.25.49.49,0,0,1-.35-.2.44.44,0,0,0-.44-.25,47.35,47.35,0,0,1-4.52-3c-.07-.14-.14-.28-.33-.24l-.68-.54c-.07-.14-.15-.26-.33-.26l-1.16-1c0-.17-.11-.28-.3-.26l-.59-.53a.49.49,0,0,0-.42-.38,25.34,25.34,0,0,1-2.69-2.68.72.72,0,0,0-.49-.53l-1.2-1.39c0-.18-.12-.26-.26-.33-.31-.19-.38-.57-.65-.8,0-.18-.12-.26-.26-.33a1.68,1.68,0,0,1-.43-.57c0-.19-.11-.26-.24-.33a27.33,27.33,0,0,1-1.67-2.38.45.45,0,0,0-.25-.44,4,4,0,0,1-.65-1A.44.44,0,0,0,59,124.15Z" transform="translate(-11.69 -11)"/><path class="cls-5" d="M110.9,124.82a2.86,2.86,0,0,1-1.26.1c-.73,0-1.46,0-2.18,0s-1.21.5-1.52,1.14a.33.33,0,0,0-.14.32,13.79,13.79,0,0,1-5.44,6,15.31,15.31,0,0,1-5.42,2,1.53,1.53,0,0,1-.28,0c-.21-.06-.21-.06-.32,0a2.34,2.34,0,0,1-1.14.09,2.68,2.68,0,0,0-1,0,13.25,13.25,0,0,1-5.31-1.19,13.84,13.84,0,0,1-4.56-3.11,14.45,14.45,0,0,1-3.75-6.77,1.15,1.15,0,0,0-1-1,29.79,29.79,0,0,1-6.63-2.35,42.35,42.35,0,0,1-6.15-3.67,56.48,56.48,0,0,1-7.63-6.55,43,43,0,0,1-4.66-5.37.76.76,0,0,0,0-.38c0-.07,0-.15,0-.2s-.06,0,0,0,0,0,0,0a.23.23,0,0,1-.06.2c-.17-.21-.09-.46-.1-.69s0-.4,0-.59,0-.1,0,0,0,.05-.05.08a2.13,2.13,0,0,1-.09-1c.15-.32-.09-.69.1-1a52.09,52.09,0,0,0,3.73,3.89,49.57,49.57,0,0,0,9,6.72,39.88,39.88,0,0,0,7.54,3.41c1.43.47,2.9.83,4.35,1.23a.46.46,0,0,0,.16,0c.47-.05,1,.35,1.41,0s.39-.87.57-1.31a14.38,14.38,0,0,1,7.79-8,12,12,0,0,1,3-.85,14.26,14.26,0,0,1,3.22-.37,17.53,17.53,0,0,1,3.72.64,14.41,14.41,0,0,1,4.3,2,14.25,14.25,0,0,1,5.93,9.12,6.88,6.88,0,0,1,.18,1.1,1.18,1.18,0,0,0,.84,1.06.93.93,0,0,0,.66,0,11.2,11.2,0,0,1,2.38.09,1.49,1.49,0,0,0,.79,0,13.12,13.12,0,0,1,2.49-.09,1.36,1.36,0,0,0,.77,0,2,2,0,0,1,1-.09.51.51,0,0,0,.44,0c.21-.17.46-.09.69-.09a.51.51,0,0,0,.44,0c.36-.23.8-.12,1.18-.17,1-.13,2.07-.37,3.1-.54,1.54-.26,3-.67,4.55-1.07a60.11,60.11,0,0,0,9.42-3.39,67.74,67.74,0,0,0,9.43-5.16.54.54,0,0,1,.16,0,.1.1,0,0,1,.14,0,.35.35,0,0,1,.06.15.39.39,0,0,1-.12.29c-.56.2-.68.73-.91,1.18l-.32.64-.24.48c-.14.33-.36.61-.47,1a.51.51,0,0,1-.07.14c-.24.31-.39.68-.6,1,.15.11.42-.28.49.12-1.32.88-2.69,1.67-4.08,2.44a73.71,73.71,0,0,1-8.45,4,65.83,65.83,0,0,1-11.28,3.4c-1.73.35-3.48.61-5.22.86a3.59,3.59,0,0,1-.5,0c-.11,0-.22-.1-.32,0a1.6,1.6,0,0,1-.92.09.35.35,0,0,0-.22,0s-.06,0-.09,0a.14.14,0,0,1,.1.05,3.5,3.5,0,0,1-1.37.09C111.11,124.8,111,124.71,110.9,124.82Z" transform="translate(-11.69 -11)"/><path class="cls-6" d="M141.44,115.81a4.44,4.44,0,0,1-.92,1.51,43.65,43.65,0,0,1-4.75,5.51,47.15,47.15,0,0,1-5.85,4.88,50.24,50.24,0,0,1-6.19,3.75,54.68,54.68,0,0,1-5.82,2.51,50.7,50.7,0,0,1-6.23,1.83,47.35,47.35,0,0,1-4.89.87,51.31,51.31,0,0,1-5.61.45,54.21,54.21,0,0,1-6.14-.2c-1.58-.16-3.15-.34-4.71-.63a53.81,53.81,0,0,1-10.63-3.1,51.2,51.2,0,0,1-9.28-5,46,46,0,0,1-10-9.18,44.79,44.79,0,0,1-4.73-7.22A45.35,45.35,0,0,1,53.5,107c0-.11-.17-.23,0-.34.1.08.21.14.23.28a.5.5,0,0,0,.33.39c.82.89,1.63,1.78,2.46,2.66.41.44.85.85,1.28,1.28a.38.38,0,0,0,.32.32c1.7,1.56,3.44,3.08,5.29,4.47a44.45,44.45,0,0,0,8.28,5,30.19,30.19,0,0,0,5.51,1.87.93.93,0,0,1,.82.79,14.53,14.53,0,0,0,2.67,5.56,15,15,0,0,0,3.66,3.43,16.06,16.06,0,0,0,5.35,2.17c0,.07-.1.1-.15,0,0,.08.08.06.13.06a.63.63,0,0,0,.33,0,.4.4,0,0,1,.38.08c0,.07-.1.1-.16,0,0,.08.08.07.13.06s.23,0,.33,0a1.32,1.32,0,0,1,.72.08,16.37,16.37,0,0,0,2.62.07l0,0,0,0c.38-.21.8-.08,1.21-.16a20.11,20.11,0,0,0,2.94-.81,14.52,14.52,0,0,0,4.33-2.52,18.54,18.54,0,0,0,1.92-2,13.55,13.55,0,0,0,2.26-3.73c.09-.2.19-.4.47-.37.92.1,1.85,0,2.78,0,0,0-.07,0-.07,0s0,0,0,0a4.22,4.22,0,0,1,1.28-.08,4.78,4.78,0,0,0,1.12,0c.07,0,0-.11,0,0s0,0,0,0-.25.05-.35-.06a1.89,1.89,0,0,1,.84-.08,2.24,2.24,0,0,0,.66,0c.07,0,.13,0,.05,0s-.07,0-.08-.06a1.37,1.37,0,0,1,.72-.08c.14,0,.29.14.41,0a.6.6,0,0,1,.49-.07c.14,0,.29.14.41,0l2-.31c.1.07.22,0,.33,0s.08,0,.1,0-.1,0-.13,0a2.5,2.5,0,0,1,.94-.19.66.66,0,0,0,.32,0s.08,0,.1,0-.1,0-.13,0c.69-.1,1.38-.26,2.06-.38,1.07-.19,2.09-.61,3.15-.86,1.39-.34,2.72-.83,4.07-1.28a64.59,64.59,0,0,0,7-2.83C137.28,118.1,139.37,117,141.44,115.81Z" transform="translate(-11.69 -11)"/><path class="cls-7" d="M145.85,108a2.65,2.65,0,0,1,.33-1.18,42.9,42.9,0,0,0,2.22-9,38.87,38.87,0,0,0,.23-8.06A40.76,40.76,0,0,0,145.94,78c-.39-1-.87-2-1.3-3-.06-.14-.26-.33.08-.4l.2.34a.51.51,0,0,0,.25.44l.65,1.25a3.18,3.18,0,0,0,.48,1l.2.35a.33.33,0,0,0,.14.33,8.09,8.09,0,0,1,.77,1.7.29.29,0,0,0,.13.33,17.67,17.67,0,0,1,1.11,2.94.49.49,0,0,0,.13.44,35,35,0,0,1,1.68,6.32c-.09.14,0,.28,0,.37a.17.17,0,0,1,.06-.16,2.91,2.91,0,0,1,.2,1.15c-.08.1,0,.23-.08.33.09-.06,0-.18.09-.23a.83.83,0,0,1,.09.57.47.47,0,0,0,0,.32c0,.2.1.11,0,.12s0,0,0-.08a.2.2,0,0,1,.05-.14.86.86,0,0,1,.1.57c-.1.19,0,.41-.06.61,0-.09,0-.2.08-.28a5.93,5.93,0,0,1,.2,1.71,2.29,2.29,0,0,0,0,.67c0,.12.13,0,.06.05s0,0,0,0a.65.65,0,0,1,0-.48,3.28,3.28,0,0,1,.09,1.25,14.44,14.44,0,0,0,0,1.72,4.32,4.32,0,0,1,.05-1.17,16,16,0,0,1,.09,3.13,3.6,3.6,0,0,1-.09,1.38,5.26,5.26,0,0,1,0-1.16,12.6,12.6,0,0,0,0,1.72,3.27,3.27,0,0,1-.09,1.25.81.81,0,0,1-.05-.48,2.71,2.71,0,0,0,0,.7c0,.22.08.46-.1.65-.26,0-.33.21-.45.37a2.29,2.29,0,0,1-.68.55c-.15,0-.28.08-.32.25a5.11,5.11,0,0,1-1,.8.29.29,0,0,0-.25.21l-.2.13a.58.58,0,0,0-.46.33l-.91.66a.37.37,0,0,0-.33.24A1.51,1.51,0,0,1,145.85,108Z" transform="translate(-11.69 -11)"/><path class="cls-8" d="M144.38,111.18c.23-.52.5-1,.69-1.56.11-.3.41-.17.55-.35.2,0,.2,0,.12-.23v-.11c.13-.22.42-.25.55-.46a.37.37,0,0,1,.25-.2c.25,0,.41-.22.61-.34s.23-.14.31.05a.44.44,0,0,0-.08.19s0-.05,0-.08,0,0,0,0a1.15,1.15,0,0,1,.34-.6.37.37,0,0,1,.33-.22c.28-.14.52-.39.88-.35.15.1.09.25.08.39h0c0-.13.06-.26-.05-.37s-.18-.19,0-.27.27-.1.24-.29l.69-.54c.12,0,.21,0,.2-.14l.23-.22c.35-.12.47,0,.45.37,0,.18-.12.35,0,.53a3.31,3.31,0,0,1-.21,1.14l-.07.09s-.09.1-.08.14.08-.06.12,0a2.35,2.35,0,0,1-.2,1c-.15.07-.1.21-.12.33l-.23.23c-.2-.05-.27.09-.34.23l-.22.22c-.12,0-.26-.13-.36.13a.71.71,0,0,1-.58.36c-.1,0-.16-.16-.29-.11a.29.29,0,0,0-.2.23,1,1,0,0,0,0,.52l-.68.45c-.08-.07,0-.17-.06-.25a.35.35,0,0,1-.05.25.18.18,0,0,1-.15.05c-.21-.1-.19-.34-.3-.5a.56.56,0,0,1,0-.42.07.07,0,0,1,0-.05s0,0,0,0a.48.48,0,0,0,0,.44,1.52,1.52,0,0,1,0,.59,1.79,1.79,0,0,1-1,.84.73.73,0,0,0-.46.47,2.07,2.07,0,0,1-.69.43c-.2,0-.39,0-.43.25a.36.36,0,0,1-.25.2s-.07-.07-.12-.06l0,.08a.35.35,0,0,1-.25.2c-.26-.26-.33.1-.49.15s-.35.05-.25-.1c.3-.42.36-1,.86-1.28h0c-.06-.43.27-.69.45-1l.06,0a.19.19,0,0,1,.08.12h0a.23.23,0,0,1,0,0c0-.08.07-.15.09-.23l0-.12a.17.17,0,0,0,0-.15Z" transform="translate(-11.69 -11)"/><path class="cls-9" d="M52.94,106a4.21,4.21,0,0,0,.18,1.79c.1.81.32,1.6.48,2.4a.31.31,0,0,1-.08.31,46.44,46.44,0,0,1-.93-4.82C52.82,105.69,52.87,105.85,52.94,106Z" transform="translate(-11.69 -11)"/><path class="cls-9" d="M112.95,147.27s-.18-.08-.12-.09c1.27-.31,2.54-.65,3.79-1,0,0,.09.05.13.08A22.56,22.56,0,0,1,112.95,147.27Z" transform="translate(-11.69 -11)"/><path class="cls-9" d="M108.77,148.05l-.35,0,3.52-.63c.06,0,.13.06.19.09A20.22,20.22,0,0,1,108.77,148.05Z" transform="translate(-11.69 -11)"/><path class="cls-10" d="M145.29,112.76c-.27-.26.18-.39.11-.62,0,0,0-.12.09,0s0,.1.08.14a.14.14,0,0,0,.2,0c.3-.3.76-.42,1-.82.09,0,.18-.07.27,0a.1.1,0,0,1,0,.12A14.1,14.1,0,0,1,145.29,112.76Z" transform="translate(-11.69 -11)"/><path class="cls-11" d="M148.3,116.13s-.08-.11-.07-.14c.3-.93.62-1.87.93-2.8h.05l0,0A19.46,19.46,0,0,1,148.3,116.13Z" transform="translate(-11.69 -11)"/><path class="cls-11" d="M54.27,113.24s.09-.09.12,0q.46,1.35.9,2.7c0,.05,0,.13-.07.2A19.39,19.39,0,0,1,54.27,113.24Z" transform="translate(-11.69 -11)"/><path class="cls-10" d="M148,110.84a.32.32,0,0,1,0-.57h.07a1.34,1.34,0,0,0,.32-.1h.07c.29-.11.6-.19.68-.57,0-.07.17,0,.34.13Z" transform="translate(-11.69 -11)"/><path class="cls-12" d="M122.75,143.89a7.72,7.72,0,0,1,2.79-1.39A22.59,22.59,0,0,1,122.75,143.89Z" transform="translate(-11.69 -11)"/><path class="cls-12" d="M78.2,142.61a.15.15,0,0,1,.2,0l2.34,1.17c.08,0,.11.09,0,.16A21.11,21.11,0,0,1,78.2,142.61Z" transform="translate(-11.69 -11)"/><path class="cls-13" d="M88.23,146.68c.36-.19.67.07,1,.13a10,10,0,0,1,1.41.35c.19.06,0,.07-.07.11A13.29,13.29,0,0,1,88.23,146.68Z" transform="translate(-11.69 -11)"/><path class="cls-14" d="M149.22,106.32c.35.25.14.37-.12.37s-.12.11-.1.19h0a2.35,2.35,0,0,1-.92.33A7.72,7.72,0,0,1,149.22,106.32Z" transform="translate(-11.69 -11)"/><path class="cls-15" d="M94.05,135.06l.25.05v.08c-1,0-2,0-3,0-.14,0,0-.07.08-.11Z" transform="translate(-11.69 -11)"/><path class="cls-16" d="M109.84,125.47l.49.06a13.66,13.66,0,0,1-3.15,0Z" transform="translate(-11.69 -11)"/><path class="cls-17" d="M148.07,80c.18-.13.3.17.47.07-.07.41.13.82,0,1.24Z" transform="translate(-11.69 -11)"/><path class="cls-18" d="M96.12,148.25c.72-.3,1.42.15,2.24,0-.25.21-.43.11-.59.16A8.31,8.31,0,0,1,96.12,148.25Z" transform="translate(-11.69 -11)"/><path class="cls-19" d="M150.79,106.32c-.16-.14-.11-.34-.09-.51s-.12-.36-.35-.39l.47-.35C151,105.52,150.83,105.92,150.79,106.32Z" transform="translate(-11.69 -11)"/><path class="cls-20" d="M147.42,108c-.18-.21-.27.06-.4.08s-.25.36-.5.16l1.22-.81a.84.84,0,0,1-.33.57Z" transform="translate(-11.69 -11)"/><path class="cls-11" d="M118.37,145.7l0,0a2.68,2.68,0,0,1,1.58-.55A6.73,6.73,0,0,1,118.37,145.7Z" transform="translate(-11.69 -11)"/><path class="cls-9" d="M107,148.29l-.48,0v0l1.61-.18c.12,0,.17,0,.18.13A6.25,6.25,0,0,1,107,148.29Z" transform="translate(-11.69 -11)"/><path class="cls-21" d="M144.71,73.41c.12-.17.3-.1.45-.12-.08.3.14.6,0,.9A3.1,3.1,0,0,1,144.71,73.41Z" transform="translate(-11.69 -11)"/><path class="cls-22" d="M149.89,85.15c.09-.39.24.13.35,0,0,.34.1.69-.09,1Z" transform="translate(-11.69 -11)"/><path class="cls-9" d="M91.39,147.47c.51-.21,1,.15,1.45.16,0,0-.08.07-.14.1A5.08,5.08,0,0,1,91.39,147.47Z" transform="translate(-11.69 -11)"/><path class="cls-18" d="M98.49,148.48a3.86,3.86,0,0,1,1.8,0h-.93Z" transform="translate(-11.69 -11)"/><path class="cls-23" d="M94.43,148c.5-.3,1,.16,1.47.09l-.37.06A4.76,4.76,0,0,1,94.43,148Z" transform="translate(-11.69 -11)"/><path class="cls-24" d="M145,123.24a1.2,1.2,0,0,1,.59-1.12A5.82,5.82,0,0,1,145,123.24Z" transform="translate(-11.69 -11)"/><path class="cls-25" d="M86.76,146.23c.48-.19.84.18,1.25.28a.15.15,0,0,1,0,0l0,0A4.32,4.32,0,0,1,86.76,146.23Z" transform="translate(-11.69 -11)"/><path class="cls-26" d="M146.49,120.42c-.15-.48.25-.77.4-1.14h.05l0,0Z" transform="translate(-11.69 -11)"/><path class="cls-11" d="M136.49,134.4a1.07,1.07,0,0,1,.79-.79A4,4,0,0,1,136.49,134.4Z" transform="translate(-11.69 -11)"/><path class="cls-27" d="M52.37,100.92c0,.33.1.69-.1,1,0-.32-.09-.64-.1-1S52.28,100.8,52.37,100.92Z" transform="translate(-11.69 -11)"/><path class="cls-28" d="M146.29,77.69a1.21,1.21,0,0,1-.48-1A3.53,3.53,0,0,1,146.29,77.69Z" transform="translate(-11.69 -11)"/><path class="cls-29" d="M134.8,136c.13-.37.31-.7.78-.69Z" transform="translate(-11.69 -11)"/><path class="cls-12" d="M58,122.34a.81.81,0,0,1,.47.89Z" transform="translate(-11.69 -11)"/><path class="cls-11" d="M121.51,144.45a.69.69,0,0,1,.87-.37Z" transform="translate(-11.69 -11)"/><path class="cls-11" d="M81.13,144.07c.4-.19.62.17.92.29a.09.09,0,0,1,0,.05l0,0Z" transform="translate(-11.69 -11)"/><path class="cls-30" d="M56.53,119.33a.76.76,0,0,1,.38.86Z" transform="translate(-11.69 -11)"/><path class="cls-31" d="M144.16,113.44c-.2-.13,0-.25,0-.38.11.13.35-.16.42.13C144.45,113.28,144.35,113.43,144.16,113.44Z" transform="translate(-11.69 -11)"/><path class="cls-22" d="M128.25,56.38c0,.13,0,.26-.12.34l-.44-.25C127.86,56.32,128.07,56.41,128.25,56.38Z" transform="translate(-11.69 -11)"/><path class="cls-32" d="M111.86,125.36l.38.05a1.69,1.69,0,0,1-1.12,0Z" transform="translate(-11.69 -11)"/><path class="cls-33" d="M105.43,149l.25,0a1.39,1.39,0,0,1-1,0Z" transform="translate(-11.69 -11)"/><path class="cls-34" d="M147.65,106.78c0-.27.1-.5.46-.33A1.23,1.23,0,0,1,147.65,106.78Z" transform="translate(-11.69 -11)"/><path class="cls-35" d="M111.9,119.63a.62.62,0,0,1-.79,0A1.62,1.62,0,0,1,111.9,119.63Z" transform="translate(-11.69 -11)"/><path class="cls-36" d="M147.4,118.39a.42.42,0,0,1,.26-.65A1.82,1.82,0,0,1,147.4,118.39Z" transform="translate(-11.69 -11)"/><path class="cls-37" d="M92.18,134.5a1.15,1.15,0,0,1,1,0A3.33,3.33,0,0,1,92.18,134.5Z" transform="translate(-11.69 -11)"/><path class="cls-38" d="M146.28,108.46c-.07.29-.34.34-.55.46h-.12A1.49,1.49,0,0,1,146.28,108.46Z" transform="translate(-11.69 -11)"/><path class="cls-36" d="M83.61,145.11c.27-.13.48,0,.7.15l-.13.08A1.08,1.08,0,0,1,83.61,145.11Z" transform="translate(-11.69 -11)"/><path class="cls-39" d="M64.88,132.17a.44.44,0,0,1,.49.53Z" transform="translate(-11.69 -11)"/><path class="cls-40" d="M138.29,132.49c.08-.29.21-.54.57-.57A1.4,1.4,0,0,1,138.29,132.49Z" transform="translate(-11.69 -11)"/><path class="cls-41" d="M150.58,104.52c-.07-.31.28-.36.38-.57,0,0,0,.13.07.2Z" transform="translate(-11.69 -11)"/><path class="cls-42" d="M105.74,148.4l-.37-.05c.31-.05.61-.17.9,0Z" transform="translate(-11.69 -11)"/><path class="cls-43" d="M52.37,103l0-.22c.08.26.18.51,0,.76C52.39,103.32,52.28,103.14,52.37,103Z" transform="translate(-11.69 -11)"/><path class="cls-11" d="M140.3,130.23c0-.31.06-.46.35-.46Z" transform="translate(-11.69 -11)"/><path class="cls-44" d="M115.17,119.51a.64.64,0,0,1-.77,0Z" transform="translate(-11.69 -11)"/><path class="cls-45" d="M88.27,51.1a.41.41,0,0,1,.63-.15A1.56,1.56,0,0,1,88.27,51.1Z" transform="translate(-11.69 -11)"/><path class="cls-46" d="M151.14,95.17v.54c-.08-.25-.19-.51,0-.75Z" transform="translate(-11.69 -11)"/><path class="cls-19" d="M147,111.53v-.13a.08.08,0,0,1,0-.08s0,0,0,0a.72.72,0,0,0,.18-.08.62.62,0,0,0,.11-.16l0,.25A.43.43,0,0,1,147,111.53Z" transform="translate(-11.69 -11)"/><path class="cls-30" d="M139.16,131.58c-.07-.31.09-.43.37-.44A1.17,1.17,0,0,1,139.16,131.58Z" transform="translate(-11.69 -11)"/><path class="cls-19" d="M149.68,109.49c0-.15,0-.32.14-.39s.16.07.2.16Z" transform="translate(-11.69 -11)"/><path class="cls-39" d="M68.05,135.39c.3,0,.46.06.42.38Z" transform="translate(-11.69 -11)"/><path class="cls-47" d="M121.49,53a.24.24,0,0,1-.13.24l-.43-.15C121.1,52.94,121.3,53,121.49,53Z" transform="translate(-11.69 -11)"/><path class="cls-48" d="M113.33,125.25s.23.07.1.11a.78.78,0,0,1-.73-.07Z" transform="translate(-11.69 -11)"/><path class="cls-34" d="M148.78,83.77c-.22-.09-.3-.23-.13-.44A.85.85,0,0,1,148.78,83.77Z" transform="translate(-11.69 -11)"/><path class="cls-28" d="M145.16,75.44c-.28,0-.34-.2-.25-.44Z" transform="translate(-11.69 -11)"/><path class="cls-49" d="M128.17,141c0-.34.18-.34.42-.26Z" transform="translate(-11.69 -11)"/><path class="cls-50" d="M58.14,111.6c-.27.05-.37-.06-.32-.32Z" transform="translate(-11.69 -11)"/><path class="cls-51" d="M143.82,113.67c-.11-.09-.23-.19-.14-.36a.1.1,0,0,1,.09,0c.19.07,0,.27.15.37Z" transform="translate(-11.69 -11)"/><path class="cls-52" d="M83.52,52.67c.07-.27.22-.29.42-.14A.7.7,0,0,1,83.52,52.67Z" transform="translate(-11.69 -11)"/><path class="cls-53" d="M108.74,119.54c-.21.17-.44.09-.67.07,0,0,0,0,0,0a.14.14,0,0,1,0,0Z" transform="translate(-11.69 -11)"/><path class="cls-23" d="M125.89,142.3c0-.29.19-.36.44-.25Z" transform="translate(-11.69 -11)"/><path class="cls-23" d="M77.18,142c.26-.11.41,0,.44.25Z" transform="translate(-11.69 -11)"/><path class="cls-5" d="M150.56,107.68c-.13.06,0,.26-.25.3,0-.23,0-.43.27-.53Z" transform="translate(-11.69 -11)"/><path class="cls-54" d="M150.24,109c-.2-.16,0-.33,0-.44s.06.07.09.11S150.37,109,150.24,109Z" transform="translate(-11.69 -11)"/><path class="cls-12" d="M144.24,124.59c-.11-.26,0-.41.25-.44Z" transform="translate(-11.69 -11)"/><path class="cls-55" d="M149.58,105.32c0-.23,0-.4.32-.25Z" transform="translate(-11.69 -11)"/><path class="cls-12" d="M126.68,141.85c0-.29.19-.36.44-.25Z" transform="translate(-11.69 -11)"/><path class="cls-49" d="M59,124.15c.31,0,.34.19.25.44Z" transform="translate(-11.69 -11)"/><path class="cls-55" d="M146.41,107.68c0-.26.08-.36.33-.24Z" transform="translate(-11.69 -11)"/><path class="cls-51" d="M150.11,105.64c.09.05.25.12.15.23s-.25,0-.36-.09Z" transform="translate(-11.69 -11)"/><path class="cls-56" d="M146.63,78.37c-.32,0-.26-.15-.14-.33Z" transform="translate(-11.69 -11)"/><path class="cls-49" d="M62.52,129.33c.26,0,.35.08.26.33A.61.61,0,0,1,62.52,129.33Z" transform="translate(-11.69 -11)"/><path class="cls-57" d="M150.92,93.24l0,.22c-.09-.18-.16-.36,0-.54Z" transform="translate(-11.69 -11)"/><path class="cls-58" d="M148.31,106.32c-.06-.23,0-.27.25-.21Z" transform="translate(-11.69 -11)"/><path class="cls-49" d="M56.19,118.54c.29,0,.28.21.16.41Z" transform="translate(-11.69 -11)"/><path class="cls-49" d="M63.42,130.46c.26,0,.34.08.26.33C63.58,130.69,63.45,130.61,63.42,130.46Z" transform="translate(-11.69 -11)"/><path class="cls-59" d="M117.76,119.29c-.14.19-.28.15-.44,0C117.47,119.29,117.61,119.21,117.76,119.29Z" transform="translate(-11.69 -11)"/><path class="cls-60" d="M52.48,104.2l.05-.41c.07.36.12.55,0,.73Z" transform="translate(-11.69 -11)"/><path class="cls-59" d="M116.63,119.4c-.14.19-.28.15-.44,0C116.34,119.4,116.48,119.32,116.63,119.4Z" transform="translate(-11.69 -11)"/><path class="cls-49" d="M139.84,130.79c-.09-.25,0-.36.26-.33A.61.61,0,0,1,139.84,130.79Z" transform="translate(-11.69 -11)"/><path class="cls-56" d="M147.53,80.4c-.29,0-.26-.16-.13-.33Z" transform="translate(-11.69 -11)"/><path class="cls-49" d="M132.2,138.12c0-.26.07-.36.33-.24Z" transform="translate(-11.69 -11)"/><path class="cls-49" d="M130.4,139.48c0-.26.07-.36.33-.24Z" transform="translate(-11.69 -11)"/><path class="cls-49" d="M70.53,137.53c.24-.09.36,0,.33.26C70.71,137.75,70.63,137.63,70.53,137.53Z" transform="translate(-11.69 -11)"/><path class="cls-49" d="M131.64,138.58c0-.26.08-.36.33-.24Z" transform="translate(-11.69 -11)"/><path class="cls-61" d="M54.07,107.33c-.34.07-.31-.18-.33-.39A1,1,0,0,1,54.07,107.33Z" transform="translate(-11.69 -11)"/><path class="cls-59" d="M110.9,124.82s-.08,0-.1,0,0-.09,0-.09.28,0,.38.09A.29.29,0,0,1,110.9,124.82Z" transform="translate(-11.69 -11)"/><path class="cls-49" d="M71.55,138.33c.26-.11.35,0,.33.24Z" transform="translate(-11.69 -11)"/><path class="cls-6" d="M134.15,136.56c-.05-.26,0-.31.3-.27Z" transform="translate(-11.69 -11)"/><path class="cls-6" d="M69.07,136.3c.29-.14.34,0,.3.26Z" transform="translate(-11.69 -11)"/><path class="cls-49" d="M61.84,128.43c.26,0,.36.07.24.33Z" transform="translate(-11.69 -11)"/><path class="cls-62" d="M90.71,135c-.09.12-.22.1-.34.1s-.12,0-.09-.06.09,0,.14-.07Z" transform="translate(-11.69 -11)"/><path class="cls-62" d="M90,134.87c-.09.12-.22.09-.35.09s-.12,0-.09-.06.09,0,.14-.06Z" transform="translate(-11.69 -11)"/><path class="cls-63" d="M122.39,53.67c.1-.15.21-.06.31,0s.06.1,0,.14Z" transform="translate(-11.69 -11)"/><path class="cls-62" d="M115.37,125c-.12.23-.26.14-.41,0Z" transform="translate(-11.69 -11)"/><path class="cls-62" d="M117.62,124.69s.12,0,.14.07-.05.06-.09.06-.26,0-.34-.1Z" transform="translate(-11.69 -11)"/><path class="cls-62" d="M114.47,125.14c-.12.23-.27.15-.41,0Z" transform="translate(-11.69 -11)"/><path class="cls-53" d="M112.59,124.71l-.34,0c.26-.08.42-.11.55,0Z" transform="translate(-11.69 -11)"/><path class="cls-62" d="M118.86,124.46s.12,0,.14.06,0,.06-.09.06-.25,0-.35-.09Z" transform="translate(-11.69 -11)"/><path class="cls-53" d="M113.72,124.6s-.19,0-.08-.09a.32.32,0,0,1,.41.07Z" transform="translate(-11.69 -11)"/><path class="cls-64" d="M105.79,126.39c-.13-.18-.06-.28.14-.32Z" transform="translate(-11.69 -11)"/><path class="cls-65" d="M143.25,127.3a.49.49,0,0,1,.21-.29" transform="translate(-11.69 -11)"/><path class="cls-66" d="M150.47,90.31l0,.34c-.09-.26-.11-.42,0-.56Z" transform="translate(-11.69 -11)"/><path class="cls-46" d="M150.69,91.56l0,.43c-.09-.25-.11-.4,0-.54A.23.23,0,0,1,150.69,91.56Z" transform="translate(-11.69 -11)"/><path class="cls-46" d="M150.8,92.35l0,.28c-.11-.22-.12-.36,0-.5Z" transform="translate(-11.69 -11)"/><path class="cls-53" d="M94.32,134.41s-.19,0-.08-.09a.32.32,0,0,1,.41.07Z" transform="translate(-11.69 -11)"/><path class="cls-67" d="M69.27,66.14A6.85,6.85,0,0,1,70.83,64a28.62,28.62,0,0,1,6.1-4.56,36.38,36.38,0,0,1,4.62-2.53,8,8,0,0,1,6-.44,4.12,4.12,0,0,1,2.89,3,2.88,2.88,0,0,1-.24,1.8A9.19,9.19,0,0,1,88.41,64a39.63,39.63,0,0,1-6.21,5.6,16.61,16.61,0,0,1-2.77,1.69,4.17,4.17,0,0,0-1.34.62,13.56,13.56,0,0,1-7.16,1.39,2.8,2.8,0,0,1-2.76-2.46c.06-.56,0-1.12,0-1.68a5.17,5.17,0,0,1,.55-1.93A5,5,0,0,0,69.27,66.14Z" transform="translate(-11.69 -11)"/><path class="cls-67" d="M68.74,74.71a5.76,5.76,0,0,1-2.11,3.88,4.36,4.36,0,0,1-1.89,1.05,1.73,1.73,0,0,1-2.3-2.05A5.68,5.68,0,0,1,66.34,73,1.68,1.68,0,0,1,68.74,74.71Z" transform="translate(-11.69 -11)"/><path class="cls-68" d="M68.16,69.12a2.91,2.91,0,0,1,0,1.68A3.06,3.06,0,0,1,68.16,69.12Z" transform="translate(-11.69 -11)"/><path class="cls-69" d="M78.09,71.88a1.91,1.91,0,0,1,1.34-.62A5.84,5.84,0,0,1,78.09,71.88Z" transform="translate(-11.69 -11)"/><path class="cls-70" d="M69.27,66.14a2.92,2.92,0,0,1-.47,1.09h-.05l0,0A2.57,2.57,0,0,1,69.27,66.14Z" transform="translate(-11.69 -11)"/><path class="cls-71" d="M90.82,130.68c-.62-.12-1.24-.22-1.86-.37a9.56,9.56,0,0,1-3.32-1.58,10.32,10.32,0,0,1-4.14-6.38c-.06-.27.06-.57-.15-.81a.47.47,0,0,1,0-.44,11.49,11.49,0,0,1,.65-4.45,10.37,10.37,0,0,1,5.88-5.95,16.72,16.72,0,0,1,2.29-.66.27.27,0,0,1,.32,0,15,15,0,0,1,4.07.32,10.31,10.31,0,0,1,6.88,6.15,18.44,18.44,0,0,1,.67,2.35.29.29,0,0,1,0,.32v2.39a.15.15,0,0,1,0,.21,12.46,12.46,0,0,1-1,3.12,10.41,10.41,0,0,1-7.19,5.58,10.33,10.33,0,0,0-1.52.21A4.8,4.8,0,0,1,90.82,130.68Z" transform="translate(-11.69 -11)"/><path class="cls-72" d="M90.82,130.68H92.4A2.32,2.32,0,0,1,90.82,130.68Z" transform="translate(-11.69 -11)"/><path class="cls-53" d="M102.29,119.75v1.1A2,2,0,0,1,102.29,119.75Z" transform="translate(-11.69 -11)"/><path class="cls-53" d="M92.31,105.71a.76.76,0,0,1,.56,0A.76.76,0,0,1,92.31,105.71Z" transform="translate(-11.69 -11)"/><path class="cls-73" d="M144.15,111.63a.6.6,0,0,1,.23-.45h0c.09.05.17.1.11.23h0c-.07.14-.13.3-.34.23Z" transform="translate(-11.69 -11)"/><path class="cls-31" d="M145.73,109c.1.1.25.22.12.36s-.18,0-.23-.13A.24.24,0,0,0,145.73,109Z" transform="translate(-11.69 -11)"/><path class="cls-53" d="M102.09,121.77l0-.21a.41.41,0,0,1,.06.46C102.07,122,102.11,121.85,102.09,121.77Z" transform="translate(-11.69 -11)"/><path class="cls-35" d="M90.48,110l-.32,0s-.08,0-.1,0,0-.09,0-.09S90.37,109.9,90.48,110Z" transform="translate(-11.69 -11)"/><path class="cls-53" d="M81.33,121.11l0,.44C81.15,121.41,81.21,121.26,81.33,121.11Z" transform="translate(-11.69 -11)"/><path class="cls-53" d="M102.11,119.17l0-.32s0-.19.09-.08A.32.32,0,0,1,102.11,119.17Z" transform="translate(-11.69 -11)"/><path class="cls-74" d="M144.94,112.08c-.28-.31-.15-.66-.09-1,.36.31.13.67.09,1Z" transform="translate(-11.69 -11)"/><path class="cls-75" d="M147,111.28v.12c-.08,0-.15.12-.23,0a.66.66,0,0,1,0-.56h0C146.91,110.94,147.11,111,147,111.28Z" transform="translate(-11.69 -11)"/><path class="cls-74" d="M146.36,111.31a.74.74,0,0,1,0-.74A.64.64,0,0,1,146.36,111.31Z" transform="translate(-11.69 -11)"/><path class="cls-75" d="M149.9,107.44c.11.13.4.16.21.42,0,.05-.15.11-.18.09C149.76,107.8,149.86,107.63,149.9,107.44Z" transform="translate(-11.69 -11)"/><path class="cls-76" d="M148.15,108.65c.18.17.12.3,0,.4s-.13,0-.14,0C147.88,108.85,148.09,108.79,148.15,108.65Z" transform="translate(-11.69 -11)"/><path class="cls-76" d="M147.42,108a.65.65,0,0,1,0,.11c0,.14.27.21.09.38,0,0-.11,0-.14,0-.21-.17-.12-.32,0-.45Z" transform="translate(-11.69 -11)"/><path class="cls-76" d="M146.91,109.07a.84.84,0,0,1,.11.21c0,.13-.08.2-.18.24s-.17,0-.14-.1A1.91,1.91,0,0,1,146.91,109.07Z" transform="translate(-11.69 -11)"/><path class="cls-54" d="M145.45,111.06c0,.15.16.3.07.46a.15.15,0,0,1-.13,0C145.29,111.37,145.42,111.22,145.45,111.06Z" transform="translate(-11.69 -11)"/><path class="cls-77" d="M144.15,111.63l.34-.23c.14.26-.05.35-.23.45h0Z" transform="translate(-11.69 -11)"/><path class="cls-77" d="M144.89,112.48s-.08.1-.11.1a.26.26,0,0,1-.23-.21s.06-.11.1-.11S144.84,112.36,144.89,112.48Z" transform="translate(-11.69 -11)"/><path class="cls-77" d="M149.9,107.46c-.12-.08-.27-.13-.26-.31s.09-.09.12-.08S150,107.26,149.9,107.46Z" transform="translate(-11.69 -11)"/><path class="cls-51" d="M146.41,109.49c.13.16.24.32.07.53-.24-.17,0-.37-.07-.53Z" transform="translate(-11.69 -11)"/><path class="cls-31" d="M150,106.34c0,.1-.06.17-.14.14a.15.15,0,0,1-.08-.12.71.71,0,0,1,.11-.18Z" transform="translate(-11.69 -11)"/><path class="cls-31" d="M148.55,108.47c-.07-.14-.09-.27.06-.38.15.16.15.29-.07.38Z" transform="translate(-11.69 -11)"/><path class="cls-31" d="M147,108.27a1.29,1.29,0,0,1,.11.22.11.11,0,0,1-.11.14.15.15,0,0,1-.1-.11A1,1,0,0,1,147,108.27Z" transform="translate(-11.69 -11)"/><path class="cls-31" d="M146.41,109.48c-.22-.09-.19-.22-.08-.38a.26.26,0,0,1,.07.38Z" transform="translate(-11.69 -11)"/><path class="cls-31" d="M146.74,110.39c-.07-.14-.09-.27.06-.38.14.16.15.29-.07.38Z" transform="translate(-11.69 -11)"/><path class="cls-31" d="M149,107.34c-.11-.15,0-.3,0-.45h0c.16.15.29.3,0,.45Z" transform="translate(-11.69 -11)"/><path class="cls-31" d="M146.74,110.84c-.29-.15-.16-.3,0-.45h0c0,.15.11.3,0,.45Z" transform="translate(-11.69 -11)"/><path class="cls-20" d="M149.37,108c0-.06-.08-.1-.09-.15a.1.1,0,0,1,.13-.12.14.14,0,0,1,.09.11S149.44,107.94,149.37,108Z" transform="translate(-11.69 -11)"/><path class="cls-20" d="M148.51,107.48c0,.05-.06.11-.09.13a.1.1,0,0,1-.14-.1s.06-.1.1-.1S148.45,107.45,148.51,107.48Z" transform="translate(-11.69 -11)"/><path class="cls-20" d="M143.7,112.64c.1,0,.21-.13.28,0a.1.1,0,0,1,0,.09c-.15.09-.19,0-.24-.13Z" transform="translate(-11.69 -11)"/><path class="cls-20" d="M148.13,107.72c.05,0,.11.06.13.09a.1.1,0,0,1-.1.14s-.1-.06-.1-.1S148.09,107.78,148.13,107.72Z" transform="translate(-11.69 -11)"/><path class="cls-20" d="M149,107.34c0,.1.13.21,0,.28a.1.1,0,0,1-.09,0c-.09-.15,0-.19.13-.24Z" transform="translate(-11.69 -11)"/><path class="cls-20" d="M148.21,110c.05-.09.1-.23.24-.13s0,.16,0,.25h0c-.08,0-.14,0-.2,0Z" transform="translate(-11.69 -11)"/><path class="cls-20" d="M148,110.27c0-.08-.11-.16,0-.25s.16,0,.24,0h0c0,.18,0,.26-.23.23Z" transform="translate(-11.69 -11)"/><path class="cls-20" d="M148.55,108.47c0,.1.13.21,0,.28a.1.1,0,0,1-.09,0c-.09-.15,0-.19.13-.24Z" transform="translate(-11.69 -11)"/><path class="cls-20" d="M149.64,108.5c0,.05-.06.11-.09.13a.1.1,0,0,1-.14-.1s.06-.1.1-.1S149.58,108.47,149.64,108.5Z" transform="translate(-11.69 -11)"/><path class="cls-20" d="M144.49,111.4l-.11-.23c.08,0,.18-.12.25,0S144.58,111.35,144.49,111.4Z" transform="translate(-11.69 -11)"/><path class="cls-20" d="M144.26,111.85c0,.1.13.21,0,.28a.1.1,0,0,1-.09,0c-.09-.15,0-.19.13-.24Z" transform="translate(-11.69 -11)"/><path class="cls-20" d="M144.94,112.08c.1,0,.21-.13.28,0a.1.1,0,0,1,0,.09c-.15.09-.19,0-.24-.13Z" transform="translate(-11.69 -11)"/><path class="cls-73" d="M148,110.27a.38.38,0,0,0,.23-.23l.23.11C148.33,110.37,148.2,110.51,148,110.27Z" transform="translate(-11.69 -11)"/><path class="cls-6" d="M81.93,119.41a9.59,9.59,0,0,1,1.89-4.87,9,9,0,0,1,2.11-2.1,9.67,9.67,0,0,1,2.35-1.23c.73-.25,1.47-.38,2.2-.59a1.8,1.8,0,0,0,.74,0c0,.06-.14,0-.23-.06a7.55,7.55,0,0,1,3.13.25,8.44,8.44,0,0,1,2.46,1,9.5,9.5,0,0,1,4.81,6.68.62.62,0,0,0,0,.32s0,.08,0,.1,0-.1,0-.13a.41.41,0,0,1,.08.38c-.1.23,0,.47,0,.7,0,0,0-.08.09-.07a7,7,0,0,1-.31,3.08,9.17,9.17,0,0,1-2.19,4,9.79,9.79,0,0,1-6.88,3.21,2.69,2.69,0,0,0-1,0,.58.58,0,0,1-.49-.08c0-.07.11-.09.17-.06a1.08,1.08,0,0,0-.58,0,9.36,9.36,0,0,1-4.12-1.62,9.47,9.47,0,0,1-2.86-3.09,9.64,9.64,0,0,1-1.35-4.07A8.84,8.84,0,0,0,81.93,119.41Z" transform="translate(-11.69 -11)"/><path class="cls-62" d="M81.93,119.41a3.63,3.63,0,0,1,0,1.8A6,6,0,0,1,81.93,119.41Z" transform="translate(-11.69 -11)"/><path class="cls-62" d="M91.16,130.1a1.2,1.2,0,0,1,1,0Z" transform="translate(-11.69 -11)"/><path class="cls-78" d="M101.55,119.81s-.07.24-.1.1a.79.79,0,0,1,.06-.73Z" transform="translate(-11.69 -11)"/><path class="cls-78" d="M91,110.59l.26,0c-.26.07-.52.18-.77,0Z" transform="translate(-11.69 -11)"/><path class="cls-62" d="M90.26,130c.14-.16.33-.09.51-.09s.06.06,0,.09l-.1,0Z" transform="translate(-11.69 -11)"/><path class="cls-62" d="M101.44,118.81s0,.12-.06.14-.06-.05-.06-.09,0-.25.09-.35Z" transform="translate(-11.69 -11)"/><path class="cls-71" d="M98.14,122.76A7.08,7.08,0,0,1,96,126.51a7.66,7.66,0,0,1-2.92,1.59c-.37.12-.76,0-1.1.19a1.92,1.92,0,0,1-1.16,0,7.92,7.92,0,0,1-3.33-1.2,6.54,6.54,0,0,1-2.2-8.26,6.39,6.39,0,0,1,6-3.72h1c.14,0,.29-.09.41,0a7.22,7.22,0,0,1,4.1,2.51,6.34,6.34,0,0,1,1.22,2.6c0,.11,0,.23.1.31s.07.28,0,.42v1.36C98.21,122.49,98.25,122.63,98.14,122.76Z" transform="translate(-11.69 -11)"/><path class="cls-79" d="M90.86,128.29H92c-.41.31-.87.06-1.3.11A.5.5,0,0,1,90.86,128.29Z" transform="translate(-11.69 -11)"/><path class="cls-62" d="M84.53,122.1v-1h0v1Z" transform="translate(-11.69 -11)"/><path class="cls-62" d="M98.33,121.27a1.32,1.32,0,0,1,0,.78A1.37,1.37,0,0,1,98.33,121.27Z" transform="translate(-11.69 -11)"/><path class="cls-62" d="M98.17,121l0-.42a.38.38,0,0,1,0-.1c0-.05.09-.06.09,0S98.32,120.84,98.17,121Z" transform="translate(-11.69 -11)"/><path class="cls-62" d="M98.14,122.76l0-.42c.15.15.08.33.09.5s-.05.07-.09,0A.38.38,0,0,1,98.14,122.76Z" transform="translate(-11.69 -11)"/><path class="cls-62" d="M92.71,115.14l-.41,0C92.44,115,92.59,114.9,92.71,115.14Z" transform="translate(-11.69 -11)"/><path class="cls-6" d="M92.11,127.66a5.66,5.66,0,0,1-4.1-1,5.93,5.93,0,0,1-2.76-4.43,6.15,6.15,0,0,1,3.61-6.06,6,6,0,0,1,3.39-.53,6.54,6.54,0,0,1,3.46,1.63A5.71,5.71,0,0,1,97.57,121a4.68,4.68,0,0,0,0,1.35,6,6,0,0,1-5.17,5.29.83.83,0,0,0-.45,0A.14.14,0,0,1,92.11,127.66Z" transform="translate(-11.69 -11)"/><path class="cls-80" d="M97.57,122.34a2,2,0,0,1,0-1.35A3.19,3.19,0,0,1,97.57,122.34Z" transform="translate(-11.69 -11)"/><path class="cls-81" d="M92.11,127.66l-.26,0c.19-.08.38-.16.55,0Z" transform="translate(-11.69 -11)"/><path class="cls-71" d="M94.44,118a4.57,4.57,0,0,0-2.61-1.22,7,7,0,0,1-1.35,0,4.26,4.26,0,0,0-2,.75c-.24.17-.5.26-.66,0s.1-.38.29-.5l.6-.39c.07-.11.15-.19.3-.14a7.94,7.94,0,0,1,2.94-.35c.11,0,.21-.08.3,0a5.57,5.57,0,0,1,2.35,1.07A5.43,5.43,0,0,1,96.43,120c.12.41.2.83.29,1.25a.13.13,0,0,1,0,.12,11.23,11.23,0,0,1-.16,1.95c-.07.2-.05.52-.35.45s-.24-.37-.19-.62a3.17,3.17,0,0,0,.09-1.7c-.13-.13-.07-.27,0-.41a4.69,4.69,0,0,0-1.21-2.49A1,1,0,0,1,94.44,118Z" transform="translate(-11.69 -11)"/><path class="cls-71" d="M95,126c-.13.05-.09-.08-.13-.11a.26.26,0,0,1,0-.4,10.3,10.3,0,0,0,.85-1.24.24.24,0,0,1,.28-.11.25.25,0,0,1,.22.22A3,3,0,0,1,95,126Z" transform="translate(-11.69 -11)"/><path class="cls-62" d="M96.74,121.33l0-.12c.16-.07.19,0,.18.15,0,.39,0,.78,0,1.18C96.73,122.15,96.91,121.72,96.74,121.33Z" transform="translate(-11.69 -11)"/><path class="cls-82" d="M90.49,116.83a2.87,2.87,0,0,1,1.35,0A2,2,0,0,1,90.49,116.83Z" transform="translate(-11.69 -11)"/><path class="cls-83" d="M94.44,118a1,1,0,0,1,.45.45A.39.39,0,0,1,94.44,118Z" transform="translate(-11.69 -11)"/><path class="cls-62" d="M96.1,121l0,.41-.1.41C96,121.43,95.94,121.2,96.1,121Z" transform="translate(-11.69 -11)"/><path class="cls-84" d="M89,116.58l-.3.14c-.07,0-.1-.09,0-.14S88.91,116.43,89,116.58Z" transform="translate(-11.69 -11)"/><path class="cls-62" d="M92.25,116.27l-.3,0c.09-.12.22-.09.35-.09s.12,0,.09.06S92.3,116.25,92.25,116.27Z" transform="translate(-11.69 -11)"/></svg>