<svg id="Layer_1" data-name="Layer 1" xmlns="http://www.w3.org/2000/svg" viewBox="0 0 178 178"><defs><style>.cls-1{fill:#ededed;}.cls-2{fill:#dd6f47;}.cls-3{fill:#e4e4e4;}.cls-4{fill:#d25037;}.cls-5{fill:#b32d32;}.cls-6{fill:#b0b9bd;}.cls-7{fill:#cc4940;}.cls-8{fill:#e8e8e8;}.cls-9{fill:#b7bfc3;}.cls-10{fill:#c23d3a;}.cls-11{fill:#d9dbdc;}.cls-12{fill:#dfe0e1;}.cls-13{fill:#c6413c;}.cls-14{fill:#be3837;}.cls-15{fill:#b73034;}.cls-16{fill:#ba3435;}.cls-17{fill:#b4bcc1;}.cls-18{fill:#c9443e;}.cls-19{fill:#c4c9cc;}.cls-20{fill:#82929b;}.cls-21{fill:#d0dee4;}.cls-22{fill:#83939c;}.cls-23{fill:#83939b;}.cls-24{fill:#ab2e32;}.cls-25{fill:#98da5a;}.cls-26{fill:#dce5ea;}.cls-27{fill:#d95f48;}.cls-28{fill:#e1aa02;}.cls-29{fill:#f0c826;}.cls-30{fill:#b4402e;}.cls-31{fill:#6f9a38;}.cls-32{fill:#e1aa04;}.cls-33{fill:#f0cd60;}.cls-34{fill:#f1d062;}.cls-35{fill:#e3ae18;}.cls-36{fill:#eac03d;}.cls-37{fill:#e4b217;}.cls-38{fill:#e7b82c;}.cls-39{fill:#dd7063;}.cls-40{fill:#efcc51;}.cls-41{fill:#e8ba2a;}.cls-42{fill:#ebc33c;}.cls-43{fill:#e7b823;}.cls-44{fill:#e7b627;}.cls-45{fill:#dbe5eb;}.cls-46{fill:#8bbb53;}.cls-47{fill:#eec950;}.cls-48{fill:#497cd5;}.cls-49{fill:#87d0f6;}.cls-50{fill:#80c7f2;}.cls-51{fill:#83cbf4;}.cls-52{fill:#75baee;}.cls-53{fill:#538cdc;}.cls-54{fill:#6aabe9;}.cls-55{fill:#4f86d9;}.cls-56{fill:#568edc;}.cls-57{fill:#6dafea;}.cls-58{fill:#4d82d8;}.cls-59{fill:#79beef;}.cls-60{fill:#7dc3f1;}.cls-61{fill:#75b7eb;}.cls-62{fill:#5d96df;}.cls-63{fill:#64a2e5;}.cls-64{fill:#619ee3;}.cls-65{fill:#5f99e0;}.cls-66{fill:#f1c91c;}.cls-67{fill:#77c6fc;}.cls-68{fill:#7dcafc;}.cls-69{fill:#8cd1fd;}.cls-70{fill:#84cefc;}</style></defs><title>icn_pokedex</title><circle class="cls-1" cx="89" cy="89" r="89"/><path class="cls-2" d="M100.24,51.05q2.22,8.21,4.44,16.41c.07.24.18.48.27.71a2.14,2.14,0,0,1,.57,1.07c.56,2.32,1.24,4.62,1.84,6.93,2.68,10.1,5.41,20.18,8.06,30.28.63,2.32,1.28,4.65,1.85,7,.53,1.91,1.06,3.82,1.52,5.75s1,3.71,1.53,5.58c0,.45.24.94-.3,1.24a4.71,4.71,0,0,1-1.79.19H61c-2.6,0-4.77-.72-6-3.23a3.89,3.89,0,0,1-.49-1.86c-.06-3.2-.05-6.41,0-9.61,0-3.72-.11-7.44,0-11.15q-.1-5.71,0-11.42c-.08-4.84-.05-9.68,0-14.52s.06-9.83,0-14.74a42.84,42.84,0,0,1,0-4.51,5.46,5.46,0,0,1,4.64-4.43,12,12,0,0,1,2.07-.11H98A3,3,0,0,1,100.24,51.05Z" transform="translate(-11 -11)"/><path class="cls-3" d="M150.1,74.15q0,4.8,0,9.6a2.73,2.73,0,0,0-.6,2c0,4.43,0,8.85,0,13.28,0,3.32,0,6.64,0,10a3.22,3.22,0,0,1-.24,1.52c-.5.59-.95.22-1.31-.14-1.63-1.58-3.24-3.18-4.95-4.67a1.76,1.76,0,0,1-.67-1.6,13.79,13.79,0,0,0,.39-3.72c0-6.34,0-12.68,0-19,0-2.83-.84-4-3.49-4.87a4.6,4.6,0,0,0-1.92-.22c-7.65,0-15.29,0-22.94,0a4.76,4.76,0,0,1-3.78-1.58c-1.42-1.51-2.93-2.94-4.38-4.42-.32-.33-.91-.59-.66-1.24a2.89,2.89,0,0,1,1.76-.31q18,0,35.91,0c3,0,5.15,1.22,6.23,4.1A7.66,7.66,0,0,0,150.1,74.15Z" transform="translate(-11 -11)"/><path class="cls-4" d="M99.16,144.93c-.12-.11-.32-.2-.36-.33q-2.27-8.62-4.52-17.25c-.22-.53.14-.69.53-.82a4,4,0,0,1,1.28-.13h22.49a5.17,5.17,0,0,1,1.15.09c1.17.48.38,1,0,1.4-1,.92-2.07,1.82-3.13,2.69-5,4.1-9.88,8.3-14.82,12.46-.33.28-.66.55-1,.8C100.24,144.23,99.85,144.8,99.16,144.93Z" transform="translate(-11 -11)"/><path class="cls-5" d="M120.3,126.84H95.56c-.47,0-1.09-.24-1.27.52-.3-.68-.9-.51-1.44-.51-11,0-22.09-.09-33.14.05-3.63,0-6.41-2.56-5.84-6.29.52-.19.75.17,1,.51a5.07,5.07,0,0,0,5,4.67c.35,0,.69,0,1,0h59.29C120.55,126.1,120.84,126.42,120.3,126.84Z" transform="translate(-11 -11)"/><path class="cls-6" d="M99.16,144.93a5.08,5.08,0,0,1,1.39-1.21,11.79,11.79,0,0,1,2.32-.19h40.29c3.16,0,4.63-1.15,5.57-4.18a6.52,6.52,0,0,0,.27-1.65c.08-.59.24-1.17,1.07-.75,0,1.08.06,2.16,0,3.23a5,5,0,0,1-4.85,4.79q-22.85,0-45.7,0A3.24,3.24,0,0,1,99.16,144.93Z" transform="translate(-11 -11)"/><path class="cls-7" d="M100.24,51.05H60.34a5.21,5.21,0,0,0-5.48,4.15.7.7,0,0,1-1,0,4.94,4.94,0,0,1,5-5.18c13.4,0,26.81,0,40.21,0C99.84,50,100.3,50.18,100.24,51.05Z" transform="translate(-11 -11)"/><path class="cls-8" d="M150.1,74.15A1.84,1.84,0,0,1,149,73c-.93-2.65-2.62-3.79-5.45-3.8h-38c-.09.12-.17.13-.25,0a1.54,1.54,0,0,1-.28-1c13.09,0,26.18.08,39.26-.05C147.77,68.09,150.51,70.57,150.1,74.15Z" transform="translate(-11 -11)"/><path class="cls-9" d="M150.09,112l0,13.23c-.44.4-.35.93-.36,1.44,0,2.53,0,5.05,0,7.58,0,.51.2,1.24-.71,1.31a2.22,2.22,0,0,1-.34-1.48q0-10.67,0-21.34a3.66,3.66,0,0,1,.14-1.15C149.6,110.53,149.72,111.69,150.09,112Z" transform="translate(-11 -11)"/><path class="cls-10" d="M54.86,74.41V88.94a.7.7,0,0,1-1,0q0-7,0-14C54.15,74.66,54.34,74.21,54.86,74.41Z" transform="translate(-11 -11)"/><path class="cls-11" d="M150.09,112l-1-.79c-.23-.1-.38-.23-.26-.51.43-.38.26-.89.26-1.34,0-3.45,0-6.89,0-10.34.25-.35.09-.74.13-1.11.06-.54.18-1,.89-1Q150.09,104.52,150.09,112Z" transform="translate(-11 -11)"/><path class="cls-12" d="M150.09,97c-1.06.33-.5,1.47-1,2.07q0-6.84,0-13.67c0-.78.06-1.49,1-1.63Q150.09,90.37,150.09,97Z" transform="translate(-11 -11)"/><path class="cls-13" d="M54.86,74.41c-.35.14-.56.54-1,.52V64.54c.64-1.11.22-2.32.37-3.48.07-.53-.22-1.24.63-1.44Z" transform="translate(-11 -11)"/><path class="cls-14" d="M53.87,88.94h1q0,5.71,0,11.42c-.44.33-.72,0-1-.26Z" transform="translate(-11 -11)"/><path class="cls-15" d="M54.86,121.12l-1-.51V109.44c.69-.26.79.19.86.7s-.13.94.13,1.38Z" transform="translate(-11 -11)"/><path class="cls-16" d="M54.86,111.51c-.37-.29-.25-.7-.25-1.07,0-.53-.12-.94-.74-1q0-4.67,0-9.34l1,.26Q54.86,105.94,54.86,111.51Z" transform="translate(-11 -11)"/><path class="cls-17" d="M149.07,135.65c.42-.38.25-.89.25-1.34,0-2.67,0-5.33,0-8,0-.53-.05-1.09.75-1q0,5.84,0,11.68c-.66-.05-.74.35-.76.88s.19,1-.24,1.45A3.7,3.7,0,0,1,149.07,135.65Z" transform="translate(-11 -11)"/><path class="cls-18" d="M54.86,59.61c-.55,1.17-.18,2.41-.24,3.62,0,.62-.14,1.08-.76,1.3q0-4.67,0-9.33h1Q54.86,57.41,54.86,59.61Z" transform="translate(-11 -11)"/><path class="cls-19" d="M149.07,135.65q0,1.82,0,3.63a5.08,5.08,0,0,1-5.38,4.66H101.91c-.46,0-1,.16-1.36-.22l15.79-13.31a4.21,4.21,0,0,1,2-.36H129a6,6,0,0,0,2.17-.27,2.31,2.31,0,0,0,1.62-2.13,2.41,2.41,0,0,0-1.61-2.28,4.83,4.83,0,0,0-1.78-.23h-7.63a2.45,2.45,0,0,1-1.73-.38l-1.5-5.47a2.23,2.23,0,0,1,1.71-.39c2.29,0,4.57,0,6.86,0a5.33,5.33,0,0,0,2.16-.33,2.18,2.18,0,0,0,1.5-2.19,2.3,2.3,0,0,0-1.59-2.15,5,5,0,0,0-1.91-.24h-8.41a2.58,2.58,0,0,1-1.85-.4l-1.84-7c.6-.58,1.37-.43,2.09-.43,6.6,0,13.21,0,19.81,0,1.87,0,3.62-.17,5-1.56a.66.66,0,0,1,.48-.15,1.35,1.35,0,0,0,.5.88l5.76,5.39.26.51Z" transform="translate(-11 -11)"/><path class="cls-20" d="M142.54,104.47a4.64,4.64,0,0,1-4.16,2.12l-23.25,0q-2.89-10.78-5.77-21.55c-.79-2.95-1.54-5.9-2.3-8.86,1.57-.76,3.21-.41,4.82-.27.64.06,1.28.17,1.93.17h24a3.81,3.81,0,0,1,1.41.09,4.32,4.32,0,0,1,3.89,4.67c0,7,0,14,0,21A7.33,7.33,0,0,1,142.54,104.47Z" transform="translate(-11 -11)"/><path class="cls-21" d="M74.08,59.33A9.5,9.5,0,0,1,60.51,72.57a9.61,9.61,0,0,1-1-13,9.21,9.21,0,0,0,1.69-1.51,9.45,9.45,0,0,1,11.28,0C73.07,58.42,73.43,59.05,74.08,59.33Z" transform="translate(-11 -11)"/><path class="cls-22" d="M120,124.77c3.41,0,6.82,0,10.23,0a2.83,2.83,0,0,1,2.65,1.54,2.6,2.6,0,0,1-.21,2.92,3,3,0,0,1-2.73,1.2c-4.53,0-9.07,0-13.6,0,1.23-1.3,2.82-2.19,4-3.58.22-.38-.1-.7-.12-1Z" transform="translate(-11 -11)"/><path class="cls-23" d="M117,113.58c3.71,0,7.41,0,11.12,0a2.82,2.82,0,0,1,3.07,3.28c-.17,1.43-1.47,2.37-3.35,2.39-3.1,0-6.21,0-9.31,0Z" transform="translate(-11 -11)"/><path class="cls-24" d="M86.27,120.6c-3.19,0-6.39,0-9.58,0-1.07,0-1.76-.48-1.76-1.44s.68-1.45,1.75-1.45q9.58,0,19.16,0c1.07,0,1.76.48,1.76,1.44s-.68,1.46-1.75,1.45C92.66,120.57,89.46,120.6,86.27,120.6Z" transform="translate(-11 -11)"/><path class="cls-19" d="M139.21,76.19H107.06a64.61,64.61,0,0,1-1.83-7h.25c1.94,1.9,3.9,3.77,5.8,5.7A3.38,3.38,0,0,0,113.91,76c7.93,0,15.87,0,23.8,0C138.21,76,138.76,75.81,139.21,76.19Z" transform="translate(-11 -11)"/><path class="cls-25" d="M88.36,57.53A1.6,1.6,0,0,1,89.85,56a1.66,1.66,0,0,1,1.89,1c-.18.42,0,.88-.11,1.3A1.45,1.45,0,0,1,90,59.39,1.42,1.42,0,0,1,88.58,58,.91.91,0,0,0,88.36,57.53Z" transform="translate(-11 -11)"/><path class="cls-26" d="M74.08,59.33c-.14.2-.28.13-.42,0C70,55.94,66,55.58,61.67,58c-.19.11-.39.19-.58.29a.18.18,0,0,1-.32,0A9.22,9.22,0,0,1,74.08,59.33Z" transform="translate(-11 -11)"/><path class="cls-27" d="M80.83,56.76l.5.78a1.52,1.52,0,0,0-.31.7,1.57,1.57,0,0,1-1.55,1.14A1.41,1.41,0,0,1,78,58.24a1.13,1.13,0,0,0-.25-.44c0-.5-.07-1,.51-1.3A2.89,2.89,0,0,1,80.83,56.76Z" transform="translate(-11 -11)"/><path class="cls-28" d="M64.45,95.13,62.21,97c-.53.46-1.07.93-1.82.59a1.63,1.63,0,0,1-.86-1.83c0-.3,0-.6,0-.9a.6.6,0,0,1,.7-.12s.08,0,.09.08c.65,1.62.65,1.62,2.17.5a2.92,2.92,0,0,1,1.21-.69C64.07,94.69,64.44,94.64,64.45,95.13Z" transform="translate(-11 -11)"/><path class="cls-29" d="M86.29,56.73l.28.54c-.18.39-.27.82-.44,1.22-.91,1.13-1.34,1.19-2.52.3-.29-.38-.29-.93-.71-1.25a.5.5,0,0,1,.21-.53C84.12,56.15,85.21,56.45,86.29,56.73Z" transform="translate(-11 -11)"/><path class="cls-30" d="M77.7,57.79c.75.28.76,1.52,2,1.33,1-.16.87-1.34,1.67-1.58a1.91,1.91,0,0,1-1.57,2.29C78.58,60.15,77.73,59.28,77.7,57.79Z" transform="translate(-11 -11)"/><path class="cls-31" d="M88.36,57.53c.22,0,.42.12.46.37a1.24,1.24,0,0,0,1.24,1.22c.82.07,1.14-.44,1.4-1.06A.33.33,0,0,1,92,58a1.89,1.89,0,0,1-2,1.81C88.79,59.76,88.3,59,88.36,57.53Z" transform="translate(-11 -11)"/><path class="cls-32" d="M83.67,58.57c.87.73,1.66.77,2.33-.26a.49.49,0,0,1,.71,0,2,2,0,0,1-3.77.25A.51.51,0,0,1,83.67,58.57Z" transform="translate(-11 -11)"/><path class="cls-33" d="M59.57,89.45a1.11,1.11,0,0,1,.87-1.35c.88-.32,1.43.24,2,.83.06.5-.33.46-.63.52a2,2,0,0,0-1.52.16A.63.63,0,0,1,59.57,89.45Z" transform="translate(-11 -11)"/><path class="cls-34" d="M86.29,56.73c-1,.29-2.14-.14-3.17.27C83.85,55.66,85.14,55.55,86.29,56.73Z" transform="translate(-11 -11)"/><path class="cls-35" d="M64.45,95.13c-.2-.27-.49-.21-.76-.23.1-1.16,1.23-1.36,1.88-2a5.62,5.62,0,0,1,.75-.38c.48.65,0,1-.42,1.39S64.94,94.72,64.45,95.13Z" transform="translate(-11 -11)"/><path class="cls-36" d="M63.66,90a6.32,6.32,0,0,1,1.56,1.27c0,.51-.38.44-.7.47a2.47,2.47,0,0,1-1.68-1.45C63,89.93,63.37,90.09,63.66,90Z" transform="translate(-11 -11)"/><path class="cls-37" d="M60.31,94.91h-.74q0-1,0-2.08a.59.59,0,0,1,.86,0A1.77,1.77,0,0,1,60.31,94.91Z" transform="translate(-11 -11)"/><path class="cls-38" d="M64.47,91.53c.27,0,.57.05.76-.23a1.85,1.85,0,0,1,1.09,1.21c0,.33-.18.57-.55.57C65.33,92.57,64.46,92.42,64.47,91.53Z" transform="translate(-11 -11)"/><path class="cls-39" d="M80.83,56.76l-2.62-.26C79.17,55.75,80.06,55.64,80.83,56.76Z" transform="translate(-11 -11)"/><path class="cls-40" d="M63.66,90c-.2.25-.49.19-.75.2a1.14,1.14,0,0,1-1.29-1c.29,0,.59,0,.78-.26Z" transform="translate(-11 -11)"/><path class="cls-41" d="M60.31,92.83h-.74q0-.65,0-1.3a.59.59,0,0,1,.84,0A1,1,0,0,1,60.31,92.83Z" transform="translate(-11 -11)"/><path class="cls-42" d="M60.31,91.53h-.73q0-.65,0-1.3a.6.6,0,0,1,.84,0A1,1,0,0,1,60.31,91.53Z" transform="translate(-11 -11)"/><path class="cls-43" d="M83.67,58.57h-.73l0-1C83.73,57.47,83.68,58,83.67,58.57Z" transform="translate(-11 -11)"/><path class="cls-44" d="M86.72,58.32H86c0-.43-.14-1,.57-1C86.88,57.58,86.78,58,86.72,58.32Z" transform="translate(-11 -11)"/><path class="cls-45" d="M60.78,58.3l.32,0c-.47.49-.72,1.25-1.57,1.27A3.71,3.71,0,0,1,60.78,58.3Z" transform="translate(-11 -11)"/><path class="cls-46" d="M92,58h-.49c.1-.35-.63-.91.28-1C92.09,57.3,92,57.68,92,58Z" transform="translate(-11 -11)"/><path class="cls-47" d="M60.31,90.23h-.73q0-.39,0-.78h.73A.53.53,0,0,1,60.31,90.23Z" transform="translate(-11 -11)"/><path class="cls-23" d="M143.09,116.59c0,1.08,0,2.16,0,3.24a1.14,1.14,0,0,1-.64,1.17c-.47.22-.85-.06-1.18-.33-1.26-1-2.49-2.13-3.76-3.16-.81-.66-.76-1.24,0-1.88,1.26-1,2.49-2.12,3.76-3.16.32-.27.71-.54,1.18-.3a1.17,1.17,0,0,1,.61,1.19C143.08,114.43,143.09,115.51,143.09,116.59Z" transform="translate(-11 -11)"/><path class="cls-48" d="M71.2,70.75c-1.63,2.08-6.49,2.14-8.31.32.3-1,1.14-.51,1.76-.62a9.8,9.8,0,0,0,5-.27C70.22,70.24,70.92,69.93,71.2,70.75Z" transform="translate(-11 -11)"/><path class="cls-49" d="M62.66,59.88c2.23-1.87,6-2,8.05-.27-.93.72-2,.22-3,.38-.93,0-1.83.23-2.76.26C64.17,60.14,63.33,60.49,62.66,59.88Z" transform="translate(-11 -11)"/><path class="cls-50" d="M62.66,59.88H65c-.35,1.06-1.39,1.15-2.19,1.58a1.53,1.53,0,0,1-1.42-.28A3.55,3.55,0,0,1,62.66,59.88Z" transform="translate(-11 -11)"/><path class="cls-51" d="M67.58,59.62h3.13a2.43,2.43,0,0,1,1.28,1c-.5.49-1.11.34-1.7.31C69.39,60.51,68.23,60.58,67.58,59.62Z" transform="translate(-11 -11)"/><path class="cls-52" d="M72.77,61.69a2.75,2.75,0,0,1,.75,1.56,1.87,1.87,0,0,1-1.2.82,2.67,2.67,0,0,1-.79-2C71.79,61.34,72.25,61.39,72.77,61.69Z" transform="translate(-11 -11)"/><path class="cls-53" d="M61.77,70c-.38-.39-.9-.68-.94-1.32-.24-.88.38-.74.88-.75.67.32,1.25.72,1.28,1.57C62.71,70,62.37,70.32,61.77,70Z" transform="translate(-11 -11)"/><path class="cls-54" d="M60.06,65.58l0-1.56a.83.83,0,0,1,1.37-.25,3.1,3.1,0,0,1,.09,2.41C60.76,66.7,60.56,65.78,60.06,65.58Z" transform="translate(-11 -11)"/><path class="cls-55" d="M71.2,70.75c-.46-.44-1-.15-1.56-.24a2.4,2.4,0,0,1,1.68-1.57c.46,0,1-.21,1.17.5C72.12,69.94,71.9,70.58,71.2,70.75Z" transform="translate(-11 -11)"/><path class="cls-56" d="M72.49,69.44c-.37-.39-.85-.17-1.27-.23a1.76,1.76,0,0,1,1.17-1.81c.42,0,.93-.12.94.57C72.9,68.37,73.13,69.16,72.49,69.44Z" transform="translate(-11 -11)"/><path class="cls-57" d="M72.51,64c.08-.6.55-.69,1-.78a2.32,2.32,0,0,1,.26,1.56,4.08,4.08,0,0,0-.87,1.09c-.16.25-.37.35-.59,0A1.79,1.79,0,0,1,72.51,64Z" transform="translate(-11 -11)"/><path class="cls-58" d="M61.77,70c.46,0,.75-.33,1.1-.54.74.25,1.59.36,1.87,1.29-.61.11-1.31-.25-1.85.3A2.81,2.81,0,0,1,61.77,70Z" transform="translate(-11 -11)"/><path class="cls-59" d="M61.38,61.18h1.53c.09.85-.43,1.26-1.11,1.56a1.23,1.23,0,0,1-1.2-.26Z" transform="translate(-11 -11)"/><path class="cls-60" d="M72.77,61.69c-.41.05-1-.17-1,.52a2.18,2.18,0,0,1-1.56-1.56H72C72.43,60.86,72.58,61.29,72.77,61.69Z" transform="translate(-11 -11)"/><path class="cls-61" d="M60.6,62.47h1.27c.25.6.22,1.09-.52,1.3a2,2,0,0,0-1.27.26A3.85,3.85,0,0,1,60.6,62.47Z" transform="translate(-11 -11)"/><path class="cls-62" d="M61.85,68.18c-.42,0-.94-.16-1,.53a1.75,1.75,0,0,1-.52-1.29c-.2-.91.38-.8.94-.72C61.73,67.08,62.21,67.46,61.85,68.18Z" transform="translate(-11 -11)"/><path class="cls-63" d="M72.52,66.11c.4-.46.09-1.61,1.27-1.3v1.56c-.4.24-.77.61-1.3.3A.44.44,0,0,1,72.52,66.11Z" transform="translate(-11 -11)"/><path class="cls-64" d="M61.35,66.88c-.42,0-1-.15-1,.54-.43-.57-.21-1.22-.24-1.84.7-.19,1,.29,1.28.78A.37.37,0,0,1,61.35,66.88Z" transform="translate(-11 -11)"/><path class="cls-65" d="M72.52,66.62l1.26-.26c-.39.47,0,1.15-.45,1.61-.27-.42-.71-.28-1.1-.32C72,67.21,72.16,66.89,72.52,66.62Z" transform="translate(-11 -11)"/><path class="cls-66" d="M60.31,90.23q0-.39,0-.78c.28-.91.83-.43,1.32-.26l1.29,1a7.66,7.66,0,0,0,1.56,1.29c.28.64,1.3.67,1.3,1.56a12.76,12.76,0,0,0-2.08,1.82l-1.81,1.42c-.36.29-.71.73-1.22.51s-.33-.74-.35-1.15c0-.26,0-.51,0-.77q0-1,0-2.08,0-.65,0-1.3T60.31,90.23Z" transform="translate(-11 -11)"/><path class="cls-67" d="M72.52,66.62l-.28,1-1,1.57-1.58,1.29a7.35,7.35,0,0,1-4.91.26c-.52-.58-1.44-.58-1.87-1.29l-1-1.3-.5-1.3v-.52q0-1.3,0-2.6a2.61,2.61,0,0,0,.52-1.3c.53-.28.68-.87,1-1.3L65,59.87c.88,0,1.71-.41,2.59-.26a14.23,14.23,0,0,1,2.6,1,7.55,7.55,0,0,1,1.56,1.56c.35.57.31,1.3.78,1.82q0,1,0,2.08Q72.52,66.36,72.52,66.62Z" transform="translate(-11 -11)"/><path class="cls-68" d="M62.91,64c.06-.7.54-.78,1.11-.78h5.83c.57,0,1.05.08,1.11.78a1.38,1.38,0,0,1-.94.35q-3.08,0-6.16,0A1.38,1.38,0,0,1,62.91,64Z" transform="translate(-11 -11)"/><path class="cls-69" d="M71,64.55c-.27,1.28-1.33.82-2,.72a13.12,13.12,0,0,0-4.32,0c-.61.11-1.54.41-1.73-.74a1.75,1.75,0,0,1,1.24-.26h5.57A1.75,1.75,0,0,1,71,64.55Z" transform="translate(-11 -11)"/><path class="cls-70" d="M71,64.55h-8V64h8Z" transform="translate(-11 -11)"/></svg>